{"glyphs":{"0":{"ha":553,"x_min":43,"x_max":510,"o":"m 510 215 q 492 133 510 175 q 442 58 474 92 q 368 5 410 25 q 276 -15 326 -15 q 185 5 226 -15 q 112 58 143 25 q 62 133 81 92 q 43 215 43 175 l 43 883 q 62 965 43 924 q 112 1040 81 1007 q 185 1092 143 1072 q 276 1111 226 1111 q 368 1092 326 1111 q 442 1040 410 1072 q 492 965 474 1007 q 510 883 510 924 l 510 215 m 322 890 q 310 915 322 907 q 276 924 297 924 q 244 915 257 924 q 232 890 232 907 l 232 207 q 244 183 232 192 q 276 175 257 175 q 310 183 297 175 q 322 207 322 192 l 322 890 z "},"1":{"ha":431,"x_min":22,"x_max":315,"o":"m 315 50 q 300 15 315 31 q 264 0 285 0 l 175 0 q 138 15 153 0 q 124 50 124 31 l 124 815 l 72 815 q 37 830 51 815 q 22 867 22 844 l 22 894 q 33 927 22 914 q 64 949 44 940 q 157 1051 132 978 q 178 1085 165 1072 q 214 1099 192 1099 l 264 1099 q 300 1083 285 1099 q 315 1047 315 1068 l 315 50 z "},"2":{"ha":544,"x_min":32,"x_max":508,"o":"m 508 858 q 497 760 508 808 q 466 667 485 711 q 424 579 447 622 q 376 497 400 536 q 366 481 372 489 q 357 465 360 472 q 317 391 333 425 q 288 326 300 357 q 267 263 276 294 q 249 194 257 232 l 432 194 q 468 180 453 194 q 483 143 483 165 l 483 50 q 468 15 483 31 q 432 0 453 0 l 82 0 q 48 13 64 0 q 32 47 32 25 q 51 170 36 107 q 85 295 65 233 q 133 417 106 357 q 193 533 161 476 q 218 575 206 557 q 240 610 231 593 q 278 675 261 647 q 306 731 294 703 q 322 789 317 758 q 328 860 328 819 q 311 908 328 893 q 272 924 294 924 q 231 908 250 924 q 211 860 211 893 l 211 799 q 197 763 211 778 q 160 749 182 749 l 89 749 q 53 763 67 749 q 39 799 39 778 l 39 883 q 56 965 39 924 q 104 1040 74 1007 q 176 1092 135 1072 q 267 1111 217 1111 q 371 1092 325 1111 q 447 1041 417 1074 q 492 961 476 1008 q 508 858 508 914 z "},"3":{"ha":525,"x_min":33,"x_max":486,"o":"m 486 201 q 469 122 486 160 q 422 53 451 83 q 350 3 392 22 q 260 -15 308 -15 q 169 3 211 -15 q 97 53 128 22 q 50 122 67 83 q 33 201 33 160 l 33 250 q 49 287 33 272 q 83 301 64 301 l 164 301 q 200 287 185 301 q 215 250 215 272 l 215 207 q 228 183 215 192 q 260 175 242 175 q 292 183 278 175 q 307 207 307 192 l 307 447 q 292 469 307 460 q 260 478 278 478 l 228 478 q 193 493 208 478 q 178 528 178 508 l 178 581 q 193 617 178 603 q 228 632 208 632 l 260 632 q 292 642 278 632 q 307 667 307 651 l 307 890 q 292 915 307 907 q 260 924 278 924 q 228 915 242 924 q 215 890 215 907 l 215 847 q 200 812 215 826 q 164 797 185 797 l 83 797 q 49 812 64 797 q 33 847 33 826 l 33 897 q 50 977 33 939 q 97 1046 67 1015 q 169 1094 128 1076 q 260 1111 211 1111 q 350 1094 308 1111 q 422 1046 392 1076 q 469 977 451 1015 q 486 897 486 939 l 486 674 q 481 639 486 658 q 468 603 476 619 q 447 574 460 586 q 414 556 433 561 q 447 535 433 547 q 468 506 460 522 q 481 470 476 489 q 486 435 486 451 l 486 201 z "},"4":{"ha":553,"x_min":26,"x_max":526,"o":"m 294 564 l 283 564 l 208 357 l 294 357 l 294 564 m 526 228 q 512 193 526 208 q 475 178 497 178 l 467 178 l 467 50 q 451 15 467 31 q 417 0 436 0 l 344 0 q 309 15 324 0 q 294 50 294 31 l 294 178 l 76 178 q 42 193 57 178 q 26 228 26 208 l 26 335 l 303 1065 q 351 1099 317 1099 l 417 1099 q 451 1083 436 1099 q 467 1047 467 1068 l 467 357 l 475 357 q 512 342 497 357 q 526 306 526 326 l 526 228 z "},"5":{"ha":540,"x_min":43,"x_max":497,"o":"m 94 539 q 61 554 75 540 q 47 586 47 568 l 47 592 q 58 806 56 708 q 63 887 60 847 q 67 960 65 926 q 70 1017 68 993 q 72 1050 72 1042 q 89 1084 75 1069 q 124 1099 103 1099 l 450 1099 q 485 1084 476 1099 q 494 1047 494 1069 q 488 1003 494 1026 q 472 961 482 981 q 451 930 461 942 q 432 918 440 918 l 242 918 l 226 690 l 236 690 q 289 716 261 707 q 347 725 317 725 q 405 713 376 725 q 453 679 433 700 q 485 631 474 658 q 497 575 497 603 l 497 201 q 479 122 497 160 q 431 53 461 83 q 360 3 401 22 q 272 -15 318 -15 q 181 3 222 -15 q 108 53 139 22 q 60 122 76 83 q 43 201 43 160 l 43 250 q 58 287 43 272 q 94 301 74 301 l 175 301 q 210 287 194 301 q 226 250 226 272 l 226 207 q 239 183 226 192 q 272 175 251 175 q 303 183 289 175 q 317 207 317 192 l 317 533 q 303 556 317 547 q 272 565 289 565 q 244 559 256 565 q 228 544 233 553 q 211 533 219 533 l 94 539 z "},"6":{"ha":540,"x_min":43,"x_max":497,"o":"m 317 507 q 303 526 317 517 q 272 536 289 536 q 239 526 251 536 q 226 507 226 517 l 226 207 q 239 183 226 192 q 272 175 251 175 q 303 183 289 175 q 317 207 317 192 l 317 507 m 497 201 q 481 122 497 160 q 433 53 464 83 q 360 3 403 22 q 272 -15 318 -15 q 181 3 222 -15 q 108 53 139 22 q 60 122 76 83 q 43 201 43 160 l 43 897 q 60 977 43 939 q 108 1046 76 1015 q 181 1094 139 1076 q 272 1111 222 1111 q 360 1094 318 1111 q 433 1046 403 1076 q 481 977 464 1015 q 497 897 497 939 l 497 847 q 482 812 497 826 q 447 797 467 797 l 367 797 q 332 812 347 797 q 317 847 317 826 l 317 890 q 303 915 317 907 q 272 924 289 924 q 239 915 251 924 q 226 890 226 907 l 226 664 l 235 664 q 287 688 257 678 q 347 699 317 699 q 406 685 378 699 q 455 650 435 672 q 486 601 475 628 q 497 547 497 575 l 497 201 z "},"7":{"ha":494,"x_min":47,"x_max":464,"o":"m 414 1099 q 449 1083 435 1099 q 464 1049 464 1068 q 461 1036 464 1039 l 247 40 q 228 11 242 22 q 194 0 215 0 l 111 0 q 74 15 89 0 q 60 50 60 31 q 60 61 60 58 l 253 903 l 97 903 q 62 918 76 903 q 47 953 47 933 l 47 1047 q 62 1083 47 1068 q 97 1099 76 1099 l 414 1099 z "},"8":{"ha":540,"x_min":43,"x_max":497,"o":"m 497 201 q 481 122 497 160 q 433 53 464 83 q 360 3 403 22 q 272 -15 318 -15 q 181 3 222 -15 q 108 53 139 22 q 60 122 76 83 q 43 201 43 160 l 43 419 q 49 457 43 436 q 68 497 56 478 q 98 532 81 517 q 135 556 115 547 q 98 576 115 561 q 68 612 81 592 q 49 652 56 632 q 43 689 43 672 l 43 897 q 60 977 43 939 q 108 1046 76 1015 q 181 1094 139 1076 q 272 1111 222 1111 q 360 1094 318 1111 q 433 1046 403 1076 q 481 977 464 1015 q 497 897 497 939 l 497 689 q 490 652 497 672 q 472 612 483 632 q 443 576 460 592 q 407 556 426 561 q 443 532 426 547 q 472 497 460 517 q 490 456 483 476 q 497 419 497 436 l 497 201 m 317 890 q 303 915 317 907 q 272 924 289 924 q 239 915 251 924 q 226 890 226 907 l 226 668 q 239 646 226 656 q 272 636 251 636 q 303 646 289 636 q 317 668 317 656 l 317 890 m 317 443 q 303 467 317 457 q 272 476 289 476 q 239 467 251 476 q 226 443 226 457 l 226 207 q 239 183 226 192 q 272 175 251 175 q 303 183 289 175 q 317 207 317 192 l 317 443 z "},"9":{"ha":540,"x_min":43,"x_max":497,"o":"m 317 890 q 303 915 317 907 q 272 924 289 924 q 239 915 251 924 q 226 890 226 907 l 226 592 q 239 570 226 581 q 272 560 251 560 q 303 570 289 560 q 317 592 317 581 l 317 890 m 497 201 q 481 122 497 160 q 433 53 464 83 q 360 3 403 22 q 272 -15 318 -15 q 181 3 222 -15 q 108 53 139 22 q 60 122 76 83 q 43 201 43 160 l 43 250 q 58 287 43 272 q 94 301 74 301 l 175 301 q 210 287 194 301 q 226 250 226 272 l 226 207 q 239 183 226 192 q 272 175 251 175 q 303 183 289 175 q 317 207 317 192 l 317 435 l 307 435 q 256 409 286 418 q 194 400 225 400 q 135 413 164 400 q 86 447 107 426 q 54 496 65 468 q 43 551 43 524 l 43 897 q 60 977 43 939 q 108 1046 76 1015 q 181 1094 139 1076 q 272 1111 222 1111 q 360 1094 318 1111 q 433 1046 403 1076 q 481 977 464 1015 q 497 897 497 939 l 497 201 z "}," ":{"ha":189,"x_min":0,"x_max":0,"o":""},"#":{"ha":839,"x_min":117,"x_max":694,"o":"m 447 615 l 382 615 l 365 476 l 431 476 l 447 615 m 206 476 l 222 615 l 197 615 q 162 629 176 615 q 147 665 147 643 l 147 718 q 162 755 147 740 q 197 769 176 769 l 236 769 l 258 943 q 274 976 260 964 q 308 989 289 989 l 315 989 l 369 981 q 403 964 390 978 q 415 931 415 950 l 397 769 l 464 769 l 483 943 q 499 976 485 964 q 533 989 514 989 l 540 989 l 594 981 q 627 964 615 978 q 639 931 639 950 l 622 769 l 643 769 q 680 755 665 769 q 694 718 694 740 l 694 665 q 680 629 694 643 q 643 615 665 615 l 607 615 l 590 476 l 614 476 q 650 463 635 476 q 665 426 665 449 l 665 372 q 650 337 665 351 q 614 322 635 322 l 574 322 l 553 147 q 537 115 551 128 q 501 103 522 103 l 497 103 l 442 110 q 410 126 422 111 q 397 160 397 140 l 415 322 l 349 322 l 328 147 q 312 115 326 128 q 276 103 297 103 l 272 103 l 217 110 q 185 126 197 111 q 174 160 174 140 l 190 322 l 168 322 q 132 337 147 322 q 117 372 117 351 l 117 426 q 132 463 117 449 q 168 476 147 476 l 206 476 z "},"$":{"ha":556,"x_min":24,"x_max":517,"o":"m 517 256 q 506 167 517 208 q 472 90 494 125 q 415 31 449 56 q 340 -6 382 6 l 336 -6 l 336 -65 q 322 -100 336 -85 q 285 -115 307 -115 l 258 -115 q 222 -100 236 -115 q 208 -65 208 -85 l 208 -6 l 203 -6 q 129 25 164 6 q 72 72 94 44 q 36 133 49 100 q 24 201 24 167 l 24 297 q 38 333 24 318 q 74 349 53 349 l 151 349 q 188 333 174 349 q 203 297 203 318 l 203 247 q 219 195 203 215 q 267 175 236 175 q 331 247 331 175 q 291 372 331 311 q 185 506 251 433 q 76 663 117 578 q 35 843 35 749 q 83 1013 35 942 q 219 1106 131 1085 l 225 1106 l 225 1161 q 240 1199 225 1183 q 275 1214 256 1214 l 300 1214 q 338 1199 324 1214 q 351 1161 351 1183 l 351 1100 l 357 1100 q 420 1069 392 1090 q 469 1021 449 1049 q 500 962 489 993 q 511 897 511 931 l 511 799 q 497 763 511 778 q 460 749 483 749 l 386 749 q 350 763 365 749 q 335 799 335 778 l 335 861 q 320 907 335 889 q 282 925 306 925 q 242 907 260 925 q 224 861 224 889 q 228 808 224 832 q 247 760 233 785 q 285 702 260 735 q 347 622 310 669 l 360 607 q 417 531 389 568 q 467 450 444 493 q 503 358 489 407 q 517 256 517 308 z "},"%":{"ha":1186,"x_min":43,"x_max":1143,"o":"m 1143 186 q 1126 104 1143 142 q 1080 41 1110 67 q 1010 0 1050 15 q 926 -15 969 -15 q 842 0 882 -15 q 772 41 801 15 q 725 104 742 67 q 708 186 708 142 l 708 410 q 725 494 708 457 q 772 557 742 531 q 842 597 801 583 q 926 611 882 611 q 1010 597 969 611 q 1080 557 1050 583 q 1126 494 1110 531 q 1143 410 1143 457 l 1143 186 m 482 689 q 465 604 482 642 q 417 541 447 567 q 347 501 386 515 q 261 486 307 486 q 176 501 217 486 q 106 541 136 515 q 60 604 76 567 q 43 689 43 642 l 43 910 q 60 994 43 957 q 106 1057 76 1031 q 176 1097 136 1083 q 261 1111 217 1111 q 347 1097 307 1111 q 417 1057 386 1083 q 465 994 447 1031 q 482 910 482 957 l 482 689 m 969 414 q 957 443 969 433 q 926 453 944 453 q 894 443 907 453 q 882 414 882 433 l 882 185 q 894 155 882 165 q 926 144 907 144 q 957 155 944 144 q 969 185 969 165 l 969 414 m 307 914 q 294 944 307 935 q 261 953 282 953 q 230 944 243 953 q 217 914 217 935 l 217 685 q 230 655 217 665 q 261 644 243 644 q 294 655 282 644 q 307 685 307 665 l 307 914 m 856 1099 q 891 1083 876 1099 q 906 1049 906 1067 q 900 1026 906 1035 l 436 31 q 390 0 422 0 l 335 0 q 297 16 311 0 q 283 50 283 32 q 286 72 283 64 l 750 1068 q 797 1099 764 1099 l 856 1099 z "},"&":{"ha":839,"x_min":64,"x_max":743,"o":"m 317 460 q 278 363 297 408 q 260 278 260 317 q 283 183 260 215 q 336 151 307 151 q 383 175 360 151 q 425 239 406 199 l 317 460 m 692 -14 l 589 -14 q 544 14 558 -14 l 507 76 q 412 8 460 31 q 315 -15 364 -15 q 210 0 256 -15 q 131 49 164 15 q 81 135 97 82 q 64 267 64 189 q 102 446 64 360 q 222 618 140 532 q 172 725 192 682 q 139 800 151 768 q 122 853 126 832 q 117 893 117 875 q 136 988 117 944 q 191 1060 156 1031 q 277 1107 226 1090 q 389 1124 328 1124 q 485 1115 444 1124 q 555 1086 525 1106 q 608 1035 585 1067 q 656 958 632 1003 q 664 928 664 942 q 654 898 664 911 q 628 881 644 885 l 518 849 q 507 849 510 849 q 472 863 486 849 q 444 897 457 878 q 417 932 431 917 q 386 947 403 947 q 344 933 361 947 q 326 892 326 918 q 342 833 326 867 q 375 761 358 799 q 428 658 407 700 q 465 586 450 615 q 489 538 481 557 q 501 507 497 518 l 526 601 q 544 628 531 618 q 575 639 557 639 q 586 639 582 639 l 674 622 q 701 602 693 618 q 708 561 708 586 q 697 481 708 526 q 670 394 685 436 q 642 319 656 351 q 624 276 628 286 l 739 61 q 743 40 743 50 q 728 3 743 19 q 692 -14 714 -14 z "},"'":{"ha":276,"x_min":49,"x_max":215,"o":"m 214 1033 l 140 765 q 110 742 135 742 l 81 742 q 58 751 67 742 q 49 774 49 760 q 49 778 49 774 q 51 808 49 782 q 56 891 53 835 q 65 1050 60 947 q 80 1084 65 1069 q 115 1099 94 1099 l 164 1099 q 200 1083 185 1099 q 215 1049 215 1068 q 214 1033 215 1043 z "},"(":{"ha":415,"x_min":42,"x_max":347,"o":"m 294 1099 q 231 1035 231 1099 l 231 -35 q 293 -97 231 -97 q 332 -112 317 -97 q 347 -149 347 -126 l 347 -236 q 332 -272 347 -257 q 294 -286 317 -286 q 115 -214 186 -286 q 42 -35 42 -139 l 42 1035 q 115 1211 42 1140 q 293 1286 189 1286 q 332 1272 317 1286 q 347 1235 347 1257 l 347 1149 q 332 1113 347 1128 q 294 1099 317 1099 z "},")":{"ha":415,"x_min":19,"x_max":325,"o":"m 72 1099 q 136 1035 136 1099 l 136 -35 q 74 -97 136 -97 q 35 -112 50 -97 q 19 -149 19 -126 l 19 -236 q 35 -272 19 -257 q 72 -286 50 -286 q 251 -214 181 -286 q 325 -35 325 -139 l 325 1035 q 251 1211 325 1140 q 74 1286 178 1286 q 35 1272 50 1286 q 19 1235 19 1257 l 19 1149 q 35 1113 19 1128 q 72 1099 50 1099 z "},"*":{"ha":606,"x_min":36,"x_max":556,"o":"m 549 669 l 525 626 q 506 606 517 614 q 481 599 494 599 q 443 615 458 599 l 347 715 l 333 715 l 365 549 q 366 544 365 547 q 367 540 367 542 q 351 503 367 518 q 315 489 335 489 l 276 489 q 242 503 257 489 q 226 540 226 518 q 226 544 226 542 q 226 549 226 547 l 260 715 l 247 715 l 147 615 q 111 599 133 599 q 85 606 97 599 q 65 626 74 614 l 43 669 q 36 693 36 678 q 46 722 36 708 q 69 742 56 736 l 214 793 l 69 843 q 46 863 56 849 q 36 893 36 878 q 43 918 36 903 l 65 960 q 86 980 74 974 q 111 986 99 986 q 147 974 132 986 l 247 874 l 260 874 l 226 1039 q 226 1041 226 1039 q 226 1047 226 1043 q 242 1083 226 1067 q 276 1099 257 1099 l 315 1099 q 350 1083 335 1099 q 365 1049 365 1067 q 364 1039 365 1040 l 333 874 l 347 874 l 443 974 q 476 989 457 989 q 504 981 492 989 q 525 960 517 974 l 549 918 q 556 893 556 907 q 546 863 556 878 q 522 843 536 849 l 381 793 l 522 742 q 546 723 536 736 q 556 694 556 710 q 549 669 556 681 z "},"+":{"ha":564,"x_min":49,"x_max":514,"o":"m 514 461 q 499 426 514 442 q 461 411 483 411 l 365 411 l 365 286 q 350 251 365 267 q 314 236 335 236 l 249 236 q 212 251 226 236 q 197 286 197 267 l 197 411 l 100 411 q 63 426 78 411 q 49 461 49 442 l 49 556 q 63 592 49 576 q 100 607 78 607 l 197 607 l 197 731 q 212 767 197 751 q 249 782 226 782 l 314 782 q 350 767 335 782 q 365 731 365 751 l 365 607 l 461 607 q 499 592 483 607 q 514 556 514 576 l 514 461 z "},",":{"ha":276,"x_min":35,"x_max":200,"o":"m 197 153 l 125 -115 q 94 -139 119 -139 l 65 -139 q 44 -129 53 -139 q 35 -107 35 -119 l 50 168 q 67 203 51 190 q 100 217 82 217 l 149 217 q 185 201 169 217 q 200 167 200 186 q 197 153 200 164 z "},"-":{"ha":307,"x_min":49,"x_max":258,"o":"m 258 461 q 243 426 258 442 q 207 411 228 411 l 100 411 q 63 426 78 411 q 49 461 49 442 l 49 556 q 63 592 49 576 q 100 607 78 607 l 207 607 q 243 592 228 607 q 258 556 258 576 l 258 461 z "},".":{"ha":276,"x_min":51,"x_max":225,"o":"m 225 50 q 210 15 225 31 q 174 0 194 0 l 101 0 q 67 15 82 0 q 51 50 51 31 l 51 165 q 67 201 51 186 q 101 217 82 217 l 174 217 q 210 201 194 217 q 225 165 225 186 l 225 50 z "},"/":{"ha":533,"x_min":64,"x_max":511,"o":"m 460 1099 q 497 1083 483 1099 q 511 1047 511 1067 q 510 1033 511 1039 l 249 36 q 231 10 244 19 q 200 0 218 0 l 114 0 q 78 16 92 0 q 64 51 64 32 q 65 65 64 60 l 326 1060 q 344 1088 332 1078 q 376 1099 357 1099 l 460 1099 z "},":":{"ha":276,"x_min":51,"x_max":225,"o":"m 225 531 q 210 495 225 510 q 174 481 194 481 l 101 481 q 67 495 82 481 q 51 531 51 510 l 51 647 q 67 683 51 668 q 101 699 82 699 l 174 699 q 210 683 194 699 q 225 647 225 668 l 225 531 m 225 50 q 210 15 225 31 q 174 0 194 0 l 101 0 q 67 15 82 0 q 51 50 51 31 l 51 165 q 67 201 51 186 q 101 217 82 217 l 174 217 q 210 201 194 217 q 225 165 225 186 l 225 50 z "},";":{"ha":276,"x_min":35,"x_max":225,"o":"m 197 153 l 125 -115 q 94 -139 119 -139 l 65 -139 q 44 -129 53 -139 q 35 -107 35 -119 l 50 168 q 67 203 51 190 q 100 217 82 217 l 149 217 q 185 201 169 217 q 200 167 200 186 q 197 153 200 164 m 225 532 q 210 497 225 511 q 175 482 194 482 l 103 482 q 67 497 82 482 q 51 532 51 511 l 51 647 q 67 683 51 668 q 103 699 82 699 l 175 699 q 210 683 194 699 q 225 647 225 668 l 225 532 z "},"<":{"ha":507,"x_min":39,"x_max":443,"o":"m 436 206 q 443 181 443 192 q 426 140 443 157 l 361 85 q 328 74 347 74 q 304 79 317 74 q 285 97 292 85 l 47 489 q 39 515 39 500 q 47 542 39 528 l 285 935 q 328 958 300 958 q 361 947 347 958 l 426 892 q 443 856 443 876 q 436 826 443 839 l 267 540 q 258 515 258 528 q 267 489 258 500 q 350 347 307 419 q 436 206 393 275 z "},"=":{"ha":486,"x_min":49,"x_max":436,"o":"m 436 617 q 422 582 436 597 q 386 567 407 567 l 100 567 q 63 582 78 567 q 49 617 49 597 l 49 708 q 63 745 49 731 q 100 760 78 760 l 386 760 q 422 745 407 760 q 436 708 436 731 l 436 617 m 436 310 q 422 274 436 289 q 386 260 407 260 l 100 260 q 63 274 78 260 q 49 310 49 289 l 49 403 q 63 440 49 425 q 100 456 78 456 l 386 456 q 422 440 407 456 q 436 403 436 425 l 436 310 z "},">":{"ha":507,"x_min":65,"x_max":469,"o":"m 72 206 q 65 181 65 192 q 82 140 65 157 l 147 85 q 181 74 161 74 q 204 79 192 74 q 224 97 217 85 l 461 489 q 469 515 469 500 q 461 542 469 528 l 224 935 q 181 958 208 958 q 147 947 161 958 l 82 892 q 65 856 65 876 q 72 826 65 839 l 242 540 q 250 515 250 528 q 242 489 250 500 q 158 347 201 419 q 72 206 115 275 z "},"?":{"ha":547,"x_min":83,"x_max":522,"o":"m 364 114 q 349 78 364 93 q 311 64 333 64 l 242 64 q 205 78 219 64 q 190 114 190 93 l 190 228 q 205 265 190 250 q 242 281 219 281 l 311 281 q 349 265 333 281 q 364 228 364 250 l 364 114 m 522 917 q 499 770 522 843 q 432 631 476 697 q 398 572 410 597 q 379 523 386 547 q 369 474 372 499 q 365 419 367 449 q 350 379 364 397 q 311 361 336 361 l 240 361 q 203 379 217 361 q 190 419 190 397 q 195 517 190 476 q 212 592 200 557 q 240 658 224 626 q 278 725 257 689 q 327 823 310 774 q 344 915 344 872 q 311 992 344 992 q 275 972 286 992 q 256 931 264 953 q 237 888 247 908 q 203 868 226 868 q 189 869 194 868 l 124 881 q 93 899 103 883 q 83 935 83 915 q 83 949 83 943 q 163 1131 108 1076 q 314 1186 217 1186 q 465 1118 407 1186 q 522 917 522 1050 z "},"@":{"ha":1026,"x_min":64,"x_max":940,"o":"m 547 526 q 490 539 524 539 q 453 533 467 539 q 433 517 440 526 q 426 492 426 507 q 426 457 426 476 q 447 395 426 415 q 493 375 467 375 q 521 378 508 375 q 547 390 533 382 l 547 526 m 940 574 q 896 329 940 407 q 756 251 851 251 q 665 267 706 251 q 593 311 625 283 l 585 311 q 513 265 550 282 q 444 247 476 247 q 297 456 297 247 q 440 665 297 665 q 536 639 494 665 l 547 639 l 547 700 q 533 750 547 739 q 478 761 518 761 q 424 755 449 761 q 376 736 400 749 q 370 733 374 735 q 361 732 367 732 q 339 738 350 732 q 319 754 328 744 q 306 776 311 764 q 301 799 301 789 q 326 838 301 819 q 385 867 351 856 q 453 883 418 878 q 508 889 489 889 q 689 724 689 889 l 689 435 q 749 349 689 349 q 790 362 775 349 q 814 403 806 375 q 824 473 822 431 q 826 574 826 515 q 742 907 826 794 q 501 1019 658 1019 q 176 558 176 1019 q 508 94 176 94 q 644 119 590 94 q 668 125 658 125 q 702 109 689 125 q 715 74 715 93 q 692 38 715 53 q 638 15 669 24 q 568 1 606 6 q 501 -3 531 -3 q 318 35 400 -3 q 180 144 236 72 q 94 321 124 217 q 64 557 64 425 q 94 794 64 689 q 182 970 125 899 q 320 1080 239 1042 q 501 1118 401 1118 q 685 1081 603 1118 q 824 973 767 1043 q 910 801 881 903 q 940 574 940 700 z "},"A":{"ha":536,"x_min":18,"x_max":503,"o":"m 265 728 l 253 728 l 215 367 l 289 367 l 265 728 m 503 51 q 489 15 503 31 q 453 0 475 0 l 360 0 q 326 13 340 0 q 308 47 311 26 l 300 172 l 197 172 l 185 44 q 167 13 182 25 q 135 0 153 0 l 68 0 q 33 15 49 0 q 18 51 18 31 l 18 57 l 140 1053 q 157 1085 142 1072 q 192 1099 172 1099 l 328 1099 q 363 1085 349 1099 q 381 1053 376 1072 l 503 51 z "},"B":{"ha":536,"x_min":51,"x_max":493,"o":"m 317 858 q 306 893 317 883 q 276 903 294 903 l 242 903 l 242 653 l 276 653 q 317 694 317 653 l 317 858 m 317 415 q 306 447 317 436 q 276 458 294 458 l 242 458 l 242 193 l 276 193 q 306 204 294 193 q 317 236 317 215 l 317 415 m 493 200 q 475 110 493 147 q 428 48 457 72 q 363 12 399 24 q 292 0 326 0 l 101 0 q 67 15 82 0 q 51 50 51 31 l 51 1047 q 67 1083 51 1068 q 101 1099 82 1099 l 292 1099 q 363 1087 326 1099 q 428 1051 399 1075 q 475 988 457 1026 q 493 899 493 950 l 493 678 q 417 557 493 601 q 493 436 493 517 l 493 200 z "},"C":{"ha":557,"x_min":43,"x_max":514,"o":"m 514 201 q 495 122 514 160 q 446 53 476 83 q 372 3 415 22 q 281 -15 328 -15 q 188 3 232 -15 q 113 53 144 22 q 63 122 82 83 q 43 201 43 160 l 43 897 q 63 977 43 939 q 113 1046 82 1015 q 188 1094 144 1076 q 281 1111 232 1111 q 372 1094 328 1111 q 446 1046 415 1076 q 495 977 476 1015 q 514 897 514 939 l 514 758 q 499 722 514 736 q 461 707 483 707 l 375 707 q 340 722 356 707 q 325 758 325 736 l 325 890 q 313 915 325 907 q 281 924 300 924 q 249 915 261 924 q 236 890 236 907 l 236 207 q 249 183 236 192 q 281 175 261 175 q 313 183 300 175 q 325 207 325 192 l 325 340 q 340 376 325 361 q 375 392 356 392 l 461 392 q 499 376 483 392 q 514 340 514 361 l 514 201 z "},"D":{"ha":567,"x_min":51,"x_max":524,"o":"m 332 858 q 322 893 332 883 q 292 903 311 903 l 242 903 l 242 193 l 292 193 q 322 204 311 193 q 332 236 332 215 l 332 858 m 524 200 q 503 110 524 147 q 451 48 483 72 q 381 12 419 24 q 307 0 343 0 l 101 0 q 67 15 82 0 q 51 50 51 31 l 51 1047 q 67 1083 51 1068 q 101 1099 82 1099 l 307 1099 q 381 1087 343 1099 q 451 1051 419 1075 q 503 988 483 1026 q 524 899 524 950 l 524 200 z "},"E":{"ha":469,"x_min":51,"x_max":436,"o":"m 436 50 q 422 15 436 31 q 385 0 407 0 l 101 0 q 67 15 82 0 q 51 50 51 31 l 51 1047 q 67 1083 51 1068 q 101 1099 82 1099 l 385 1099 q 422 1083 407 1099 q 436 1047 436 1068 l 436 968 q 422 933 436 947 q 385 918 407 918 l 242 918 l 242 667 l 317 667 q 354 653 340 667 q 368 615 368 639 l 368 524 q 354 487 368 501 q 317 472 340 472 l 242 472 l 242 194 l 385 194 q 422 180 407 194 q 436 143 436 165 l 436 50 z "},"F":{"ha":460,"x_min":51,"x_max":436,"o":"m 436 968 q 422 933 436 947 q 385 918 407 918 l 242 918 l 242 647 l 335 647 q 372 632 357 647 q 386 594 386 617 l 386 508 q 372 474 386 489 q 335 458 357 458 l 242 458 l 242 50 q 226 15 242 31 q 190 0 211 0 l 101 0 q 67 15 82 0 q 51 50 51 31 l 51 1047 q 67 1083 51 1068 q 101 1099 82 1099 l 385 1099 q 422 1083 407 1099 q 436 1047 436 1068 l 436 968 z "},"G":{"ha":564,"x_min":43,"x_max":514,"o":"m 514 50 q 499 15 514 31 q 461 0 483 0 l 425 0 q 397 17 406 0 l 386 39 l 375 39 q 323 2 357 19 q 251 -15 289 -15 q 167 1 206 -15 q 101 47 128 18 q 58 116 74 76 q 43 201 43 156 l 43 897 q 60 977 43 939 q 110 1046 78 1015 q 184 1094 142 1076 q 275 1111 226 1111 q 366 1094 324 1111 q 440 1046 408 1076 q 490 977 472 1015 q 507 897 507 939 l 507 750 q 492 714 507 728 q 457 700 476 700 l 369 700 q 335 714 350 700 q 319 750 319 728 l 319 890 q 307 915 319 907 q 275 924 294 924 q 243 915 256 924 q 231 890 231 907 l 231 192 q 243 168 231 178 q 275 158 256 158 q 307 168 294 158 q 319 192 319 178 l 319 376 l 311 376 q 290 387 299 376 q 281 408 281 397 l 281 485 q 295 522 281 507 q 331 536 310 536 l 461 536 q 499 522 483 536 q 514 485 514 507 l 514 50 z "},"H":{"ha":586,"x_min":51,"x_max":535,"o":"m 535 50 q 520 15 535 31 q 483 0 506 0 l 393 0 q 358 15 374 0 q 343 50 343 31 l 343 443 l 242 443 l 242 50 q 226 15 242 31 q 190 0 211 0 l 101 0 q 67 15 82 0 q 51 50 51 31 l 51 1047 q 67 1083 51 1068 q 101 1099 82 1099 l 190 1099 q 226 1083 211 1099 q 242 1047 242 1068 l 242 639 l 343 639 l 343 1047 q 358 1083 343 1068 q 393 1099 374 1099 l 483 1099 q 520 1083 506 1099 q 535 1047 535 1068 l 535 50 z "},"I":{"ha":310,"x_min":60,"x_max":249,"o":"m 249 50 q 234 15 249 31 q 197 0 219 0 l 110 0 q 74 15 89 0 q 60 50 60 31 l 60 1047 q 74 1083 60 1068 q 110 1099 89 1099 l 197 1099 q 234 1083 219 1099 q 249 1047 249 1068 l 249 50 z "},"J":{"ha":544,"x_min":32,"x_max":501,"o":"m 501 201 q 483 122 501 160 q 432 53 465 83 q 356 3 399 22 q 267 -15 314 -15 q 174 3 217 -15 q 100 53 132 22 q 50 122 68 83 q 32 201 32 160 l 32 372 q 47 408 32 393 q 83 424 61 424 l 168 424 q 206 408 192 424 q 219 372 219 393 l 219 215 q 233 190 219 199 q 267 181 247 181 q 297 190 285 181 q 310 215 310 199 l 310 1047 q 325 1083 310 1068 q 360 1099 340 1099 l 450 1099 q 487 1083 472 1099 q 501 1047 501 1068 l 501 201 z "},"K":{"ha":576,"x_min":51,"x_max":550,"o":"m 549 64 q 550 50 550 58 q 536 15 550 31 q 500 0 522 0 l 417 0 q 383 12 397 0 q 367 42 369 24 l 294 400 l 283 400 l 243 260 l 243 50 q 228 15 243 31 q 192 0 214 0 l 101 0 q 67 15 82 0 q 51 50 51 31 l 51 1047 q 67 1083 51 1068 q 101 1099 82 1099 l 192 1099 q 228 1083 214 1099 q 243 1047 243 1068 l 243 603 l 256 603 q 302 831 276 718 q 353 1058 328 943 q 372 1088 357 1076 q 403 1099 386 1099 l 478 1099 q 514 1083 500 1099 q 528 1047 528 1067 q 528 1033 528 1039 l 417 594 l 549 64 z "},"L":{"ha":465,"x_min":51,"x_max":436,"o":"m 436 50 q 422 15 436 31 q 385 0 407 0 l 101 0 q 67 15 82 0 q 51 50 51 31 l 51 1047 q 67 1083 51 1068 q 101 1099 82 1099 l 192 1099 q 228 1083 214 1099 q 243 1047 243 1068 l 243 194 l 385 194 q 422 180 407 194 q 436 143 436 165 l 436 50 z "},"M":{"ha":843,"x_min":51,"x_max":792,"o":"m 792 50 q 778 15 792 31 q 740 0 764 0 l 653 0 q 617 15 632 0 q 603 50 603 31 l 603 699 l 592 699 l 474 43 q 456 12 469 24 q 425 0 443 0 l 389 0 q 354 13 368 0 q 339 43 340 25 l 232 700 l 219 700 l 219 50 q 206 15 219 31 q 168 0 192 0 l 101 0 q 67 15 82 0 q 51 50 51 31 l 51 1047 q 67 1083 51 1068 q 101 1099 82 1099 l 303 1099 q 338 1086 324 1099 q 353 1056 351 1074 l 419 597 l 432 597 l 506 1056 q 521 1086 507 1074 q 556 1099 535 1099 l 740 1099 q 778 1083 764 1099 q 792 1047 792 1068 l 792 50 z "},"N":{"ha":606,"x_min":51,"x_max":556,"o":"m 556 50 q 540 15 556 31 q 503 0 525 0 l 426 0 q 396 10 408 0 q 376 36 383 19 l 219 557 l 208 557 l 208 50 q 193 15 208 31 q 157 0 178 0 l 101 0 q 67 15 82 0 q 51 50 51 31 l 51 1047 q 67 1083 51 1068 q 101 1099 82 1099 l 185 1099 q 215 1088 203 1099 q 233 1060 228 1078 l 386 528 l 397 528 l 397 1047 q 412 1083 397 1068 q 447 1099 426 1099 l 503 1099 q 540 1083 525 1099 q 556 1047 556 1068 l 556 50 z "},"O":{"ha":553,"x_min":43,"x_max":510,"o":"m 510 215 q 492 133 510 175 q 442 58 474 92 q 368 5 410 25 q 276 -15 326 -15 q 185 5 226 -15 q 112 58 143 25 q 62 133 81 92 q 43 215 43 175 l 43 883 q 62 965 43 924 q 112 1040 81 1007 q 185 1092 143 1072 q 276 1111 226 1111 q 368 1092 326 1111 q 442 1040 410 1072 q 492 965 474 1007 q 510 883 510 924 l 510 215 m 322 890 q 310 915 322 907 q 276 924 297 924 q 244 915 257 924 q 232 890 232 907 l 232 207 q 244 183 232 192 q 276 175 257 175 q 310 183 297 175 q 322 207 322 192 l 322 890 z "},"P":{"ha":533,"x_min":51,"x_max":500,"o":"m 317 858 q 306 893 317 883 q 276 903 294 903 l 243 903 l 243 610 l 276 610 q 317 656 317 610 l 317 858 m 500 617 q 481 526 500 564 q 431 464 461 489 q 365 428 401 439 q 293 417 328 417 l 243 417 l 243 50 q 228 15 243 31 q 192 0 214 0 l 101 0 q 67 15 82 0 q 51 50 51 31 l 51 1047 q 67 1083 51 1068 q 101 1099 82 1099 l 293 1099 q 365 1087 328 1099 q 431 1051 401 1075 q 481 988 461 1026 q 500 899 500 950 l 500 617 z "},"Q":{"ha":553,"x_min":43,"x_max":581,"o":"m 322 206 l 322 890 q 310 915 322 907 q 276 924 297 924 q 244 915 257 924 q 232 890 232 907 l 232 206 q 244 183 232 192 q 276 175 257 175 q 310 183 297 175 q 322 206 322 192 m 497 144 l 561 81 q 581 36 581 64 q 575 13 581 25 q 561 -8 569 0 l 535 -36 q 489 -56 517 -56 q 444 -36 464 -56 l 390 18 q 336 -6 365 3 q 276 -15 307 -15 q 185 5 226 -15 q 112 58 143 25 q 62 133 81 92 q 43 215 43 175 l 43 883 q 62 965 43 924 q 112 1040 81 1007 q 185 1092 143 1072 q 276 1111 226 1111 q 368 1092 326 1111 q 442 1040 410 1072 q 492 965 474 1007 q 510 883 510 924 l 510 215 q 497 144 510 181 z "},"R":{"ha":549,"x_min":51,"x_max":524,"o":"m 317 858 q 306 893 317 883 q 276 903 294 903 l 242 903 l 242 625 l 276 625 q 317 668 317 625 l 317 858 m 517 56 q 506 17 524 33 q 467 0 489 0 l 383 0 q 353 8 367 0 q 336 33 340 17 q 319 169 319 100 l 319 400 q 308 431 319 418 q 274 443 297 443 l 242 443 l 242 50 q 226 15 242 31 q 190 0 211 0 l 101 0 q 67 15 82 0 q 51 50 51 31 l 51 1047 q 67 1083 51 1068 q 101 1099 82 1099 l 292 1099 q 364 1087 326 1099 q 431 1051 401 1075 q 480 988 460 1026 q 500 899 500 950 l 500 651 q 478 581 500 611 q 418 531 457 551 l 419 531 q 481 480 457 510 q 506 410 506 450 l 506 185 q 508 117 506 149 q 517 56 511 85 z "},"S":{"ha":556,"x_min":24,"x_max":517,"o":"m 517 256 q 501 153 517 201 q 454 69 485 106 q 378 8 424 32 q 276 -15 333 -15 q 173 3 219 -15 q 93 53 126 22 q 42 122 60 83 q 24 201 24 160 l 24 275 q 38 312 24 297 q 74 326 53 326 l 149 326 q 185 312 169 326 q 200 275 200 297 l 200 247 q 218 195 200 215 q 267 175 236 175 q 328 247 328 175 q 319 310 328 278 q 291 374 310 342 q 245 437 272 406 q 185 507 218 468 q 76 663 117 578 q 35 843 35 749 q 51 949 35 900 q 99 1034 67 999 q 176 1090 131 1069 q 282 1111 222 1111 q 373 1094 331 1111 q 446 1046 415 1076 q 494 977 476 1015 q 511 897 511 939 l 511 822 q 497 787 511 801 q 460 772 483 772 l 385 772 q 349 787 364 772 q 335 822 335 801 l 335 860 q 320 906 335 889 q 282 924 306 924 q 241 906 258 924 q 224 860 224 889 q 229 807 224 831 q 248 758 235 783 q 285 700 261 732 q 347 622 310 668 q 353 612 350 617 q 360 603 357 607 q 418 529 389 567 q 469 449 447 492 q 503 358 490 407 q 517 256 517 310 z "},"T":{"ha":500,"x_min":19,"x_max":478,"o":"m 478 960 q 463 925 478 940 q 426 910 449 910 l 347 910 l 347 50 q 332 15 347 31 q 297 0 317 0 l 208 0 q 172 15 186 0 q 157 50 157 31 l 157 910 l 72 910 q 35 925 50 910 q 19 960 19 940 l 19 1047 q 35 1083 19 1068 q 72 1099 50 1099 l 426 1099 q 463 1083 449 1099 q 478 1047 478 1068 l 478 960 z "},"U":{"ha":540,"x_min":47,"x_max":493,"o":"m 493 201 q 476 122 493 160 q 431 53 460 83 q 363 3 403 22 q 275 -15 324 -15 q 184 3 226 -15 q 112 53 142 22 q 65 122 82 83 q 47 201 47 160 l 47 1047 q 62 1083 47 1068 q 97 1099 76 1099 l 178 1099 q 215 1083 200 1099 q 231 1047 231 1068 l 231 207 q 243 183 231 192 q 275 175 256 175 q 306 183 293 175 q 318 207 318 192 l 318 1047 q 333 1083 318 1068 q 368 1099 349 1099 l 442 1099 q 478 1083 464 1099 q 493 1047 493 1068 l 493 201 z "},"V":{"ha":544,"x_min":32,"x_max":518,"o":"m 468 1099 q 504 1083 490 1099 q 518 1049 518 1068 l 518 1039 l 368 43 q 353 13 367 25 q 318 0 339 0 l 232 0 q 199 13 214 0 q 182 43 185 25 l 32 1039 l 32 1049 q 46 1083 32 1068 q 83 1099 60 1099 l 165 1099 q 200 1085 185 1099 q 217 1051 215 1072 l 275 449 l 286 449 l 351 1051 q 368 1085 353 1072 q 403 1099 383 1099 l 468 1099 z "},"W":{"ha":808,"x_min":32,"x_max":769,"o":"m 719 1099 q 756 1083 742 1099 q 769 1049 769 1068 l 769 1039 l 631 43 q 613 13 628 25 q 581 0 599 0 l 517 0 q 484 13 499 0 q 467 44 469 25 l 410 492 l 399 492 l 342 44 q 326 13 340 25 q 292 0 311 0 l 224 0 q 189 13 203 0 q 174 43 175 25 l 32 1039 l 32 1044 q 46 1083 32 1067 q 82 1099 60 1099 l 165 1099 q 200 1085 185 1099 q 217 1051 215 1072 l 272 535 l 283 535 l 340 1051 q 356 1085 342 1072 q 390 1099 369 1099 l 419 1099 q 454 1085 440 1099 q 472 1051 468 1072 l 526 535 l 536 535 q 569 794 553 665 q 603 1053 586 924 q 620 1085 606 1072 q 656 1099 635 1099 l 719 1099 z "},"X":{"ha":557,"x_min":35,"x_max":507,"o":"m 457 1099 q 492 1083 478 1099 q 507 1047 507 1067 q 507 1032 507 1042 l 375 576 l 501 64 q 503 50 503 58 q 489 15 503 31 q 453 0 475 0 l 376 0 q 344 11 357 0 q 326 40 331 22 l 274 289 l 261 289 l 201 39 q 183 11 197 22 q 151 0 169 0 l 85 0 q 49 16 64 0 q 35 50 35 32 q 36 65 35 56 l 168 550 l 44 1033 q 43 1047 43 1039 q 58 1083 43 1067 q 94 1099 72 1099 l 168 1099 q 201 1087 186 1099 q 218 1057 215 1075 l 269 808 l 282 808 l 340 1060 q 360 1088 347 1076 q 390 1099 372 1099 l 457 1099 z "},"Y":{"ha":542,"x_min":33,"x_max":517,"o":"m 465 1099 q 501 1083 486 1099 q 517 1049 517 1068 q 514 1033 517 1043 l 364 474 l 364 50 q 349 15 364 31 q 311 0 333 0 l 232 0 q 194 15 208 0 q 181 50 181 31 l 181 474 l 35 1033 q 33 1047 33 1039 q 47 1083 33 1067 q 83 1099 61 1099 l 157 1099 q 189 1087 175 1099 q 207 1058 203 1075 l 276 732 l 286 732 l 349 1057 q 366 1087 351 1075 q 399 1099 381 1099 l 465 1099 z "},"Z":{"ha":457,"x_min":28,"x_max":418,"o":"m 364 1099 q 398 1084 382 1099 q 414 1049 414 1069 q 411 1036 414 1040 l 231 194 l 368 194 q 403 180 389 194 q 418 143 418 165 l 418 50 q 403 15 418 31 q 368 0 389 0 l 78 0 q 42 15 57 0 q 28 50 28 31 q 31 61 28 57 l 217 918 l 100 918 q 63 933 78 918 q 49 968 49 947 l 49 1047 q 63 1083 49 1068 q 100 1099 78 1099 l 364 1099 z "},"[":{"ha":536,"x_min":144,"x_max":532,"o":"m 532 -236 q 517 -272 532 -257 q 481 -286 501 -286 l 197 -286 q 160 -272 175 -286 q 144 -236 144 -257 l 144 1235 q 160 1272 144 1257 q 197 1286 175 1286 l 481 1286 q 517 1272 501 1286 q 532 1235 532 1257 l 532 1157 q 517 1122 532 1136 q 481 1107 501 1107 l 336 1107 l 336 -106 l 481 -106 q 517 -120 501 -106 q 532 -157 532 -135 l 532 -236 z "},"\\":{"ha":533,"x_min":19,"x_max":469,"o":"m 157 1099 q 188 1088 175 1099 q 206 1060 201 1078 l 468 65 q 469 51 469 60 q 456 16 469 32 q 419 0 442 0 l 333 0 q 302 10 315 0 q 283 36 289 19 l 24 1033 q 19 1049 19 1043 q 35 1083 19 1068 q 72 1099 50 1099 l 157 1099 z "},"]":{"ha":536,"x_min":6,"x_max":390,"o":"m 6 -157 q 20 -120 6 -135 q 56 -106 35 -106 l 200 -106 l 200 1107 l 56 1107 q 20 1122 35 1107 q 6 1157 6 1136 l 6 1235 q 20 1272 6 1257 q 56 1286 35 1286 l 340 1286 q 375 1272 360 1286 q 390 1235 390 1257 l 390 -236 q 375 -272 390 -257 q 340 -286 360 -286 l 56 -286 q 20 -272 35 -286 q 6 -236 6 -257 l 6 -157 z "},"^":{"ha":543,"x_min":53,"x_max":497,"o":"m 490 964 q 497 947 497 956 q 487 926 497 935 q 465 917 476 917 l 393 917 q 368 928 376 917 l 278 1039 l 269 1039 l 181 928 q 156 917 172 917 l 83 917 q 61 926 69 917 q 53 949 53 935 q 57 964 53 957 l 169 1144 q 215 1169 185 1169 l 335 1169 q 376 1144 364 1169 l 490 964 z "},"_":{"ha":718,"x_min":49,"x_max":667,"o":"m 667 50 q 653 15 667 31 q 615 0 639 0 l 100 0 q 63 15 78 0 q 49 50 49 31 l 49 143 q 63 180 49 165 q 100 194 78 194 l 615 194 q 653 180 639 194 q 667 143 667 165 l 667 50 z "},"`":{"ha":251,"x_min":17,"x_max":232,"o":"m 226 950 q 224 925 232 935 q 193 915 215 915 l 144 915 q 115 935 132 915 l 26 1028 q 17 1057 17 1040 q 30 1086 17 1074 q 75 1099 43 1099 l 128 1099 q 157 1092 149 1099 q 169 1074 165 1086 l 226 950 z "},"a":{"ha":511,"x_min":25,"x_max":476,"o":"m 293 356 q 253 336 269 347 q 226 312 236 325 q 208 283 215 299 q 203 192 201 267 q 249 144 203 144 q 293 192 293 144 l 293 356 m 476 61 q 476 51 476 58 q 463 16 476 32 q 426 0 449 0 l 368 0 q 349 15 351 0 l 344 44 l 335 44 q 287 1 317 17 q 217 -15 257 -15 q 78 38 131 -15 q 25 186 25 92 q 37 295 25 256 q 67 360 49 335 q 110 408 86 386 q 158 447 135 431 q 293 506 217 483 l 293 626 q 285 657 293 647 q 260 667 278 667 q 233 657 240 667 q 226 626 226 647 l 226 607 q 210 572 226 586 q 175 557 194 557 l 94 557 q 60 572 75 557 q 44 607 44 586 l 44 622 q 63 706 44 668 q 110 770 81 743 q 180 811 140 797 q 265 825 219 825 q 347 811 310 825 q 410 770 385 797 q 451 706 436 743 q 467 622 467 668 l 467 167 q 469 115 467 140 q 476 61 472 89 z "},"b":{"ha":536,"x_min":51,"x_max":489,"o":"m 317 626 q 303 657 317 647 q 268 667 289 667 q 238 657 250 667 q 225 626 225 647 l 225 185 q 238 155 225 165 q 268 144 250 144 q 303 155 289 144 q 317 185 317 165 l 317 626 m 489 124 q 478 64 489 89 q 447 22 467 39 q 402 -5 428 6 q 349 -15 376 -15 q 281 -1 314 -15 q 228 35 249 14 l 218 35 l 215 15 q 194 0 210 0 l 101 0 q 67 15 82 0 q 51 50 51 31 l 51 1047 q 67 1083 51 1068 q 101 1099 82 1099 l 174 1099 q 210 1083 194 1099 q 225 1047 225 1068 l 225 775 l 235 775 q 285 812 256 799 q 349 825 315 825 q 402 816 376 825 q 447 788 428 807 q 478 744 467 769 q 489 689 489 718 l 489 124 z "},"c":{"ha":517,"x_min":43,"x_max":482,"o":"m 482 186 q 465 104 482 142 q 417 41 447 67 q 347 0 386 15 q 264 -15 307 -15 q 176 0 217 -15 q 106 41 136 15 q 60 104 76 67 q 43 186 43 142 l 43 622 q 60 706 43 668 q 106 770 76 743 q 176 811 136 797 q 264 825 217 825 q 347 811 307 825 q 417 770 386 797 q 465 706 447 743 q 482 622 482 668 l 482 576 q 467 542 482 557 q 431 526 451 526 l 357 526 q 322 542 336 526 q 307 576 307 557 l 307 626 q 295 657 307 647 q 264 667 283 667 q 230 657 243 667 q 217 626 217 647 l 217 185 q 230 155 217 165 q 264 144 243 144 q 295 155 283 144 q 307 185 307 165 l 307 231 q 322 267 307 251 q 357 282 336 282 l 431 282 q 467 267 451 282 q 482 231 482 251 l 482 186 z "},"d":{"ha":535,"x_min":47,"x_max":483,"o":"m 310 626 q 297 657 310 647 q 267 667 285 667 q 233 657 247 667 q 219 626 219 647 l 219 185 q 233 155 219 165 q 267 144 247 144 q 297 155 285 144 q 310 185 310 165 l 310 626 m 483 50 q 469 15 483 31 q 432 0 456 0 l 340 0 q 322 15 325 0 l 317 35 l 307 35 q 254 -1 286 14 q 186 -15 222 -15 q 133 -5 158 -15 q 88 22 107 6 q 58 64 69 39 q 47 124 47 89 l 47 689 q 58 744 47 718 q 88 788 69 769 q 133 816 107 807 q 186 825 158 825 q 250 812 219 825 q 300 775 281 799 l 310 775 l 310 1047 q 325 1083 310 1068 q 360 1099 340 1099 l 432 1099 q 469 1083 456 1099 q 483 1047 483 1068 l 483 50 z "},"e":{"ha":525,"x_min":43,"x_max":482,"o":"m 307 628 q 295 658 307 649 q 264 668 283 668 q 230 658 243 668 q 217 628 217 649 l 217 443 l 307 443 l 307 628 m 482 186 q 465 104 482 142 q 417 41 447 67 q 347 0 386 15 q 264 -15 307 -15 q 176 0 217 -15 q 106 41 136 15 q 60 104 76 67 q 43 186 43 142 l 43 624 q 60 706 43 668 q 106 770 76 743 q 176 811 136 797 q 264 825 217 825 q 347 811 307 825 q 417 770 386 797 q 465 706 447 743 q 482 624 482 668 l 482 426 q 457 367 482 392 q 397 343 432 343 l 217 343 l 217 185 q 230 154 217 165 q 264 143 243 143 q 295 154 283 143 q 307 186 307 165 q 322 224 307 208 q 357 239 336 239 l 431 239 q 467 224 451 239 q 482 186 482 208 z "},"f":{"ha":364,"x_min":26,"x_max":361,"o":"m 350 710 q 335 674 350 689 q 299 660 319 660 l 260 660 l 260 50 q 246 15 260 31 q 208 0 232 0 l 135 0 q 100 15 115 0 q 85 50 85 31 l 85 660 l 76 660 q 42 674 57 660 q 26 710 26 689 l 26 758 q 42 794 26 781 q 76 808 57 808 l 85 808 l 85 918 q 98 992 85 958 q 135 1049 111 1025 q 191 1085 158 1072 q 260 1099 224 1099 l 286 1099 q 340 1083 319 1099 q 361 1047 361 1068 l 361 958 q 356 946 361 951 q 342 940 350 940 l 307 940 q 273 928 286 940 q 260 900 260 915 l 260 808 l 299 808 q 335 794 319 808 q 350 758 350 781 l 350 710 z "},"g":{"ha":547,"x_min":47,"x_max":483,"o":"m 219 185 q 233 155 219 165 q 267 144 247 144 q 298 155 285 144 q 311 185 311 165 l 311 626 q 298 657 311 647 q 267 667 285 667 q 233 657 247 667 q 219 626 219 647 l 219 185 m 483 -107 q 470 -181 483 -147 q 433 -236 457 -214 q 378 -272 410 -258 q 310 -286 347 -286 l 231 -286 q 193 -272 208 -286 q 178 -235 178 -257 l 178 -178 q 193 -142 178 -157 q 231 -128 208 -128 l 267 -128 q 299 -115 286 -128 q 311 -86 311 -103 l 311 36 l 300 36 q 251 0 282 15 q 185 -15 219 -15 q 131 -5 157 -15 q 87 23 106 6 q 58 65 68 40 q 47 124 47 90 l 47 689 q 58 746 47 719 q 87 790 68 772 q 131 816 106 807 q 185 825 157 825 q 254 812 222 825 q 307 775 286 799 l 317 775 l 322 797 q 340 810 325 810 l 433 810 q 469 796 456 810 q 483 760 483 782 l 483 -107 z "},"h":{"ha":535,"x_min":51,"x_max":486,"o":"m 486 50 q 472 15 486 31 q 436 0 457 0 l 364 0 q 328 15 343 0 q 314 50 314 31 l 314 626 q 301 657 314 647 q 268 667 289 667 q 238 657 250 667 q 225 626 225 647 l 225 50 q 210 15 225 31 q 174 0 194 0 l 101 0 q 67 15 82 0 q 51 50 51 31 l 51 1047 q 67 1083 51 1068 q 101 1099 82 1099 l 174 1099 q 210 1083 194 1099 q 225 1047 225 1068 l 225 775 l 235 775 q 285 812 256 799 q 347 825 315 825 q 401 816 376 825 q 447 788 426 807 q 476 744 467 769 q 486 689 486 718 l 486 50 z "},"i":{"ha":276,"x_min":51,"x_max":225,"o":"m 225 50 q 210 15 225 31 q 174 0 194 0 l 101 0 q 67 15 82 0 q 51 50 51 31 l 51 758 q 67 794 51 781 q 101 808 82 808 l 174 808 q 210 794 194 808 q 225 758 225 781 l 225 50 m 225 965 q 210 930 225 944 q 174 915 194 915 l 101 915 q 67 930 82 915 q 51 965 51 944 l 51 1047 q 67 1083 51 1068 q 101 1099 82 1099 l 174 1099 q 210 1083 194 1099 q 225 1047 225 1068 l 225 965 z "},"j":{"ha":276,"x_min":-51,"x_max":225,"o":"m 225 965 q 210 930 225 944 q 174 915 194 915 l 100 915 q 65 930 81 915 q 50 965 50 944 l 50 1047 q 65 1083 50 1068 q 100 1099 81 1099 l 174 1099 q 210 1083 194 1099 q 225 1047 225 1068 l 225 965 m 225 -107 q 211 -179 225 -147 q 174 -235 197 -211 q 120 -272 151 -258 q 50 -286 89 -286 l 22 -286 q -31 -269 -11 -286 q -51 -224 -51 -253 l -51 -143 q -47 -128 -51 -133 q -35 -122 -43 -122 l 14 -131 q 38 -119 26 -133 q 50 -86 50 -106 l 50 758 q 65 794 50 781 q 100 808 81 808 l 174 808 q 210 794 194 808 q 225 758 225 781 l 225 -107 z "},"k":{"ha":528,"x_min":51,"x_max":497,"o":"m 494 65 q 497 51 497 56 q 483 16 497 32 q 447 0 468 0 l 381 0 q 350 10 364 0 q 332 36 336 19 l 257 310 l 247 310 l 225 251 l 225 50 q 210 15 225 31 q 174 0 194 0 l 101 0 q 67 15 82 0 q 51 50 51 31 l 51 1047 q 67 1083 51 1068 q 101 1099 82 1099 l 174 1099 q 210 1083 194 1099 q 225 1047 225 1068 l 225 508 l 236 508 l 315 775 q 333 800 318 790 q 364 810 347 810 l 426 810 q 463 795 449 810 q 476 760 476 781 q 474 742 476 750 l 375 468 l 494 65 z "},"l":{"ha":276,"x_min":51,"x_max":225,"o":"m 225 50 q 210 15 225 31 q 174 0 194 0 l 101 0 q 67 15 82 0 q 51 50 51 31 l 51 1047 q 67 1083 51 1068 q 101 1099 82 1099 l 174 1099 q 210 1083 194 1099 q 225 1047 225 1068 l 225 50 z "},"m":{"ha":799,"x_min":51,"x_max":751,"o":"m 751 50 q 737 15 751 31 q 700 0 722 0 l 628 0 q 593 15 608 0 q 578 50 578 31 l 578 618 q 565 649 578 639 q 533 658 551 658 q 502 649 515 658 q 489 618 489 639 l 489 50 q 474 15 489 31 q 436 0 458 0 l 367 0 q 332 15 347 0 q 317 50 317 31 l 317 626 q 303 657 317 647 q 272 667 289 667 q 238 657 251 667 q 225 626 225 647 l 225 50 q 210 15 225 31 q 174 0 194 0 l 101 0 q 67 15 82 0 q 51 50 51 31 l 51 758 q 67 794 51 781 q 101 808 82 808 l 197 808 q 217 794 214 808 l 222 775 l 232 775 q 284 812 251 799 q 349 825 317 825 q 391 817 372 825 q 426 799 410 810 q 455 775 443 789 q 476 749 467 761 l 485 749 q 538 801 506 778 q 611 825 569 825 q 666 816 640 825 q 710 788 692 807 q 740 744 728 769 q 751 689 751 718 l 751 50 z "},"n":{"ha":536,"x_min":51,"x_max":489,"o":"m 489 50 q 474 15 489 31 q 436 0 458 0 l 367 0 q 332 15 347 0 q 317 50 317 31 l 317 626 q 303 657 317 647 q 272 667 289 667 q 238 657 251 667 q 225 626 225 647 l 225 50 q 210 15 225 31 q 174 0 194 0 l 101 0 q 67 15 82 0 q 51 50 51 31 l 51 758 q 67 794 51 781 q 101 808 82 808 l 194 808 q 215 794 210 808 l 218 775 l 228 775 q 282 812 249 799 q 349 825 315 825 q 402 816 376 825 q 447 788 428 807 q 478 744 467 769 q 489 689 489 718 l 489 50 z "},"o":{"ha":525,"x_min":43,"x_max":482,"o":"m 482 186 q 465 104 482 142 q 417 41 447 67 q 347 0 386 15 q 264 -15 307 -15 q 176 0 217 -15 q 106 41 136 15 q 60 104 76 67 q 43 186 43 142 l 43 622 q 60 706 43 668 q 106 770 76 743 q 176 811 136 797 q 264 825 217 825 q 347 811 307 825 q 417 770 386 797 q 465 706 447 743 q 482 622 482 668 l 482 186 m 307 626 q 295 657 307 647 q 264 667 283 667 q 230 657 243 667 q 217 626 217 647 l 217 185 q 230 155 217 165 q 264 144 243 144 q 295 155 283 144 q 307 185 307 165 l 307 626 z "},"p":{"ha":536,"x_min":51,"x_max":489,"o":"m 317 626 q 303 657 317 647 q 268 667 289 667 q 238 657 250 667 q 225 626 225 647 l 225 185 q 238 155 225 165 q 268 144 250 144 q 303 155 289 144 q 317 185 317 165 l 317 626 m 489 124 q 478 65 489 90 q 447 23 467 40 q 402 -5 428 6 q 349 -15 376 -15 q 285 0 315 -15 q 235 36 256 15 l 225 36 l 225 -236 q 210 -272 225 -257 q 174 -286 194 -286 l 101 -286 q 67 -272 82 -286 q 51 -236 51 -257 l 51 758 q 67 794 51 781 q 101 808 82 808 l 194 808 q 215 794 210 808 l 218 775 l 228 775 q 281 812 249 799 q 349 825 314 825 q 402 816 376 825 q 447 790 428 807 q 478 746 467 772 q 489 689 489 719 l 489 124 z "},"q":{"ha":535,"x_min":44,"x_max":483,"o":"m 308 626 q 296 657 308 647 q 265 667 283 667 q 232 657 244 667 q 219 626 219 647 l 219 185 q 232 155 219 165 q 265 144 244 144 q 296 155 283 144 q 308 185 308 165 l 308 626 m 483 -236 q 468 -272 483 -257 q 432 -286 453 -286 l 358 -286 q 324 -272 339 -286 q 308 -236 308 -257 l 308 36 l 299 36 q 249 0 278 15 q 185 -15 219 -15 q 131 -5 157 -15 q 87 23 106 6 q 56 65 68 40 q 44 124 44 90 l 44 689 q 56 746 44 719 q 87 790 68 772 q 131 816 106 807 q 185 825 157 825 q 253 812 219 825 q 307 775 286 799 l 317 775 l 319 793 q 340 808 324 808 l 432 808 q 468 794 453 808 q 483 758 483 781 l 483 -236 z "},"r":{"ha":397,"x_min":51,"x_max":375,"o":"m 375 694 q 354 656 375 668 q 307 643 333 644 q 246 623 267 639 q 225 567 225 607 l 225 50 q 210 15 225 31 q 174 0 194 0 l 101 0 q 67 15 82 0 q 51 50 51 31 l 51 758 q 67 794 51 781 q 101 808 82 808 l 201 808 q 219 793 217 808 l 226 767 l 236 767 q 270 794 249 781 q 317 817 292 808 q 328 818 322 818 q 361 805 347 818 q 375 774 375 792 l 375 694 z "},"s":{"ha":507,"x_min":35,"x_max":472,"o":"m 472 208 q 460 125 472 165 q 419 54 447 85 q 350 4 392 24 q 256 -15 308 -15 q 98 40 153 -15 q 43 186 43 94 l 43 207 q 58 243 43 228 q 94 258 74 258 l 149 258 q 185 243 169 258 q 200 207 200 228 l 200 186 q 213 153 200 167 q 250 140 226 140 q 286 153 274 140 q 299 201 299 167 q 291 247 299 226 q 267 287 283 267 q 222 329 250 307 q 156 382 194 351 q 70 478 106 422 q 35 601 35 533 q 53 708 35 665 q 103 776 72 750 q 172 813 133 801 q 256 825 211 825 q 337 811 299 825 q 403 770 375 797 q 448 706 432 743 q 464 622 464 668 l 464 603 q 449 568 464 583 q 411 553 433 553 l 357 553 q 322 568 336 553 q 307 603 307 583 l 307 622 q 294 655 307 643 q 258 667 282 667 q 221 653 233 667 q 208 608 208 639 q 213 578 208 590 q 224 553 217 565 q 245 529 232 542 q 278 500 258 517 l 310 476 q 370 422 340 451 q 422 358 400 392 q 458 286 444 324 q 472 208 472 249 z "},"t":{"ha":415,"x_min":25,"x_max":376,"o":"m 376 710 q 362 674 376 689 q 326 660 347 660 l 283 660 l 283 192 q 295 166 283 175 q 326 157 307 157 l 350 157 q 363 151 357 157 q 368 139 368 144 l 368 50 q 354 15 368 31 q 317 0 340 0 l 276 0 q 208 13 239 0 q 155 49 176 26 q 121 102 133 72 q 108 165 108 132 l 108 660 l 75 660 q 40 674 56 660 q 25 710 25 689 l 25 758 q 40 794 25 781 q 75 808 56 808 l 108 808 l 108 869 q 124 907 108 892 q 158 922 139 922 l 232 922 q 268 907 253 922 q 283 869 283 892 l 283 808 l 326 808 q 362 794 347 808 q 376 758 376 781 l 376 710 z "},"u":{"ha":535,"x_min":47,"x_max":483,"o":"m 483 50 q 469 15 483 31 q 432 0 456 0 l 344 0 q 326 15 328 0 l 319 35 l 310 35 q 256 -1 290 14 q 186 -15 222 -15 q 133 -5 158 -15 q 88 22 107 6 q 58 64 69 39 q 47 124 47 89 l 47 758 q 62 794 47 781 q 97 808 76 808 l 168 808 q 206 794 192 808 q 219 758 219 781 l 219 185 q 233 155 219 165 q 267 144 247 144 q 297 155 285 144 q 310 185 310 165 l 310 758 q 325 794 310 781 q 360 808 340 808 l 432 808 q 469 794 456 808 q 483 758 483 781 l 483 50 z "},"v":{"ha":456,"x_min":10,"x_max":432,"o":"m 378 808 q 417 791 401 808 q 426 749 432 774 l 300 42 q 283 12 297 24 q 249 0 268 0 l 194 0 q 162 12 175 0 q 144 42 149 24 l 15 749 q 26 791 10 774 q 65 808 42 808 l 118 808 q 153 797 139 808 q 168 765 167 785 l 217 375 l 228 375 q 251 568 239 467 q 274 765 264 669 q 292 797 276 785 q 325 808 307 808 l 378 808 z "},"w":{"ha":703,"x_min":15,"x_max":700,"o":"m 644 808 q 684 790 668 808 q 694 749 700 772 l 557 42 q 538 12 551 24 q 507 0 525 0 l 461 0 q 429 12 443 0 q 411 43 415 24 l 357 382 l 344 382 l 289 43 q 272 12 286 24 q 239 0 258 0 l 194 0 q 161 12 175 0 q 144 43 147 24 l 19 750 q 31 791 15 774 q 69 808 47 808 l 135 808 q 168 796 153 808 q 185 764 183 783 l 224 403 l 235 403 l 289 767 q 304 797 290 786 q 339 808 318 808 l 378 808 q 412 797 397 808 q 428 767 426 786 l 483 403 l 494 403 l 532 764 q 549 796 535 783 q 583 808 564 808 l 644 808 z "},"x":{"ha":506,"x_min":35,"x_max":475,"o":"m 472 65 q 474 58 474 61 q 475 50 475 56 q 460 16 475 32 q 425 0 444 0 l 351 0 q 320 11 333 0 q 303 40 307 22 l 260 226 l 249 226 q 226 132 236 178 q 206 40 215 86 q 187 11 200 22 q 156 0 174 0 l 86 0 q 50 15 65 0 q 35 49 35 31 q 39 67 35 58 l 158 403 l 39 742 q 35 758 35 750 q 50 794 35 781 q 85 808 65 808 l 156 808 q 187 799 174 808 q 206 769 200 789 l 249 597 l 260 597 l 301 769 q 321 799 307 789 q 351 808 335 808 l 419 808 q 458 793 443 808 q 472 758 472 778 q 467 740 472 749 l 349 432 q 410 250 378 343 q 472 65 442 157 z "},"y":{"ha":483,"x_min":19,"x_max":468,"o":"m 417 808 q 454 793 440 808 q 468 758 468 778 q 467 749 468 751 l 285 -149 q 228 -250 272 -214 q 106 -286 183 -286 l 83 -286 q 51 -274 61 -286 q 42 -244 42 -261 l 42 -168 q 53 -139 42 -151 q 83 -126 65 -126 q 119 -117 106 -126 q 135 -94 132 -108 l 168 47 q 96 397 133 219 q 22 749 58 575 q 19 758 19 751 q 35 793 19 778 q 72 808 50 808 l 135 808 q 169 797 156 808 q 185 765 183 785 l 240 367 l 251 367 l 306 765 q 321 797 307 785 q 356 808 335 808 l 417 808 z "},"z":{"ha":414,"x_min":19,"x_max":386,"o":"m 386 42 q 374 13 386 25 q 344 0 361 0 l 60 0 q 31 13 43 0 q 19 42 19 25 q 19 51 19 49 l 178 660 l 65 660 q 37 672 49 660 q 25 700 25 683 l 25 768 q 37 797 25 786 q 65 808 49 808 l 333 808 q 363 797 350 808 q 375 768 375 785 q 374 758 375 761 l 215 151 l 344 151 q 374 139 361 151 q 386 110 386 126 l 386 42 z "},"{":{"ha":489,"x_min":11,"x_max":468,"o":"m 417 1099 q 356 1036 356 1099 l 356 640 q 339 606 356 622 l 257 522 l 339 439 q 356 403 356 424 l 356 -35 q 417 -94 356 -94 q 453 -110 439 -94 q 468 -147 468 -125 l 468 -236 q 453 -272 468 -257 q 417 -286 439 -286 q 239 -211 314 -286 q 165 -35 165 -139 l 165 347 l 25 486 q 11 522 11 500 q 25 558 11 543 l 165 699 l 165 1036 q 239 1214 165 1140 q 417 1286 311 1286 q 453 1272 439 1286 q 468 1235 468 1257 l 468 1149 q 453 1113 468 1128 q 417 1099 439 1099 z "},"|":{"ha":310,"x_min":60,"x_max":249,"o":"m 249 50 q 234 15 249 31 q 197 0 219 0 l 110 0 q 74 15 89 0 q 60 50 60 31 l 60 1047 q 74 1083 60 1068 q 110 1099 89 1099 l 197 1099 q 234 1083 219 1099 q 249 1047 249 1068 l 249 50 z "},"}":{"ha":489,"x_min":7,"x_max":465,"o":"m 58 1099 q 22 1113 36 1099 q 7 1149 7 1128 l 7 1235 q 22 1272 7 1257 q 58 1286 36 1286 q 236 1214 164 1286 q 310 1036 310 1140 l 310 699 l 449 558 q 465 522 465 543 q 449 486 465 500 l 310 347 l 310 -35 q 236 -211 310 -139 q 58 -286 164 -286 q 22 -272 36 -286 q 7 -236 7 -257 l 7 -147 q 22 -110 7 -125 q 58 -94 36 -94 q 122 -35 122 -94 l 122 403 q 136 439 122 424 l 219 522 l 136 606 q 122 640 122 622 l 122 1036 q 58 1099 122 1099 z "},"~":{"ha":574,"x_min":56,"x_max":524,"o":"m 517 560 q 460 471 494 497 q 375 444 426 444 q 251 497 311 444 q 229 512 239 507 q 211 517 219 517 q 189 506 197 517 q 173 481 181 494 q 155 458 165 468 q 128 449 144 449 q 125 449 126 449 q 122 449 124 449 l 92 456 q 64 472 72 458 q 56 507 56 486 q 60 536 56 518 q 117 625 83 599 q 201 651 150 651 q 325 600 265 651 q 343 586 335 592 q 361 581 351 581 q 388 591 378 581 q 406 614 397 601 q 424 638 415 626 q 450 649 433 649 q 455 648 453 649 q 460 647 457 647 l 486 640 q 515 622 507 636 q 524 590 524 608 q 517 560 524 575 z "},"":{"ha":542,"x_min":36,"x_max":507,"o":"m 507 767 q 492 732 507 747 q 456 717 476 717 l 351 717 l 351 397 q 338 362 351 376 q 300 347 324 347 l 231 347 q 194 362 208 347 q 181 397 181 376 l 181 717 l 89 717 q 51 732 67 717 q 36 767 36 747 l 36 851 q 51 888 36 874 q 89 903 67 903 l 181 903 l 181 1047 q 194 1083 181 1068 q 231 1099 208 1099 l 300 1099 q 338 1083 324 1099 q 351 1047 351 1068 l 351 903 l 456 903 q 492 888 476 903 q 507 851 507 874 l 507 767 z "},"":{"ha":457,"x_min":32,"x_max":426,"o":"m 426 889 q 412 802 426 843 q 369 731 397 761 q 306 684 342 701 q 228 667 269 667 q 151 684 186 667 q 88 731 115 701 q 47 802 61 761 q 32 889 32 843 q 47 976 32 935 q 88 1047 61 1017 q 151 1094 115 1078 q 228 1111 186 1111 q 306 1094 269 1111 q 369 1047 342 1078 q 412 976 397 1017 q 426 889 426 935 m 333 889 q 325 930 333 911 q 301 963 317 949 q 267 988 286 978 q 228 997 249 997 q 188 988 207 997 q 154 963 168 978 q 133 930 140 949 q 125 889 125 911 q 133 848 125 868 q 154 813 140 828 q 188 790 168 799 q 228 782 207 782 q 267 790 249 782 q 301 813 286 799 q 325 848 317 828 q 333 889 333 868 z "},"":{"ha":517,"x_min":43,"x_max":481,"o":"m 481 186 q 436 61 481 111 q 326 -6 392 11 l 322 -6 l 322 -60 q 307 -97 322 -82 q 269 -111 292 -111 l 243 -111 q 208 -97 224 -111 q 193 -60 193 -82 l 193 -6 l 189 -6 q 83 65 124 15 q 43 186 43 115 l 43 622 q 83 747 43 697 q 189 815 124 797 l 193 815 l 193 878 q 208 915 193 900 q 243 931 224 931 l 269 931 q 307 915 292 931 q 322 878 322 900 l 322 817 l 326 817 q 437 749 393 799 q 481 622 481 699 l 481 564 q 465 528 481 543 q 428 514 450 514 l 357 514 q 322 528 336 514 q 307 564 307 543 l 307 626 q 294 657 307 647 q 261 667 282 667 q 230 657 243 667 q 217 626 217 647 l 217 185 q 230 155 217 165 q 261 144 243 144 q 294 155 282 144 q 307 185 307 165 l 307 244 q 322 282 307 267 q 357 297 336 297 l 428 297 q 465 282 450 297 q 481 244 481 267 l 481 186 z "},"":{"ha":739,"x_min":135,"x_max":626,"o":"m 232 447 l 185 447 q 150 462 165 447 q 135 497 135 476 l 135 572 q 150 608 135 593 q 185 624 165 624 l 232 624 l 232 878 q 300 1049 232 982 q 467 1111 368 1111 l 483 1111 q 520 1097 506 1111 q 535 1060 535 1083 l 535 986 q 520 951 535 967 q 483 936 506 936 l 467 936 q 408 878 408 936 l 408 624 l 511 624 q 549 608 535 624 q 564 572 564 593 l 564 497 q 549 462 564 476 q 511 447 535 447 l 408 447 l 408 164 l 575 164 q 612 149 597 164 q 626 111 626 133 l 626 36 q 612 0 626 15 q 575 -15 597 -15 l 283 -15 q 247 0 261 -15 q 232 36 232 15 l 232 447 z "},"":{"ha":507,"x_min":56,"x_max":456,"o":"m 317 522 q 210 653 317 594 l 203 653 q 195 619 197 639 q 193 576 193 599 q 297 447 193 506 l 307 447 q 317 522 317 481 m 456 542 q 440 442 456 490 q 394 356 425 394 q 426 286 415 324 q 436 208 436 249 q 386 46 436 106 q 251 -14 336 -14 q 74 167 111 -14 q 72 185 72 178 q 82 221 72 206 q 111 240 92 236 l 160 247 q 195 229 185 247 q 211 190 206 211 q 225 152 217 169 q 257 135 233 135 q 299 200 299 135 q 226 315 299 264 q 136 379 169 351 q 84 433 103 407 q 60 488 65 458 q 56 557 56 517 q 70 655 56 608 q 114 742 85 701 q 83 812 94 775 q 72 889 72 849 q 124 1052 72 994 q 257 1110 175 1110 q 435 928 399 1110 q 436 911 436 918 q 426 876 436 893 q 397 858 417 860 l 349 853 q 314 868 328 853 q 297 903 300 883 l 289 935 q 275 954 283 947 q 253 961 267 961 q 210 899 210 961 q 283 783 210 835 q 373 718 339 747 q 425 664 407 689 q 449 610 443 639 q 456 542 456 581 z "},"":{"ha":317,"x_min":25,"x_max":294,"o":"m 294 549 q 283 489 294 517 q 254 440 272 461 q 211 408 236 419 q 160 397 186 397 q 108 408 132 397 q 64 440 83 419 q 35 489 44 461 q 25 549 25 517 q 35 608 25 581 q 64 657 44 636 q 108 689 83 678 q 160 700 132 700 q 211 689 186 700 q 254 657 236 678 q 283 608 272 636 q 294 549 294 581 z "},"":{"ha":768,"x_min":56,"x_max":718,"o":"m 668 -192 l 643 -192 q 608 -176 624 -192 q 593 -140 593 -161 l 593 911 q 578 949 593 935 q 542 964 564 964 q 503 949 518 964 q 489 911 489 935 l 489 -140 q 474 -176 489 -161 q 436 -192 458 -192 l 414 -192 q 378 -176 392 -192 q 364 -140 364 -161 l 364 492 l 339 492 q 235 511 285 492 q 145 569 185 531 q 81 663 106 607 q 56 794 56 719 q 128 1019 56 940 q 174 1053 147 1039 q 233 1077 201 1068 q 294 1092 264 1086 q 351 1097 325 1097 l 668 1097 q 703 1082 689 1097 q 718 1044 718 1067 l 718 -140 q 703 -176 718 -161 q 668 -192 689 -192 z "},"":{"ha":549,"x_min":51,"x_max":507,"o":"m 507 208 q 462 60 507 111 q 336 -3 417 8 q 295 6 314 -7 q 276 43 276 19 l 276 158 q 316 172 300 158 q 332 219 332 185 l 332 507 q 322 547 332 533 q 294 565 311 560 q 276 586 276 569 l 276 689 q 287 721 276 708 q 314 747 297 733 q 344 839 344 768 q 328 919 344 890 q 282 947 311 947 q 242 928 257 947 q 226 883 226 908 l 226 50 q 210 15 226 31 q 175 0 194 0 l 101 0 q 67 15 82 0 q 51 50 51 31 l 51 881 q 65 961 51 919 q 106 1036 78 1003 q 176 1090 135 1069 q 272 1111 217 1111 q 375 1089 331 1111 q 448 1030 419 1067 q 492 947 476 993 q 507 853 507 900 q 499 791 507 822 q 479 734 492 760 q 451 688 467 708 q 417 658 435 668 l 417 658 q 485 601 464 644 q 507 503 507 558 l 507 208 z "},"":{"ha":1107,"x_min":164,"x_max":947,"o":"m 947 547 q 849 143 947 286 q 553 -15 742 -15 q 388 26 460 -15 q 267 143 317 67 q 190 318 217 217 q 164 547 164 419 q 190 778 164 676 q 267 953 217 881 q 388 1069 317 1028 q 553 1110 460 1110 q 849 953 740 1110 q 947 547 947 808 m 856 547 q 553 1024 856 1024 q 257 547 257 1024 q 553 74 257 74 q 856 547 856 74 m 600 678 q 550 761 600 761 l 526 761 l 526 593 l 547 593 q 600 678 600 593 m 660 236 l 649 236 q 614 248 628 236 q 597 278 600 260 l 557 503 l 526 503 l 526 289 q 512 251 526 267 q 475 236 497 236 l 460 236 q 425 251 440 236 q 410 289 410 267 l 410 808 q 425 843 410 828 q 460 858 440 858 l 569 858 q 684 815 650 858 q 718 683 718 772 q 660 535 718 581 l 711 300 q 711 289 711 297 q 697 252 711 268 q 660 236 683 236 z "},"":{"ha":1107,"x_min":164,"x_max":947,"o":"m 947 547 q 919 307 947 411 q 841 131 892 203 q 717 22 790 60 q 553 -15 644 -15 q 389 25 461 -15 q 267 137 317 65 q 190 313 217 208 q 164 547 164 417 q 190 781 164 678 q 267 958 217 885 q 389 1070 317 1031 q 553 1110 461 1110 q 717 1072 644 1110 q 841 963 790 1035 q 919 786 892 890 q 947 547 947 682 m 856 547 q 553 1022 856 1022 q 257 547 257 1022 q 553 72 257 72 q 856 547 856 72 m 726 372 q 674 273 708 303 q 568 243 639 243 q 489 260 522 243 q 433 313 456 276 q 400 408 410 350 q 390 551 390 467 q 400 692 390 633 q 433 789 410 751 q 490 843 456 826 q 569 860 524 860 q 672 833 636 860 q 726 733 708 806 q 728 710 728 719 q 718 674 728 690 q 689 657 708 658 l 656 656 q 622 667 636 656 q 603 699 607 678 l 600 736 q 569 761 594 761 q 535 739 551 761 q 517 668 519 717 l 517 443 q 535 371 519 394 q 574 347 551 347 q 593 362 586 347 q 608 397 600 376 q 627 433 615 417 q 658 449 639 449 l 689 447 q 718 428 708 444 q 728 392 728 411 q 728 381 728 386 q 726 372 728 376 z "},"":{"ha":874,"x_min":39,"x_max":815,"o":"m 815 592 q 806 574 815 582 q 783 567 797 567 l 728 567 q 708 574 717 567 q 699 592 699 582 l 699 907 l 690 907 l 617 586 q 607 572 615 578 q 586 567 599 567 l 565 567 q 543 572 551 567 q 535 586 535 578 l 467 907 l 460 907 l 460 592 q 451 574 460 582 q 428 567 442 567 l 386 567 q 366 574 375 567 q 357 592 357 582 l 357 1074 q 366 1092 357 1083 q 386 1100 375 1100 l 511 1100 q 532 1094 524 1100 q 543 1078 540 1089 l 586 857 l 592 857 l 639 1078 q 648 1094 639 1089 q 668 1100 657 1100 l 783 1100 q 806 1092 797 1100 q 815 1074 815 1083 l 815 592 m 324 1032 q 315 1015 324 1022 q 290 1008 306 1008 l 242 1008 l 242 592 q 233 574 242 582 q 210 567 224 567 l 156 567 q 133 574 142 567 q 124 592 124 582 l 124 1008 l 69 1008 q 48 1015 57 1008 q 39 1032 39 1022 l 39 1074 q 48 1092 39 1083 q 69 1100 57 1100 l 290 1100 q 315 1092 306 1100 q 324 1074 324 1083 l 324 1032 z "},"":{"ha":251,"x_min":25,"x_max":240,"o":"m 86 1074 q 101 1092 93 1086 q 128 1099 108 1099 l 183 1099 q 228 1086 215 1099 q 240 1057 240 1074 q 231 1028 240 1040 l 143 935 q 114 915 125 915 l 65 915 q 34 925 43 915 q 32 950 25 935 l 86 1074 z "},"":{"ha":574,"x_min":60,"x_max":511,"o":"m 511 965 q 497 930 511 944 q 460 915 482 915 l 389 915 q 353 930 368 915 q 339 965 339 944 l 339 1047 q 353 1083 339 1068 q 389 1099 368 1099 l 460 1099 q 497 1083 482 1099 q 511 1047 511 1068 l 511 965 m 233 965 q 218 930 233 944 q 182 915 203 915 l 111 915 q 75 930 90 915 q 60 965 60 944 l 60 1047 q 75 1083 60 1068 q 111 1099 90 1099 l 182 1099 q 218 1083 203 1099 q 233 1047 233 1068 l 233 965 z "},"":{"ha":732,"x_min":19,"x_max":699,"o":"m 311 803 l 300 803 q 267 585 285 693 q 233 367 249 476 l 311 367 l 311 803 m 699 50 q 683 15 699 31 q 647 0 668 0 l 364 0 q 326 15 342 0 q 311 50 311 31 l 311 172 l 206 172 l 185 43 q 169 13 182 25 q 135 0 156 0 l 72 0 q 35 15 50 0 q 19 50 19 31 q 22 60 19 56 l 192 1056 q 209 1087 194 1075 q 243 1099 224 1099 l 647 1099 q 683 1083 668 1099 q 699 1047 699 1068 l 699 968 q 683 933 699 947 q 647 918 668 918 l 501 918 l 501 667 l 581 667 q 617 653 601 667 q 632 615 632 639 l 632 524 q 617 487 632 501 q 581 472 601 472 l 501 472 l 501 194 l 647 194 q 683 180 668 194 q 699 143 699 165 l 699 50 z "},"":{"ha":553,"x_min":43,"x_max":510,"o":"m 322 890 q 310 915 322 907 q 276 924 297 924 q 244 915 257 924 q 232 890 232 907 l 232 207 q 244 183 232 192 q 276 175 257 175 q 310 183 297 175 q 322 207 322 192 l 322 890 m 457 1140 q 492 1125 478 1140 q 507 1090 507 1110 q 507 1078 507 1082 l 483 982 q 503 933 497 958 q 510 883 510 908 l 510 215 q 492 133 510 175 q 442 58 474 92 q 368 5 410 25 q 276 -15 326 -15 q 219 -6 247 -15 q 165 15 192 3 l 157 15 q 153 -6 156 3 q 137 -31 150 -19 q 107 -42 124 -42 l 94 -42 q 60 -26 75 -42 q 44 8 44 -11 q 47 22 44 17 l 69 115 q 50 164 57 139 q 43 215 43 189 l 43 883 q 62 965 43 924 q 112 1040 81 1007 q 185 1092 143 1072 q 276 1111 226 1111 q 335 1103 307 1111 q 386 1082 364 1094 l 397 1082 l 401 1106 q 418 1130 406 1119 q 447 1140 431 1140 l 457 1140 z "},"":{"ha":589,"x_min":32,"x_max":560,"o":"m 560 257 q 545 221 560 236 q 508 206 531 206 l 386 206 l 386 50 q 372 15 386 31 q 335 0 357 0 l 253 0 q 217 15 232 0 q 203 50 203 31 l 203 206 l 83 206 q 47 221 61 206 q 32 257 32 236 l 32 292 q 47 328 32 314 q 83 343 61 343 l 203 343 l 203 403 l 185 468 l 83 468 q 47 483 61 468 q 32 518 32 499 l 32 556 q 47 592 32 576 q 83 607 61 607 l 135 607 l 51 893 q 49 908 49 901 q 63 943 49 928 q 100 958 76 958 l 175 958 q 206 949 193 958 q 226 922 219 939 l 300 633 l 311 633 l 376 918 q 395 949 382 939 q 426 958 408 958 l 492 958 q 528 943 514 958 q 542 908 542 928 q 540 893 542 906 l 456 607 l 508 607 q 545 592 531 607 q 560 556 560 576 l 560 518 q 545 483 560 499 q 508 468 531 468 l 401 468 l 386 403 l 386 343 l 508 343 q 545 328 531 343 q 560 292 560 314 l 560 257 z "},"":{"ha":353,"x_min":28,"x_max":301,"o":"m 191 826 q 167 814 177 821 q 150 800 157 808 q 140 782 144 792 q 136 727 136 772 q 164 698 136 698 q 191 727 191 698 l 191 826 m 302 648 q 302 642 302 646 q 293 621 302 630 q 271 611 285 611 l 236 611 q 224 620 226 611 l 222 638 l 216 638 q 187 612 205 621 q 145 602 169 602 q 61 634 93 602 q 29 724 29 667 q 36 789 29 766 q 55 829 43 813 q 81 858 66 844 q 110 881 95 871 q 191 917 145 903 l 191 990 q 186 1008 191 1002 q 171 1014 182 1014 q 155 1008 159 1014 q 151 990 151 1002 l 151 978 q 141 957 151 965 q 120 948 131 948 l 71 948 q 50 957 59 948 q 41 978 41 965 l 41 987 q 52 1038 41 1015 q 81 1077 63 1060 q 123 1101 99 1093 q 174 1110 146 1110 q 224 1101 201 1110 q 262 1077 246 1093 q 287 1038 277 1060 q 296 987 296 1015 l 296 712 q 297 680 296 696 q 302 648 299 665 z "},"":{"ha":292,"x_min":43,"x_max":250,"o":"m 251 713 q 243 677 251 696 q 221 644 235 659 q 188 620 207 629 q 148 611 170 611 q 107 620 125 611 q 75 644 88 629 q 52 677 61 659 q 44 713 44 696 l 44 1009 q 52 1046 44 1027 q 75 1079 61 1064 q 107 1102 88 1093 q 148 1110 125 1110 q 188 1102 170 1110 q 221 1079 207 1093 q 243 1046 235 1064 q 251 1009 251 1027 l 251 713 m 168 1013 q 162 1024 168 1020 q 148 1027 157 1027 q 133 1024 139 1027 q 128 1013 128 1020 l 128 710 q 133 699 128 703 q 148 696 139 696 q 162 699 157 696 q 168 710 168 703 l 168 1013 z "},"":{"ha":775,"x_min":25,"x_max":732,"o":"m 732 186 q 715 104 732 142 q 669 41 699 67 q 598 0 639 15 q 511 -15 557 -15 q 357 44 418 -15 l 347 44 q 294 1 331 17 q 217 -15 257 -15 q 78 39 131 -15 q 25 186 25 93 l 25 232 q 43 314 25 276 q 94 384 61 351 q 177 447 128 417 q 292 517 226 478 l 294 517 l 294 626 q 288 657 294 647 q 260 667 281 667 q 234 657 242 667 q 226 626 226 647 l 226 557 l 47 557 l 47 622 q 65 706 47 668 q 111 770 82 743 q 180 811 140 797 q 267 825 219 825 q 332 811 299 825 q 382 776 365 797 l 392 776 q 444 811 410 797 q 511 825 478 825 q 598 811 557 825 q 669 770 639 797 q 715 706 699 743 q 732 622 732 668 l 732 382 l 467 382 l 467 185 q 480 155 467 165 q 511 144 493 144 q 544 155 532 144 q 557 185 557 165 l 557 297 l 732 297 l 732 186 m 557 626 q 544 657 557 647 q 511 667 532 667 q 480 657 493 667 q 467 626 467 647 l 467 483 l 557 483 l 557 626 m 294 356 l 285 356 q 226 308 247 328 q 206 256 206 289 l 206 192 q 249 144 206 144 q 294 192 294 144 l 294 356 z "},"":{"ha":525,"x_min":43,"x_max":482,"o":"m 307 626 q 295 657 307 647 q 264 667 283 667 q 230 657 243 667 q 217 626 217 647 l 217 185 q 230 155 217 165 q 264 144 243 144 q 295 155 283 144 q 307 185 307 165 l 307 626 m 426 851 q 464 835 450 851 q 478 800 478 819 q 476 789 478 792 l 460 715 q 482 622 482 674 l 482 186 q 465 104 482 142 q 417 41 447 67 q 347 0 386 15 q 264 -15 307 -15 q 164 7 207 -15 l 156 7 l 151 -6 q 135 -32 147 -22 q 106 -42 124 -42 l 94 -42 q 59 -26 74 -42 q 44 8 44 -11 q 44 22 44 17 l 65 97 q 49 140 56 117 q 43 186 43 164 l 43 622 q 60 706 43 668 q 106 770 76 743 q 176 811 136 797 q 264 825 217 825 q 360 806 311 825 l 368 806 l 372 817 q 387 842 375 832 q 415 851 399 851 l 426 851 z "},"":{"ha":547,"x_min":25,"x_max":467,"o":"m 185 786 q 200 824 185 808 q 236 839 215 839 l 307 839 q 342 824 328 839 q 357 786 357 808 l 357 672 q 342 634 357 649 q 307 619 328 619 l 236 619 q 200 634 215 619 q 185 672 185 649 l 185 786 m 25 -15 q 49 130 25 57 q 115 269 72 203 q 150 328 136 301 q 169 378 164 356 q 178 425 175 401 q 183 478 181 449 q 198 521 185 503 q 236 539 211 539 l 307 539 q 344 520 331 539 q 357 478 357 501 q 352 383 357 425 q 336 308 347 342 q 308 242 325 274 q 268 175 292 210 q 219 77 236 126 q 203 -15 203 28 q 236 -93 203 -93 q 272 -74 260 -93 q 293 -32 285 -56 q 313 12 301 -8 q 344 32 324 32 q 358 31 353 32 l 426 19 q 456 1 444 17 q 467 -35 467 -15 q 465 -49 467 -43 q 433 -157 451 -111 q 385 -231 414 -203 q 320 -273 357 -260 q 235 -286 283 -286 q 83 -219 140 -286 q 25 -15 25 -151 z "},"":{"ha":301,"x_min":56,"x_max":249,"o":"m 236 850 q 222 885 236 869 q 185 900 208 900 l 115 900 q 80 885 94 900 q 65 850 65 869 l 65 735 q 80 699 65 714 q 115 683 94 683 l 185 683 q 222 699 208 683 q 236 735 236 714 l 236 850 m 249 278 l 217 603 l 89 603 l 56 278 l 56 -235 q 70 -272 56 -258 q 106 -286 85 -286 l 197 -286 q 233 -272 218 -286 q 249 -235 249 -258 l 249 278 z "},"":{"ha":472,"x_min":60,"x_max":393,"o":"m 365 932 q 353 933 358 933 q 339 933 347 933 q 283 878 283 933 l 283 808 l 317 808 q 354 793 340 808 q 368 758 368 778 l 368 686 q 354 651 368 667 q 317 636 340 636 l 283 636 l 283 -235 q 269 -272 283 -257 q 232 -286 256 -286 l 165 -286 q 130 -272 144 -286 q 115 -235 115 -257 l 115 636 l 92 636 q 69 646 78 636 q 60 667 60 656 l 60 776 q 69 799 60 790 q 92 808 78 808 l 115 808 l 115 908 q 285 1099 115 1099 q 325 1097 307 1099 q 360 1092 343 1094 q 385 1075 376 1090 q 393 1044 393 1060 l 393 961 q 385 941 393 950 q 365 932 376 932 z "},"":{"ha":689,"x_min":40,"x_max":633,"o":"m 632 65 q 633 51 633 56 q 619 16 633 32 q 582 0 606 0 l 489 0 q 458 10 472 0 q 439 36 443 19 l 340 392 q 336 406 336 397 q 340 418 336 415 l 439 774 q 458 799 443 789 q 489 808 472 808 l 582 808 q 619 793 606 808 q 633 758 633 778 q 632 744 633 753 l 536 418 q 535 406 535 415 q 536 392 535 397 l 632 65 m 335 65 q 336 51 336 56 q 322 16 336 32 q 285 0 307 0 l 192 0 q 160 10 175 0 q 142 36 144 19 l 43 392 q 40 406 40 397 q 43 418 40 415 l 142 774 q 160 799 144 789 q 192 808 175 808 l 285 808 q 322 793 307 808 q 336 758 336 778 q 335 744 336 753 l 239 418 q 236 406 236 415 q 239 392 236 397 l 335 65 z "},"":{"ha":689,"x_min":56,"x_max":649,"o":"m 151 392 q 153 406 153 397 q 151 418 153 415 l 56 744 q 56 758 56 753 q 69 793 56 778 q 106 808 83 808 l 199 808 q 230 799 217 808 q 249 774 243 789 l 347 418 q 350 406 350 415 q 347 392 350 397 l 249 36 q 230 10 243 19 q 199 0 217 0 l 106 0 q 69 16 83 0 q 56 51 56 32 q 56 65 56 56 l 151 392 m 449 392 q 450 406 450 397 q 449 418 450 415 l 353 744 q 351 758 351 753 q 366 793 351 778 q 403 808 381 808 l 497 808 q 527 799 514 808 q 547 774 540 789 l 644 418 q 649 406 649 415 q 644 392 649 397 l 547 36 q 527 10 540 19 q 497 0 514 0 l 403 0 q 366 16 381 0 q 351 51 351 32 q 353 65 351 56 l 449 392 z "},"":{"ha":889,"x_min":51,"x_max":835,"o":"m 225 50 q 210 15 225 31 q 174 0 194 0 l 101 0 q 67 15 82 0 q 51 50 51 31 l 51 165 q 67 201 51 186 q 101 217 82 217 l 174 217 q 210 201 194 217 q 225 165 225 186 l 225 50 m 531 50 q 515 15 531 31 q 478 0 500 0 l 408 0 q 372 15 386 0 q 357 50 357 31 l 357 165 q 372 201 357 186 q 408 217 386 217 l 478 217 q 515 201 500 217 q 531 165 531 186 l 531 50 m 835 50 q 820 15 835 31 q 783 0 806 0 l 711 0 q 676 15 692 0 q 661 50 661 31 l 661 165 q 676 201 661 186 q 711 217 692 217 l 783 217 q 820 201 806 217 q 835 165 835 186 l 835 50 z "},"":{"ha":744,"x_min":43,"x_max":710,"o":"m 325 903 l 275 903 q 244 893 256 903 q 233 858 233 883 l 233 236 q 244 204 233 215 q 275 193 256 193 l 325 193 l 325 903 m 710 50 q 695 15 710 31 q 658 0 681 0 l 258 0 q 184 13 224 0 q 114 49 144 25 q 63 111 83 74 q 43 200 43 149 l 43 899 q 63 988 43 950 q 114 1051 83 1026 q 184 1087 144 1075 q 258 1099 224 1099 l 658 1099 q 695 1083 681 1099 q 710 1047 710 1068 l 710 968 q 695 933 710 947 q 658 918 681 918 l 515 918 l 515 667 l 592 667 q 629 653 615 667 q 643 615 643 639 l 643 524 q 629 487 643 501 q 592 472 615 472 l 515 472 l 515 194 l 658 194 q 695 180 681 194 q 710 143 710 165 l 710 50 z "},"":{"ha":789,"x_min":43,"x_max":744,"o":"m 569 626 q 558 657 569 647 q 526 667 547 667 q 494 657 507 667 q 482 626 482 647 l 482 483 l 569 483 l 569 626 m 307 626 q 294 657 307 647 q 261 667 282 667 q 230 657 243 667 q 217 626 217 647 l 217 185 q 230 155 217 165 q 261 144 243 144 q 294 155 282 144 q 307 185 307 165 l 307 626 m 744 186 q 727 104 744 142 q 680 41 710 67 q 610 0 650 15 q 526 -15 569 -15 q 455 -1 490 -15 q 397 35 419 14 l 389 35 q 332 -1 367 14 q 261 -15 297 -15 q 176 0 217 -15 q 106 41 136 15 q 60 104 76 67 q 43 186 43 142 l 43 622 q 60 706 43 668 q 106 770 76 743 q 176 811 136 797 q 261 825 217 825 q 331 812 297 825 q 390 775 365 799 l 397 775 q 457 812 424 799 q 526 825 490 825 q 610 811 569 825 q 680 770 650 797 q 727 706 710 743 q 744 622 744 668 l 744 432 q 730 397 744 411 q 693 382 715 382 l 482 382 l 482 185 q 494 155 482 165 q 526 144 507 144 q 558 155 547 144 q 569 185 569 165 l 569 244 q 585 282 569 267 q 619 297 600 297 l 693 297 q 730 282 715 297 q 744 244 744 267 l 744 186 z "},"":{"ha":718,"x_min":49,"x_max":667,"o":"m 667 461 q 653 426 667 442 q 615 411 639 411 l 100 411 q 63 426 78 411 q 49 461 49 442 l 49 556 q 63 592 49 576 q 100 607 78 607 l 615 607 q 653 592 639 607 q 667 556 667 576 l 667 461 z "},"":{"ha":1347,"x_min":49,"x_max":1294,"o":"m 1294 461 q 1281 426 1294 442 q 1243 411 1267 411 l 100 411 q 63 426 78 411 q 49 461 49 442 l 49 556 q 63 592 49 576 q 100 607 78 607 l 1243 607 q 1281 592 1267 607 q 1294 556 1294 576 l 1294 461 z "},"":{"ha":517,"x_min":67,"x_max":478,"o":"m 461 806 q 446 772 460 785 q 411 758 432 758 l 357 758 q 322 774 336 758 q 307 808 307 789 q 308 815 307 811 q 310 819 308 818 l 385 1090 q 415 1111 390 1111 l 447 1111 q 469 1102 460 1111 q 478 1078 478 1093 l 461 806 m 222 806 q 206 772 219 785 q 172 758 192 758 l 117 758 q 82 774 97 758 q 67 808 67 789 q 67 815 67 811 q 69 819 68 818 l 144 1090 q 175 1111 150 1111 l 207 1111 q 229 1102 219 1111 q 239 1078 239 1093 l 222 806 z "},"":{"ha":517,"x_min":39,"x_max":450,"o":"m 56 1050 q 72 1084 58 1069 q 106 1099 86 1099 l 160 1099 q 195 1083 181 1099 q 210 1047 210 1067 q 209 1041 210 1043 q 208 1033 208 1039 l 135 767 q 103 743 128 743 l 72 743 q 49 752 58 743 q 39 776 39 761 l 56 1050 m 297 1050 q 313 1084 299 1069 q 347 1099 326 1099 l 400 1099 q 435 1083 419 1099 q 450 1047 450 1067 q 449 1041 450 1043 q 449 1033 449 1039 l 375 767 q 343 743 368 743 l 311 743 q 288 752 299 743 q 278 776 278 761 l 297 1050 z "},"":{"ha":276,"x_min":60,"x_max":232,"o":"m 232 1078 l 215 803 q 197 770 211 783 q 164 757 183 757 l 110 757 q 74 773 89 757 q 60 808 60 789 q 60 813 60 810 q 61 819 60 817 l 135 1089 q 167 1110 142 1110 l 199 1110 q 222 1101 211 1110 q 232 1078 232 1092 z "},"":{"ha":276,"x_min":36,"x_max":208,"o":"m 56 1050 q 70 1084 56 1069 q 106 1099 85 1099 l 157 1099 q 193 1083 178 1099 q 208 1047 208 1067 q 208 1041 208 1043 q 206 1033 207 1039 l 132 767 q 100 743 125 743 l 68 743 q 46 752 56 743 q 36 776 36 761 l 56 1050 z "},"":{"ha":844,"x_min":43,"x_max":801,"o":"m 751 1099 q 788 1083 775 1099 q 801 1049 801 1067 q 794 1019 801 1032 l 208 25 q 164 0 192 0 l 94 0 q 58 16 72 0 q 43 51 43 32 q 49 76 43 65 l 639 1072 q 681 1099 651 1099 l 751 1099 z "},"":{"ha":386,"x_min":40,"x_max":336,"o":"m 335 65 q 336 51 336 56 q 322 16 336 32 q 285 0 307 0 l 192 0 q 160 10 175 0 q 142 36 144 19 l 43 392 q 40 406 40 397 q 43 418 40 415 l 142 774 q 160 799 144 789 q 192 808 175 808 l 285 808 q 322 793 307 808 q 336 758 336 778 q 335 744 336 753 l 239 418 q 236 406 236 415 q 239 392 236 397 l 335 65 z "},"":{"ha":389,"x_min":53,"x_max":349,"o":"m 54 65 q 53 51 53 56 q 67 16 53 32 q 104 0 82 0 l 197 0 q 229 10 214 0 q 247 36 244 19 l 346 392 q 349 406 349 397 q 346 418 349 415 l 247 774 q 229 799 244 789 q 197 808 214 808 l 104 808 q 67 793 82 808 q 53 758 53 778 q 54 744 53 753 l 150 418 q 153 406 153 415 q 150 392 153 397 l 54 65 z "},"":{"ha":542,"x_min":25,"x_max":507,"o":"m 507 767 q 492 732 507 747 q 456 717 476 717 l 351 717 l 351 382 l 443 382 q 480 367 465 382 q 494 331 494 351 l 494 244 q 480 210 494 225 q 443 194 465 194 l 351 194 l 351 50 q 338 15 351 31 q 300 0 324 0 l 231 0 q 194 15 208 0 q 181 50 181 31 l 181 194 l 76 194 q 40 210 56 194 q 25 244 25 225 l 25 331 q 40 367 25 351 q 76 382 56 382 l 181 382 l 181 717 l 89 717 q 51 732 67 717 q 36 767 36 747 l 36 851 q 51 888 36 874 q 89 903 67 903 l 181 903 l 181 1047 q 194 1083 181 1068 q 231 1099 208 1099 l 300 1099 q 338 1083 324 1099 q 351 1047 351 1068 l 351 903 l 456 903 q 492 888 476 903 q 507 851 507 874 l 507 767 z "},"":{"ha":276,"x_min":51,"x_max":225,"o":"m 225 531 q 210 496 225 511 q 174 481 194 481 l 101 481 q 67 496 82 481 q 51 531 51 511 l 51 646 q 67 682 51 667 q 101 697 82 697 l 174 697 q 210 682 194 697 q 225 646 225 667 l 225 531 z "},"":{"ha":276,"x_min":44,"x_max":225,"o":"m 222 153 l 150 -115 q 118 -139 144 -139 l 76 -139 q 55 -129 65 -139 q 44 -107 44 -119 l 61 168 q 78 203 64 190 q 111 217 93 217 l 174 217 q 210 201 194 217 q 225 167 225 186 q 222 153 225 164 z "},"":{"ha":517,"x_min":42,"x_max":460,"o":"m 217 153 l 144 -115 q 115 -139 140 -139 l 72 -139 q 51 -129 60 -139 q 42 -107 42 -119 l 57 168 q 74 203 58 190 q 107 217 89 217 l 168 217 q 205 201 190 217 q 219 167 219 186 q 217 153 219 164 m 457 153 l 386 -115 q 356 -139 381 -139 l 311 -139 q 291 -129 300 -139 q 282 -107 282 -119 l 297 168 q 313 203 299 190 q 347 217 328 217 l 408 217 q 445 201 431 217 q 460 167 460 186 q 457 153 460 164 z "},"":{"ha":1710,"x_min":43,"x_max":1667,"o":"m 1667 186 q 1649 104 1667 142 q 1602 41 1632 67 q 1532 0 1572 15 q 1449 -15 1492 -15 q 1363 0 1403 -15 q 1294 41 1324 15 q 1247 104 1264 67 q 1231 186 1231 142 l 1231 410 q 1247 494 1231 457 q 1294 557 1264 531 q 1363 597 1324 583 q 1449 611 1403 611 q 1532 597 1492 611 q 1602 557 1572 583 q 1649 494 1632 531 q 1667 410 1667 457 l 1667 186 m 1143 186 q 1126 104 1143 142 q 1080 41 1110 67 q 1010 0 1050 15 q 926 -15 969 -15 q 842 0 882 -15 q 772 41 801 15 q 725 104 742 67 q 708 186 708 142 l 708 410 q 725 494 708 457 q 772 557 742 531 q 842 597 801 583 q 926 611 882 611 q 1010 597 969 611 q 1080 557 1050 583 q 1126 494 1110 531 q 1143 410 1143 457 l 1143 186 m 482 689 q 465 604 482 642 q 417 541 447 567 q 347 501 386 515 q 261 486 307 486 q 176 501 217 486 q 106 541 136 515 q 60 604 76 567 q 43 689 43 642 l 43 910 q 60 994 43 957 q 106 1057 76 1031 q 176 1097 136 1083 q 261 1111 217 1111 q 347 1097 307 1111 q 417 1057 386 1083 q 465 994 447 1031 q 482 910 482 957 l 482 689 m 1492 414 q 1479 443 1492 433 q 1449 453 1467 453 q 1415 443 1428 453 q 1403 414 1403 433 l 1403 185 q 1415 155 1403 165 q 1449 144 1428 144 q 1479 155 1467 144 q 1492 185 1492 165 l 1492 414 m 969 414 q 957 443 969 433 q 926 453 944 453 q 894 443 907 453 q 882 414 882 433 l 882 185 q 894 155 882 165 q 926 144 907 144 q 957 155 944 144 q 969 185 969 165 l 969 414 m 307 914 q 294 944 307 935 q 261 953 282 953 q 230 944 243 953 q 217 914 217 935 l 217 685 q 230 655 217 665 q 261 644 243 644 q 294 655 282 644 q 307 685 307 665 l 307 914 m 858 1099 q 893 1083 878 1099 q 908 1049 908 1067 q 903 1026 908 1035 l 440 31 q 393 0 426 0 l 336 0 q 301 16 315 0 q 286 50 286 32 q 290 72 286 64 l 753 1068 q 799 1099 767 1099 l 858 1099 z "},"":{"ha":276,"x_min":51,"x_max":225,"o":"m 225 50 q 210 15 225 31 q 174 0 194 0 l 101 0 q 67 15 82 0 q 51 50 51 31 l 51 758 q 67 794 51 781 q 101 808 82 808 l 174 808 q 210 794 194 808 q 225 758 225 781 l 225 50 z "},"":{"ha":543,"x_min":53,"x_max":497,"o":"m 169 1074 q 190 1091 181 1083 q 215 1099 200 1099 l 335 1099 q 356 1092 347 1099 q 376 1074 365 1086 l 490 964 q 497 947 497 958 q 487 926 497 935 q 465 917 476 917 l 393 917 q 368 928 381 917 l 278 1019 l 269 1019 l 181 928 q 156 917 168 917 l 83 917 q 61 926 69 917 q 53 949 53 935 q 54 955 53 951 q 57 964 56 958 l 169 1074 z "},"":{"ha":574,"x_min":74,"x_max":510,"o":"m 510 1058 q 386 911 497 911 q 276 951 335 911 q 225 975 240 975 q 193 966 203 975 q 178 946 183 957 q 166 926 172 935 q 144 917 160 917 l 100 917 q 80 926 86 917 q 74 950 74 936 l 74 956 q 197 1100 85 1100 q 251 1090 225 1100 q 308 1060 278 1081 q 338 1044 325 1050 q 360 1039 351 1039 q 390 1048 381 1039 q 405 1069 399 1057 q 418 1090 411 1081 q 436 1099 425 1099 l 483 1099 q 503 1088 497 1099 q 510 1064 510 1078 l 510 1058 z "},"":{"ha":439,"x_min":64,"x_max":376,"o":"m 376 967 q 362 932 376 947 q 325 917 347 917 l 114 917 q 78 932 93 917 q 64 967 64 947 l 64 989 q 78 1024 64 1008 q 114 1039 93 1039 l 325 1039 q 362 1024 347 1039 q 376 989 376 1008 l 376 967 z "},"":{"ha":476,"x_min":56,"x_max":422,"o":"m 236 1024 q 294 1031 269 1024 q 331 1067 319 1039 q 344 1090 336 1081 q 367 1100 351 1100 l 392 1100 q 414 1090 406 1100 q 422 1065 422 1081 q 358 952 410 990 q 236 914 307 914 q 117 953 168 914 q 56 1068 67 992 q 64 1090 56 1081 q 85 1100 72 1100 l 110 1100 q 133 1090 125 1100 q 147 1067 142 1081 q 181 1031 157 1039 q 236 1024 206 1024 z "},"":{"ha":276,"x_min":51,"x_max":225,"o":"m 225 965 q 210 930 225 944 q 174 915 194 915 l 101 915 q 67 930 82 915 q 51 965 51 944 l 51 1035 q 67 1072 51 1057 q 101 1086 82 1086 l 174 1086 q 210 1072 194 1086 q 225 1035 225 1057 l 225 965 z "},"":{"ha":344,"x_min":51,"x_max":294,"o":"m 108 1035 q 126 989 108 1008 q 174 969 144 969 q 218 989 200 969 q 236 1035 236 1008 q 218 1081 236 1061 q 174 1100 200 1100 q 126 1081 144 1100 q 108 1035 108 1061 m 51 1035 q 62 1083 51 1060 q 89 1122 72 1106 q 126 1149 106 1139 q 174 1158 147 1158 q 220 1149 197 1158 q 260 1122 243 1139 q 285 1083 276 1106 q 294 1035 294 1060 q 285 988 294 1008 q 260 950 276 967 q 220 924 243 933 q 174 914 197 914 q 126 924 147 914 q 89 950 106 933 q 62 988 72 967 q 51 1035 51 1008 z "},"":{"ha":264,"x_min":56,"x_max":217,"o":"m 217 -194 q 195 -261 217 -236 q 135 -286 174 -286 q 78 -261 100 -286 q 56 -194 56 -236 q 62 -175 56 -183 q 82 -167 68 -167 l 86 -167 q 107 -175 100 -167 q 114 -194 114 -183 l 114 -215 q 120 -228 114 -224 q 135 -232 126 -232 q 150 -228 143 -232 q 157 -215 157 -224 l 157 -111 q 150 -100 157 -106 q 135 -94 143 -94 q 117 -106 122 -94 q 108 -111 115 -111 l 82 -110 q 62 -101 68 -110 q 56 -81 56 -93 l 60 25 l 122 25 l 117 -53 l 125 -53 q 145 -44 135 -44 q 165 -43 156 -43 q 201 -59 186 -43 q 217 -106 217 -75 l 217 -194 z "},"":{"ha":536,"x_min":18,"x_max":503,"o":"m 265 728 l 253 728 l 215 367 l 289 367 l 265 728 m 503 51 q 489 15 503 31 q 453 0 475 0 l 360 0 q 326 13 340 0 q 308 47 311 26 l 300 172 l 197 172 l 185 44 q 167 13 182 25 q 135 0 153 0 l 68 0 q 33 15 49 0 q 18 51 18 31 l 18 57 l 140 1053 q 157 1085 142 1072 q 192 1099 172 1099 l 328 1099 q 363 1085 349 1099 q 381 1053 376 1072 l 503 51 m 360 1222 q 357 1197 365 1207 q 326 1188 349 1188 l 278 1188 q 249 1207 265 1188 l 160 1300 q 150 1329 150 1313 q 163 1358 150 1346 q 208 1371 176 1371 l 261 1371 q 290 1365 282 1371 q 303 1346 299 1358 l 360 1222 z "},"":{"ha":536,"x_min":18,"x_max":503,"o":"m 265 728 l 253 728 l 215 367 l 289 367 l 265 728 m 503 51 q 489 15 503 31 q 453 0 475 0 l 360 0 q 326 13 340 0 q 308 47 311 26 l 300 172 l 197 172 l 185 44 q 167 13 182 25 q 135 0 153 0 l 68 0 q 33 15 49 0 q 18 51 18 31 l 18 57 l 140 1053 q 157 1085 142 1072 q 192 1099 172 1099 l 328 1099 q 363 1085 349 1099 q 381 1053 376 1072 l 503 51 m 236 1346 q 251 1365 243 1358 q 278 1371 258 1371 l 333 1371 q 378 1358 365 1371 q 390 1329 390 1346 q 381 1300 390 1313 l 293 1207 q 264 1188 275 1188 l 215 1188 q 184 1197 193 1188 q 182 1222 175 1207 l 236 1346 z "},"":{"ha":536,"x_min":18,"x_max":503,"o":"m 265 728 l 253 728 l 215 367 l 289 367 l 265 728 m 503 51 q 489 15 503 31 q 453 0 475 0 l 360 0 q 326 13 340 0 q 308 47 311 26 l 300 172 l 197 172 l 185 44 q 167 13 182 25 q 135 0 153 0 l 68 0 q 33 15 49 0 q 18 51 18 31 l 18 57 l 140 1053 q 157 1085 142 1072 q 192 1099 172 1099 l 328 1099 q 363 1085 349 1099 q 381 1053 376 1072 l 503 51 m 165 1346 q 186 1363 176 1356 q 211 1371 196 1371 l 331 1371 q 352 1365 343 1371 q 372 1346 361 1358 l 486 1236 q 493 1219 493 1231 q 483 1198 493 1207 q 461 1189 472 1189 l 389 1189 q 364 1200 376 1189 l 274 1292 l 265 1292 l 176 1200 q 151 1189 164 1189 l 79 1189 q 57 1198 65 1189 q 49 1221 49 1207 q 50 1227 49 1224 q 53 1236 51 1231 l 165 1346 z "},"":{"ha":536,"x_min":18,"x_max":503,"o":"m 265 728 l 253 728 l 215 367 l 289 367 l 265 728 m 503 51 q 489 15 503 31 q 453 0 475 0 l 360 0 q 326 13 340 0 q 308 47 311 26 l 300 172 l 197 172 l 185 44 q 167 13 182 25 q 135 0 153 0 l 68 0 q 33 15 49 0 q 18 51 18 31 l 18 57 l 140 1053 q 157 1085 142 1072 q 192 1099 172 1099 l 328 1099 q 363 1085 349 1099 q 381 1053 376 1072 l 503 51 m 486 1331 q 363 1183 474 1183 q 253 1224 311 1183 q 201 1247 217 1247 q 169 1238 179 1247 q 154 1218 160 1229 q 142 1198 149 1207 q 121 1189 136 1189 l 76 1189 q 56 1199 63 1189 q 50 1222 50 1208 l 50 1228 q 174 1372 61 1372 q 228 1363 201 1372 q 285 1332 254 1353 q 315 1317 301 1322 q 336 1311 328 1311 q 366 1320 357 1311 q 381 1341 375 1329 q 394 1362 388 1353 q 413 1371 401 1371 l 460 1371 q 480 1360 474 1371 q 486 1336 486 1350 l 486 1331 z "},"":{"ha":536,"x_min":18,"x_max":503,"o":"m 265 728 l 253 728 l 215 367 l 289 367 l 265 728 m 503 51 q 489 15 503 31 q 453 0 475 0 l 360 0 q 326 13 340 0 q 308 47 311 26 l 300 172 l 197 172 l 185 44 q 167 13 182 25 q 135 0 153 0 l 68 0 q 33 15 49 0 q 18 51 18 31 l 18 57 l 140 1053 q 157 1085 142 1072 q 192 1099 172 1099 l 328 1099 q 363 1085 349 1099 q 381 1053 376 1072 l 503 51 m 496 1238 q 481 1202 496 1217 q 444 1188 467 1188 l 374 1188 q 338 1202 353 1188 q 324 1238 324 1217 l 324 1319 q 338 1356 324 1340 q 374 1371 353 1371 l 444 1371 q 481 1356 467 1371 q 496 1319 496 1340 l 496 1238 m 218 1238 q 203 1202 218 1217 q 167 1188 188 1188 l 96 1188 q 60 1202 75 1188 q 44 1238 44 1217 l 44 1319 q 60 1356 44 1340 q 96 1371 75 1371 l 167 1371 q 203 1356 188 1371 q 218 1319 218 1340 l 218 1238 z "},"":{"ha":536,"x_min":18,"x_max":503,"o":"m 265 728 l 253 728 l 215 367 l 289 367 l 265 728 m 503 51 q 489 15 503 31 q 453 0 475 0 l 360 0 q 326 13 340 0 q 308 47 311 26 l 300 172 l 197 172 l 185 44 q 167 13 182 25 q 135 0 153 0 l 68 0 q 33 15 49 0 q 18 51 18 31 l 18 57 l 140 1053 q 157 1085 142 1072 q 192 1099 172 1099 l 328 1099 q 363 1085 349 1099 q 381 1053 376 1072 l 503 51 m 203 1307 q 221 1261 203 1281 q 268 1242 239 1242 q 313 1261 294 1242 q 331 1307 331 1281 q 313 1353 331 1333 q 268 1372 294 1372 q 221 1353 239 1372 q 203 1307 203 1333 m 146 1307 q 156 1355 146 1332 q 183 1394 167 1378 q 221 1421 200 1411 q 268 1431 242 1431 q 315 1421 292 1431 q 354 1394 338 1411 q 380 1355 371 1378 q 389 1307 389 1332 q 380 1260 389 1281 q 354 1222 371 1239 q 315 1196 338 1206 q 268 1186 292 1186 q 221 1196 242 1186 q 183 1222 200 1206 q 156 1260 167 1239 q 146 1307 146 1281 z "},"":{"ha":557,"x_min":43,"x_max":514,"o":"m 514 201 q 495 122 514 160 q 446 53 476 83 q 372 3 415 22 q 281 -15 328 -15 q 188 3 232 -15 q 113 53 144 22 q 63 122 82 83 q 43 201 43 160 l 43 897 q 63 977 43 939 q 113 1046 82 1015 q 188 1094 144 1076 q 281 1111 232 1111 q 372 1094 328 1111 q 446 1046 415 1076 q 495 977 476 1015 q 514 897 514 939 l 514 758 q 499 722 514 736 q 461 707 483 707 l 375 707 q 340 722 356 707 q 325 758 325 736 l 325 890 q 313 915 325 907 q 281 924 300 924 q 249 915 261 924 q 236 890 236 907 l 236 207 q 249 183 236 192 q 281 175 261 175 q 313 183 300 175 q 325 207 325 192 l 325 340 q 340 376 325 361 q 375 392 356 392 l 461 392 q 499 376 483 392 q 514 340 514 361 l 514 201 m 365 -194 q 344 -261 365 -236 q 283 -286 322 -286 q 226 -261 249 -286 q 204 -194 204 -236 q 210 -175 204 -183 q 231 -167 217 -167 l 235 -167 q 256 -175 249 -167 q 263 -194 263 -183 l 263 -215 q 269 -228 263 -224 q 283 -232 275 -232 q 299 -228 292 -232 q 306 -215 306 -224 l 306 -111 q 299 -100 306 -106 q 283 -94 292 -94 q 265 -106 271 -94 q 257 -111 264 -111 l 231 -110 q 210 -101 217 -110 q 204 -81 204 -93 l 208 25 l 271 25 l 265 -53 l 274 -53 q 294 -44 283 -44 q 314 -43 304 -43 q 350 -59 335 -43 q 365 -106 365 -75 l 365 -194 z "},"":{"ha":469,"x_min":51,"x_max":436,"o":"m 436 50 q 422 15 436 31 q 385 0 407 0 l 101 0 q 67 15 82 0 q 51 50 51 31 l 51 1047 q 67 1083 51 1068 q 101 1099 82 1099 l 385 1099 q 422 1083 407 1099 q 436 1047 436 1068 l 436 968 q 422 933 436 947 q 385 918 407 918 l 242 918 l 242 667 l 317 667 q 354 653 340 667 q 368 615 368 639 l 368 524 q 354 487 368 501 q 317 472 340 472 l 242 472 l 242 194 l 385 194 q 422 180 407 194 q 436 143 436 165 l 436 50 m 326 1222 q 324 1197 332 1207 q 293 1188 315 1188 l 244 1188 q 215 1207 232 1188 l 126 1300 q 117 1329 117 1313 q 130 1358 117 1346 q 175 1371 143 1371 l 228 1371 q 257 1365 249 1371 q 269 1346 265 1358 l 326 1222 z "},"":{"ha":469,"x_min":51,"x_max":436,"o":"m 436 50 q 422 15 436 31 q 385 0 407 0 l 101 0 q 67 15 82 0 q 51 50 51 31 l 51 1047 q 67 1083 51 1068 q 101 1099 82 1099 l 385 1099 q 422 1083 407 1099 q 436 1047 436 1068 l 436 968 q 422 933 436 947 q 385 918 407 918 l 242 918 l 242 667 l 317 667 q 354 653 340 667 q 368 615 368 639 l 368 524 q 354 487 368 501 q 317 472 340 472 l 242 472 l 242 194 l 385 194 q 422 180 407 194 q 436 143 436 165 l 436 50 m 203 1346 q 217 1365 210 1358 q 244 1371 225 1371 l 300 1371 q 344 1358 332 1371 q 357 1329 357 1346 q 347 1300 357 1313 l 260 1207 q 231 1188 242 1188 l 182 1188 q 151 1197 160 1188 q 149 1222 142 1207 l 203 1346 z "},"":{"ha":469,"x_min":15,"x_max":460,"o":"m 436 50 q 422 15 436 31 q 385 0 407 0 l 101 0 q 67 15 82 0 q 51 50 51 31 l 51 1047 q 67 1083 51 1068 q 101 1099 82 1099 l 385 1099 q 422 1083 407 1099 q 436 1047 436 1068 l 436 968 q 422 933 436 947 q 385 918 407 918 l 242 918 l 242 667 l 317 667 q 354 653 340 667 q 368 615 368 639 l 368 524 q 354 487 368 501 q 317 472 340 472 l 242 472 l 242 194 l 385 194 q 422 180 407 194 q 436 143 436 165 l 436 50 m 132 1346 q 153 1363 143 1356 q 178 1371 163 1371 l 297 1371 q 319 1365 310 1371 q 339 1346 328 1358 l 453 1236 q 460 1219 460 1231 q 449 1198 460 1207 q 428 1189 439 1189 l 356 1189 q 331 1200 343 1189 l 240 1292 l 232 1292 l 143 1200 q 118 1189 131 1189 l 46 1189 q 24 1198 32 1189 q 15 1221 15 1207 q 17 1227 15 1224 q 19 1236 18 1231 l 132 1346 z "},"":{"ha":469,"x_min":11,"x_max":463,"o":"m 436 50 q 422 15 436 31 q 385 0 407 0 l 101 0 q 67 15 82 0 q 51 50 51 31 l 51 1047 q 67 1083 51 1068 q 101 1099 82 1099 l 385 1099 q 422 1083 407 1099 q 436 1047 436 1068 l 436 968 q 422 933 436 947 q 385 918 407 918 l 242 918 l 242 667 l 317 667 q 354 653 340 667 q 368 615 368 639 l 368 524 q 354 487 368 501 q 317 472 340 472 l 242 472 l 242 194 l 385 194 q 422 180 407 194 q 436 143 436 165 l 436 50 m 463 1238 q 448 1202 463 1217 q 411 1188 433 1188 l 340 1188 q 305 1202 319 1188 q 290 1238 290 1217 l 290 1319 q 305 1356 290 1340 q 340 1371 319 1371 l 411 1371 q 448 1356 433 1371 q 463 1319 463 1340 l 463 1238 m 185 1238 q 169 1202 185 1217 q 133 1188 154 1188 l 63 1188 q 26 1202 42 1188 q 11 1238 11 1217 l 11 1319 q 26 1356 11 1340 q 63 1371 42 1371 l 133 1371 q 169 1356 154 1371 q 185 1319 185 1340 l 185 1238 z "},"":{"ha":310,"x_min":36,"x_max":251,"o":"m 249 50 q 234 15 249 31 q 197 0 219 0 l 110 0 q 74 15 89 0 q 60 50 60 31 l 60 1047 q 74 1083 60 1068 q 110 1099 89 1099 l 197 1099 q 234 1083 219 1099 q 249 1047 249 1068 l 249 50 m 246 1222 q 243 1197 251 1207 q 213 1188 235 1188 l 164 1188 q 135 1207 151 1188 l 46 1300 q 36 1329 36 1313 q 49 1358 36 1346 q 94 1371 63 1371 l 147 1371 q 176 1365 168 1371 q 189 1346 185 1358 l 246 1222 z "},"":{"ha":310,"x_min":60,"x_max":276,"o":"m 249 50 q 234 15 249 31 q 197 0 219 0 l 110 0 q 74 15 89 0 q 60 50 60 31 l 60 1047 q 74 1083 60 1068 q 110 1099 89 1099 l 197 1099 q 234 1083 219 1099 q 249 1047 249 1068 l 249 50 m 122 1346 q 137 1365 129 1358 q 164 1371 144 1371 l 219 1371 q 264 1358 251 1371 q 276 1329 276 1346 q 267 1300 276 1313 l 179 1207 q 150 1188 161 1188 l 101 1188 q 70 1197 79 1188 q 68 1222 61 1207 l 122 1346 z "},"":{"ha":310,"x_min":-64,"x_max":381,"o":"m 249 50 q 234 15 249 31 q 197 0 219 0 l 110 0 q 74 15 89 0 q 60 50 60 31 l 60 1047 q 74 1083 60 1068 q 110 1099 89 1099 l 197 1099 q 234 1083 219 1099 q 249 1047 249 1068 l 249 50 m 53 1346 q 74 1363 64 1356 q 99 1371 83 1371 l 218 1371 q 240 1365 231 1371 q 260 1346 249 1358 l 374 1236 q 381 1219 381 1231 q 370 1198 381 1207 q 349 1189 360 1189 l 276 1189 q 251 1200 264 1189 l 161 1292 l 153 1292 l 64 1200 q 39 1189 51 1189 l -33 1189 q -56 1198 -47 1189 q -64 1221 -64 1207 q -62 1227 -64 1224 q -60 1236 -61 1231 l 53 1346 z "},"":{"ha":310,"x_min":-69,"x_max":382,"o":"m 249 50 q 234 15 249 31 q 197 0 219 0 l 110 0 q 74 15 89 0 q 60 50 60 31 l 60 1047 q 74 1083 60 1068 q 110 1099 89 1099 l 197 1099 q 234 1083 219 1099 q 249 1047 249 1068 l 249 50 m 382 1238 q 367 1202 382 1217 q 331 1188 353 1188 l 260 1188 q 224 1202 239 1188 q 210 1238 210 1217 l 210 1319 q 224 1356 210 1340 q 260 1371 239 1371 l 331 1371 q 367 1356 353 1371 q 382 1319 382 1340 l 382 1238 m 104 1238 q 89 1202 104 1217 q 53 1188 74 1188 l -18 1188 q -54 1202 -39 1188 q -69 1238 -69 1217 l -69 1319 q -54 1356 -69 1340 q -18 1371 -39 1371 l 53 1371 q 89 1356 74 1371 q 104 1319 104 1340 l 104 1238 z "},"":{"ha":606,"x_min":51,"x_max":556,"o":"m 556 50 q 540 15 556 31 q 503 0 525 0 l 426 0 q 396 10 408 0 q 376 36 383 19 l 219 557 l 208 557 l 208 50 q 193 15 208 31 q 157 0 178 0 l 101 0 q 67 15 82 0 q 51 50 51 31 l 51 1047 q 67 1083 51 1068 q 101 1099 82 1099 l 185 1099 q 215 1088 203 1099 q 233 1060 228 1078 l 386 528 l 397 528 l 397 1047 q 412 1083 397 1068 q 447 1099 426 1099 l 503 1099 q 540 1083 525 1099 q 556 1047 556 1068 l 556 50 m 519 1332 q 396 1185 507 1185 q 286 1225 344 1185 q 235 1249 250 1249 q 203 1240 213 1249 q 188 1219 193 1231 q 176 1199 182 1208 q 154 1190 169 1190 l 110 1190 q 90 1200 96 1190 q 83 1224 83 1210 l 83 1229 q 207 1374 94 1374 q 261 1364 235 1374 q 318 1333 288 1354 q 348 1318 335 1324 q 369 1313 361 1313 q 399 1322 390 1313 q 415 1342 408 1331 q 428 1363 421 1354 q 446 1372 435 1372 l 493 1372 q 513 1362 507 1372 q 519 1338 519 1351 l 519 1332 z "},"":{"ha":553,"x_min":43,"x_max":510,"o":"m 510 215 q 492 133 510 175 q 442 58 474 92 q 368 5 410 25 q 276 -15 326 -15 q 185 5 226 -15 q 112 58 143 25 q 62 133 81 92 q 43 215 43 175 l 43 883 q 62 965 43 924 q 112 1040 81 1007 q 185 1092 143 1072 q 276 1111 226 1111 q 368 1092 326 1111 q 442 1040 410 1072 q 492 965 474 1007 q 510 883 510 924 l 510 215 m 322 890 q 310 915 322 907 q 276 924 297 924 q 244 915 257 924 q 232 890 232 907 l 232 207 q 244 183 232 192 q 276 175 257 175 q 310 183 297 175 q 322 207 322 192 l 322 890 m 367 1222 q 364 1197 372 1207 q 333 1188 356 1188 l 285 1188 q 256 1207 272 1188 l 167 1300 q 157 1329 157 1313 q 170 1358 157 1346 q 215 1371 183 1371 l 268 1371 q 297 1365 289 1371 q 310 1346 306 1358 l 367 1222 z "},"":{"ha":553,"x_min":43,"x_max":510,"o":"m 510 215 q 492 133 510 175 q 442 58 474 92 q 368 5 410 25 q 276 -15 326 -15 q 185 5 226 -15 q 112 58 143 25 q 62 133 81 92 q 43 215 43 175 l 43 883 q 62 965 43 924 q 112 1040 81 1007 q 185 1092 143 1072 q 276 1111 226 1111 q 368 1092 326 1111 q 442 1040 410 1072 q 492 965 474 1007 q 510 883 510 924 l 510 215 m 322 890 q 310 915 322 907 q 276 924 297 924 q 244 915 257 924 q 232 890 232 907 l 232 207 q 244 183 232 192 q 276 175 257 175 q 310 183 297 175 q 322 207 322 192 l 322 890 m 243 1346 q 258 1365 250 1358 q 285 1371 265 1371 l 340 1371 q 385 1358 372 1371 q 397 1329 397 1346 q 388 1300 397 1313 l 300 1207 q 271 1188 282 1188 l 222 1188 q 191 1197 200 1188 q 189 1222 182 1207 l 243 1346 z "},"":{"ha":553,"x_min":43,"x_max":510,"o":"m 510 215 q 492 133 510 175 q 442 58 474 92 q 368 5 410 25 q 276 -15 326 -15 q 185 5 226 -15 q 112 58 143 25 q 62 133 81 92 q 43 215 43 175 l 43 883 q 62 965 43 924 q 112 1040 81 1007 q 185 1092 143 1072 q 276 1111 226 1111 q 368 1092 326 1111 q 442 1040 410 1072 q 492 965 474 1007 q 510 883 510 924 l 510 215 m 322 890 q 310 915 322 907 q 276 924 297 924 q 244 915 257 924 q 232 890 232 907 l 232 207 q 244 183 232 192 q 276 175 257 175 q 310 183 297 175 q 322 207 322 192 l 322 890 m 172 1346 q 193 1363 183 1356 q 218 1371 203 1371 l 338 1371 q 359 1365 350 1371 q 379 1346 368 1358 l 493 1236 q 500 1219 500 1231 q 490 1198 500 1207 q 468 1189 479 1189 l 396 1189 q 371 1200 383 1189 l 281 1292 l 272 1292 l 183 1200 q 158 1189 171 1189 l 86 1189 q 64 1198 72 1189 q 56 1221 56 1207 q 57 1227 56 1224 q 60 1236 58 1231 l 172 1346 z "},"":{"ha":553,"x_min":43,"x_max":510,"o":"m 510 215 q 492 133 510 175 q 442 58 474 92 q 368 5 410 25 q 276 -15 326 -15 q 185 5 226 -15 q 112 58 143 25 q 62 133 81 92 q 43 215 43 175 l 43 883 q 62 965 43 924 q 112 1040 81 1007 q 185 1092 143 1072 q 276 1111 226 1111 q 368 1092 326 1111 q 442 1040 410 1072 q 492 965 474 1007 q 510 883 510 924 l 510 215 m 322 890 q 310 915 322 907 q 276 924 297 924 q 244 915 257 924 q 232 890 232 907 l 232 207 q 244 183 232 192 q 276 175 257 175 q 310 183 297 175 q 322 207 322 192 l 322 890 m 496 1331 q 372 1183 483 1183 q 263 1224 321 1183 q 211 1247 226 1247 q 179 1238 189 1247 q 164 1218 169 1229 q 152 1198 158 1207 q 131 1189 146 1189 l 86 1189 q 66 1199 72 1189 q 60 1222 60 1208 l 60 1228 q 183 1372 71 1372 q 238 1363 211 1372 q 294 1332 264 1353 q 324 1317 311 1322 q 346 1311 338 1311 q 376 1320 367 1311 q 391 1341 385 1329 q 404 1362 397 1353 q 422 1371 411 1371 l 469 1371 q 490 1360 483 1371 q 496 1336 496 1350 l 496 1331 z "},"":{"ha":553,"x_min":43,"x_max":510,"o":"m 510 215 q 492 133 510 175 q 442 58 474 92 q 368 5 410 25 q 276 -15 326 -15 q 185 5 226 -15 q 112 58 143 25 q 62 133 81 92 q 43 215 43 175 l 43 883 q 62 965 43 924 q 112 1040 81 1007 q 185 1092 143 1072 q 276 1111 226 1111 q 368 1092 326 1111 q 442 1040 410 1072 q 492 965 474 1007 q 510 883 510 924 l 510 215 m 322 890 q 310 915 322 907 q 276 924 297 924 q 244 915 257 924 q 232 890 232 907 l 232 207 q 244 183 232 192 q 276 175 257 175 q 310 183 297 175 q 322 207 322 192 l 322 890 m 504 1238 q 490 1202 504 1217 q 453 1188 475 1188 l 382 1188 q 347 1202 361 1188 q 332 1238 332 1217 l 332 1319 q 347 1356 332 1340 q 382 1371 361 1371 l 453 1371 q 490 1356 475 1371 q 504 1319 504 1340 l 504 1238 m 226 1238 q 211 1202 226 1217 q 175 1188 196 1188 l 104 1188 q 68 1202 83 1188 q 53 1238 53 1217 l 53 1319 q 68 1356 53 1340 q 104 1371 83 1371 l 175 1371 q 211 1356 196 1371 q 226 1319 226 1340 l 226 1238 z "},"":{"ha":540,"x_min":47,"x_max":493,"o":"m 493 201 q 476 122 493 160 q 431 53 460 83 q 363 3 403 22 q 275 -15 324 -15 q 184 3 226 -15 q 112 53 142 22 q 65 122 82 83 q 47 201 47 160 l 47 1047 q 62 1083 47 1068 q 97 1099 76 1099 l 178 1099 q 215 1083 200 1099 q 231 1047 231 1068 l 231 207 q 243 183 231 192 q 275 175 256 175 q 306 183 293 175 q 318 207 318 192 l 318 1047 q 333 1083 318 1068 q 368 1099 349 1099 l 442 1099 q 478 1083 464 1099 q 493 1047 493 1068 l 493 201 m 361 1222 q 358 1197 367 1207 q 328 1188 350 1188 l 279 1188 q 250 1207 267 1188 l 161 1300 q 151 1329 151 1313 q 165 1358 151 1346 q 210 1371 178 1371 l 263 1371 q 292 1365 283 1371 q 304 1346 300 1358 l 361 1222 z "},"":{"ha":540,"x_min":49,"x_max":494,"o":"m 494 201 q 478 122 494 160 q 433 53 461 83 q 365 3 404 22 q 276 -15 325 -15 q 185 3 228 -15 q 113 53 143 22 q 66 122 83 83 q 49 201 49 160 l 49 1047 q 63 1083 49 1068 q 99 1099 78 1099 l 179 1099 q 217 1083 201 1099 q 232 1047 232 1068 l 232 207 q 244 183 232 192 q 276 175 257 175 q 307 183 294 175 q 319 207 319 192 l 319 1047 q 335 1083 319 1068 q 369 1099 350 1099 l 443 1099 q 480 1083 465 1099 q 494 1047 494 1068 l 494 201 m 239 1346 q 253 1365 246 1358 q 281 1371 261 1371 l 336 1371 q 381 1358 368 1371 q 393 1329 393 1346 q 383 1300 393 1313 l 296 1207 q 267 1188 278 1188 l 218 1188 q 187 1197 196 1188 q 185 1222 178 1207 l 239 1346 z "},"":{"ha":540,"x_min":47,"x_max":493,"o":"m 493 201 q 476 122 493 160 q 431 53 460 83 q 363 3 403 22 q 275 -15 324 -15 q 184 3 226 -15 q 112 53 142 22 q 65 122 82 83 q 47 201 47 160 l 47 1047 q 62 1083 47 1068 q 97 1099 76 1099 l 178 1099 q 215 1083 200 1099 q 231 1047 231 1068 l 231 207 q 243 183 231 192 q 275 175 256 175 q 306 183 293 175 q 318 207 318 192 l 318 1047 q 333 1083 318 1068 q 368 1099 349 1099 l 442 1099 q 478 1083 464 1099 q 493 1047 493 1068 l 493 201 m 165 1346 q 186 1363 176 1356 q 211 1371 196 1371 l 331 1371 q 352 1365 343 1371 q 372 1346 361 1358 l 486 1236 q 493 1219 493 1231 q 483 1198 493 1207 q 461 1189 472 1189 l 389 1189 q 364 1200 376 1189 l 274 1292 l 265 1292 l 176 1200 q 151 1189 164 1189 l 79 1189 q 57 1198 65 1189 q 49 1221 49 1207 q 50 1227 49 1224 q 53 1236 51 1231 l 165 1346 z "},"":{"ha":540,"x_min":46,"x_max":497,"o":"m 493 201 q 476 122 493 160 q 431 53 460 83 q 363 3 403 22 q 275 -15 324 -15 q 184 3 226 -15 q 112 53 142 22 q 65 122 82 83 q 47 201 47 160 l 47 1047 q 62 1083 47 1068 q 97 1099 76 1099 l 178 1099 q 215 1083 200 1099 q 231 1047 231 1068 l 231 207 q 243 183 231 192 q 275 175 256 175 q 306 183 293 175 q 318 207 318 192 l 318 1047 q 333 1083 318 1068 q 368 1099 349 1099 l 442 1099 q 478 1083 464 1099 q 493 1047 493 1068 l 493 201 m 497 1238 q 483 1202 497 1217 q 446 1188 468 1188 l 375 1188 q 340 1202 354 1188 q 325 1238 325 1217 l 325 1319 q 340 1356 325 1340 q 375 1371 354 1371 l 446 1371 q 483 1356 468 1371 q 497 1319 497 1340 l 497 1238 m 219 1238 q 204 1202 219 1217 q 168 1188 189 1188 l 97 1188 q 61 1202 76 1188 q 46 1238 46 1217 l 46 1319 q 61 1356 46 1340 q 97 1371 76 1371 l 168 1371 q 204 1356 189 1371 q 219 1319 219 1340 l 219 1238 z "},"":{"ha":511,"x_min":25,"x_max":476,"o":"m 293 356 q 253 336 269 347 q 226 312 236 325 q 208 283 215 299 q 203 192 201 267 q 249 144 203 144 q 293 192 293 144 l 293 356 m 476 61 q 476 51 476 58 q 463 16 476 32 q 426 0 449 0 l 368 0 q 349 15 351 0 l 344 44 l 335 44 q 287 1 317 17 q 217 -15 257 -15 q 78 38 131 -15 q 25 186 25 92 q 37 295 25 256 q 67 360 49 335 q 110 408 86 386 q 158 447 135 431 q 293 506 217 483 l 293 626 q 285 657 293 647 q 260 667 278 667 q 233 657 240 667 q 226 626 226 647 l 226 607 q 210 572 226 586 q 175 557 194 557 l 94 557 q 60 572 75 557 q 44 607 44 586 l 44 622 q 63 706 44 668 q 110 770 81 743 q 180 811 140 797 q 265 825 219 825 q 347 811 310 825 q 410 770 385 797 q 451 706 436 743 q 467 622 467 668 l 467 167 q 469 115 467 140 q 476 61 472 89 m 346 950 q 343 925 351 935 q 313 915 335 915 l 264 915 q 235 935 251 915 l 146 1028 q 136 1057 136 1040 q 149 1086 136 1074 q 194 1099 163 1099 l 247 1099 q 276 1092 268 1099 q 289 1074 285 1086 l 346 950 z "},"":{"ha":511,"x_min":25,"x_max":476,"o":"m 293 356 q 253 336 269 347 q 226 312 236 325 q 208 283 215 299 q 203 192 201 267 q 249 144 203 144 q 293 192 293 144 l 293 356 m 476 61 q 476 51 476 58 q 463 16 476 32 q 426 0 449 0 l 368 0 q 349 15 351 0 l 344 44 l 335 44 q 287 1 317 17 q 217 -15 257 -15 q 78 38 131 -15 q 25 186 25 92 q 37 295 25 256 q 67 360 49 335 q 110 408 86 386 q 158 447 135 431 q 293 506 217 483 l 293 626 q 285 657 293 647 q 260 667 278 667 q 233 657 240 667 q 226 626 226 647 l 226 607 q 210 572 226 586 q 175 557 194 557 l 94 557 q 60 572 75 557 q 44 607 44 586 l 44 622 q 63 706 44 668 q 110 770 81 743 q 180 811 140 797 q 265 825 219 825 q 347 811 310 825 q 410 770 385 797 q 451 706 436 743 q 467 622 467 668 l 467 167 q 469 115 467 140 q 476 61 472 89 m 222 1074 q 237 1092 229 1086 q 264 1099 244 1099 l 319 1099 q 364 1086 351 1099 q 376 1057 376 1074 q 367 1028 376 1040 l 279 935 q 250 915 261 915 l 201 915 q 170 925 179 915 q 168 950 161 935 l 222 1074 z "},"":{"ha":511,"x_min":25,"x_max":481,"o":"m 293 356 q 253 336 269 347 q 226 312 236 325 q 208 283 215 299 q 203 192 201 267 q 249 144 203 144 q 293 192 293 144 l 293 356 m 476 61 q 476 51 476 58 q 463 16 476 32 q 426 0 449 0 l 368 0 q 349 15 351 0 l 344 44 l 335 44 q 287 1 317 17 q 217 -15 257 -15 q 78 38 131 -15 q 25 186 25 92 q 37 295 25 256 q 67 360 49 335 q 110 408 86 386 q 158 447 135 431 q 293 506 217 483 l 293 626 q 285 657 293 647 q 260 667 278 667 q 233 657 240 667 q 226 626 226 647 l 226 607 q 210 572 226 586 q 175 557 194 557 l 94 557 q 60 572 75 557 q 44 607 44 586 l 44 622 q 63 706 44 668 q 110 770 81 743 q 180 811 140 797 q 265 825 219 825 q 347 811 310 825 q 410 770 385 797 q 451 706 436 743 q 467 622 467 668 l 467 167 q 469 115 467 140 q 476 61 472 89 m 153 1074 q 174 1091 164 1083 q 199 1099 183 1099 l 318 1099 q 340 1092 331 1099 q 360 1074 349 1086 l 474 964 q 481 947 481 958 q 470 926 481 935 q 449 917 460 917 l 376 917 q 351 928 364 917 l 261 1019 l 253 1019 l 164 928 q 139 917 151 917 l 67 917 q 44 926 53 917 q 36 949 36 935 q 38 955 36 951 q 40 964 39 958 l 153 1074 z "},"":{"ha":511,"x_min":25,"x_max":476,"o":"m 293 356 q 253 336 269 347 q 226 312 236 325 q 208 283 215 299 q 203 192 201 267 q 249 144 203 144 q 293 192 293 144 l 293 356 m 476 61 q 476 51 476 58 q 463 16 476 32 q 426 0 449 0 l 368 0 q 349 15 351 0 l 344 44 l 335 44 q 287 1 317 17 q 217 -15 257 -15 q 78 38 131 -15 q 25 186 25 92 q 37 295 25 256 q 67 360 49 335 q 110 408 86 386 q 158 447 135 431 q 293 506 217 483 l 293 626 q 285 657 293 647 q 260 667 278 667 q 233 657 240 667 q 226 626 226 647 l 226 607 q 210 572 226 586 q 175 557 194 557 l 94 557 q 60 572 75 557 q 44 607 44 586 l 44 622 q 63 706 44 668 q 110 770 81 743 q 180 811 140 797 q 265 825 219 825 q 347 811 310 825 q 410 770 385 797 q 451 706 436 743 q 467 622 467 668 l 467 167 q 469 115 467 140 q 476 61 472 89 m 476 1058 q 353 911 464 911 q 243 951 301 911 q 192 975 207 975 q 160 966 169 975 q 144 946 150 957 q 133 926 139 935 q 111 917 126 917 l 67 917 q 47 926 53 917 q 40 950 40 936 l 40 956 q 164 1100 51 1100 q 218 1090 192 1100 q 275 1060 244 1081 q 305 1044 292 1050 q 326 1039 318 1039 q 356 1048 347 1039 q 372 1069 365 1057 q 385 1090 378 1081 q 403 1099 392 1099 l 450 1099 q 470 1088 464 1099 q 476 1064 476 1078 l 476 1058 z "},"":{"ha":511,"x_min":25,"x_max":482,"o":"m 293 356 q 253 336 269 347 q 226 312 236 325 q 208 283 215 299 q 203 192 201 267 q 249 144 203 144 q 293 192 293 144 l 293 356 m 476 61 q 476 51 476 58 q 463 16 476 32 q 426 0 449 0 l 368 0 q 349 15 351 0 l 344 44 l 335 44 q 287 1 317 17 q 217 -15 257 -15 q 78 38 131 -15 q 25 186 25 92 q 37 295 25 256 q 67 360 49 335 q 110 408 86 386 q 158 447 135 431 q 293 506 217 483 l 293 626 q 285 657 293 647 q 260 667 278 667 q 233 657 240 667 q 226 626 226 647 l 226 607 q 210 572 226 586 q 175 557 194 557 l 94 557 q 60 572 75 557 q 44 607 44 586 l 44 622 q 63 706 44 668 q 110 770 81 743 q 180 811 140 797 q 265 825 219 825 q 347 811 310 825 q 410 770 385 797 q 451 706 436 743 q 467 622 467 668 l 467 167 q 469 115 467 140 q 476 61 472 89 m 482 965 q 467 930 482 944 q 431 915 453 915 l 360 915 q 324 930 339 915 q 310 965 310 944 l 310 1047 q 324 1083 310 1068 q 360 1099 339 1099 l 431 1099 q 467 1083 453 1099 q 482 1047 482 1068 l 482 965 m 204 965 q 189 930 204 944 q 153 915 174 915 l 82 915 q 46 930 61 915 q 31 965 31 944 l 31 1047 q 46 1083 31 1068 q 82 1099 61 1099 l 153 1099 q 189 1083 174 1099 q 204 1047 204 1068 l 204 965 z "},"":{"ha":511,"x_min":25,"x_max":476,"o":"m 293 356 q 253 336 269 347 q 226 312 236 325 q 208 283 215 299 q 203 192 201 267 q 249 144 203 144 q 293 192 293 144 l 293 356 m 476 61 q 476 51 476 58 q 463 16 476 32 q 426 0 449 0 l 368 0 q 349 15 351 0 l 344 44 l 335 44 q 287 1 317 17 q 217 -15 257 -15 q 78 38 131 -15 q 25 186 25 92 q 37 295 25 256 q 67 360 49 335 q 110 408 86 386 q 158 447 135 431 q 293 506 217 483 l 293 626 q 285 657 293 647 q 260 667 278 667 q 233 657 240 667 q 226 626 226 647 l 226 607 q 210 572 226 586 q 175 557 194 557 l 94 557 q 60 572 75 557 q 44 607 44 586 l 44 622 q 63 706 44 668 q 110 770 81 743 q 180 811 140 797 q 265 825 219 825 q 347 811 310 825 q 410 770 385 797 q 451 706 436 743 q 467 622 467 668 l 467 167 q 469 115 467 140 q 476 61 472 89 m 192 1035 q 210 989 192 1008 q 257 969 228 969 q 301 989 283 969 q 319 1035 319 1008 q 301 1081 319 1061 q 257 1100 283 1100 q 210 1081 228 1100 q 192 1035 192 1061 m 135 1035 q 145 1083 135 1060 q 172 1122 156 1106 q 210 1149 189 1139 q 257 1158 231 1158 q 303 1149 281 1158 q 343 1122 326 1139 q 369 1083 360 1106 q 378 1035 378 1060 q 369 988 378 1008 q 343 950 360 967 q 303 924 326 933 q 257 914 281 914 q 210 924 231 914 q 172 950 189 933 q 145 988 156 967 q 135 1035 135 1008 z "},"":{"ha":517,"x_min":43,"x_max":482,"o":"m 482 186 q 465 104 482 142 q 417 41 447 67 q 347 0 386 15 q 264 -15 307 -15 q 176 0 217 -15 q 106 41 136 15 q 60 104 76 67 q 43 186 43 142 l 43 622 q 60 706 43 668 q 106 770 76 743 q 176 811 136 797 q 264 825 217 825 q 347 811 307 825 q 417 770 386 797 q 465 706 447 743 q 482 622 482 668 l 482 576 q 467 542 482 557 q 431 526 451 526 l 357 526 q 322 542 336 526 q 307 576 307 557 l 307 626 q 295 657 307 647 q 264 667 283 667 q 230 657 243 667 q 217 626 217 647 l 217 185 q 230 155 217 165 q 264 144 243 144 q 295 155 283 144 q 307 185 307 165 l 307 231 q 322 267 307 251 q 357 282 336 282 l 431 282 q 467 267 451 282 q 482 231 482 251 l 482 186 m 342 -194 q 320 -261 342 -236 q 260 -286 299 -286 q 203 -261 225 -286 q 181 -194 181 -236 q 187 -175 181 -183 q 207 -167 193 -167 l 211 -167 q 232 -175 225 -167 q 239 -194 239 -183 l 239 -215 q 245 -228 239 -224 q 260 -232 251 -232 q 275 -228 268 -232 q 282 -215 282 -224 l 282 -111 q 275 -100 282 -106 q 260 -94 268 -94 q 242 -106 247 -94 q 233 -111 240 -111 l 207 -110 q 187 -101 193 -110 q 181 -81 181 -93 l 185 25 l 247 25 l 242 -53 l 250 -53 q 270 -44 260 -44 q 290 -43 281 -43 q 326 -59 311 -43 q 342 -106 342 -75 l 342 -194 z "},"":{"ha":525,"x_min":43,"x_max":482,"o":"m 307 628 q 295 658 307 649 q 264 668 283 668 q 230 658 243 668 q 217 628 217 649 l 217 443 l 307 443 l 307 628 m 482 186 q 465 104 482 142 q 417 41 447 67 q 347 0 386 15 q 264 -15 307 -15 q 176 0 217 -15 q 106 41 136 15 q 60 104 76 67 q 43 186 43 142 l 43 624 q 60 706 43 668 q 106 770 76 743 q 176 811 136 797 q 264 825 217 825 q 347 811 307 825 q 417 770 386 797 q 465 706 447 743 q 482 624 482 668 l 482 426 q 457 367 482 392 q 397 343 432 343 l 217 343 l 217 185 q 230 154 217 165 q 264 143 243 143 q 295 154 283 143 q 307 186 307 165 q 322 224 307 208 q 357 239 336 239 l 431 239 q 467 224 451 239 q 482 186 482 208 m 353 950 q 350 925 358 935 q 319 915 342 915 l 271 915 q 242 935 258 915 l 153 1028 q 143 1057 143 1040 q 156 1086 143 1074 q 201 1099 169 1099 l 254 1099 q 283 1092 275 1099 q 296 1074 292 1086 l 353 950 z "},"":{"ha":525,"x_min":43,"x_max":482,"o":"m 307 628 q 295 658 307 649 q 264 668 283 668 q 230 658 243 668 q 217 628 217 649 l 217 443 l 307 443 l 307 628 m 482 186 q 465 104 482 142 q 417 41 447 67 q 347 0 386 15 q 264 -15 307 -15 q 176 0 217 -15 q 106 41 136 15 q 60 104 76 67 q 43 186 43 142 l 43 624 q 60 706 43 668 q 106 770 76 743 q 176 811 136 797 q 264 825 217 825 q 347 811 307 825 q 417 770 386 797 q 465 706 447 743 q 482 624 482 668 l 482 426 q 457 367 482 392 q 397 343 432 343 l 217 343 l 217 185 q 230 154 217 165 q 264 143 243 143 q 295 154 283 143 q 307 186 307 165 q 322 224 307 208 q 357 239 336 239 l 431 239 q 467 224 451 239 q 482 186 482 208 m 231 1074 q 245 1092 238 1086 q 272 1099 253 1099 l 328 1099 q 372 1086 360 1099 q 385 1057 385 1074 q 375 1028 385 1040 l 288 935 q 258 915 269 915 l 210 915 q 178 925 188 915 q 176 950 169 935 l 231 1074 z "},"":{"ha":525,"x_min":43,"x_max":488,"o":"m 307 628 q 295 658 307 649 q 264 668 283 668 q 230 658 243 668 q 217 628 217 649 l 217 443 l 307 443 l 307 628 m 482 186 q 465 104 482 142 q 417 41 447 67 q 347 0 386 15 q 264 -15 307 -15 q 176 0 217 -15 q 106 41 136 15 q 60 104 76 67 q 43 186 43 142 l 43 624 q 60 706 43 668 q 106 770 76 743 q 176 811 136 797 q 264 825 217 825 q 347 811 307 825 q 417 770 386 797 q 465 706 447 743 q 482 624 482 668 l 482 426 q 457 367 482 392 q 397 343 432 343 l 217 343 l 217 185 q 230 154 217 165 q 264 143 243 143 q 295 154 283 143 q 307 186 307 165 q 322 224 307 208 q 357 239 336 239 l 431 239 q 467 224 451 239 q 482 186 482 208 m 160 1074 q 181 1091 171 1083 q 206 1099 190 1099 l 325 1099 q 347 1092 338 1099 q 367 1074 356 1086 l 481 964 q 488 947 488 958 q 477 926 488 935 q 456 917 467 917 l 383 917 q 358 928 371 917 l 268 1019 l 260 1019 l 171 928 q 146 917 158 917 l 74 917 q 51 926 60 917 q 43 949 43 935 q 44 955 43 951 q 47 964 46 958 l 160 1074 z "},"":{"ha":525,"x_min":38,"x_max":489,"o":"m 307 628 q 295 658 307 649 q 264 668 283 668 q 230 658 243 668 q 217 628 217 649 l 217 443 l 307 443 l 307 628 m 482 186 q 465 104 482 142 q 417 41 447 67 q 347 0 386 15 q 264 -15 307 -15 q 176 0 217 -15 q 106 41 136 15 q 60 104 76 67 q 43 186 43 142 l 43 624 q 60 706 43 668 q 106 770 76 743 q 176 811 136 797 q 264 825 217 825 q 347 811 307 825 q 417 770 386 797 q 465 706 447 743 q 482 624 482 668 l 482 426 q 457 367 482 392 q 397 343 432 343 l 217 343 l 217 185 q 230 154 217 165 q 264 143 243 143 q 295 154 283 143 q 307 186 307 165 q 322 224 307 208 q 357 239 336 239 l 431 239 q 467 224 451 239 q 482 186 482 208 m 489 965 q 474 930 489 944 q 438 915 460 915 l 367 915 q 331 930 346 915 q 317 965 317 944 l 317 1047 q 331 1083 317 1068 q 367 1099 346 1099 l 438 1099 q 474 1083 460 1099 q 489 1047 489 1068 l 489 965 m 211 965 q 196 930 211 944 q 160 915 181 915 l 89 915 q 53 930 68 915 q 38 965 38 944 l 38 1047 q 53 1083 38 1068 q 89 1099 68 1099 l 160 1099 q 196 1083 181 1099 q 211 1047 211 1068 l 211 965 z "},"":{"ha":276,"x_min":19,"x_max":235,"o":"m 225 50 q 210 15 225 31 q 174 0 194 0 l 101 0 q 67 15 82 0 q 51 50 51 31 l 51 758 q 67 794 51 781 q 101 808 82 808 l 174 808 q 210 794 194 808 q 225 758 225 781 l 225 50 m 229 950 q 226 925 235 935 q 196 915 218 915 l 147 915 q 118 935 135 915 l 29 1028 q 19 1057 19 1040 q 33 1086 19 1074 q 78 1099 46 1099 l 131 1099 q 160 1092 151 1099 q 172 1074 168 1086 l 229 950 z "},"":{"ha":276,"x_min":44,"x_max":260,"o":"m 225 50 q 210 15 225 31 q 174 0 194 0 l 101 0 q 67 15 82 0 q 51 50 51 31 l 51 758 q 67 794 51 781 q 101 808 82 808 l 174 808 q 210 794 194 808 q 225 758 225 781 l 225 50 m 106 1074 q 120 1092 113 1086 q 147 1099 128 1099 l 203 1099 q 247 1086 235 1099 q 260 1057 260 1074 q 250 1028 260 1040 l 163 935 q 133 915 144 915 l 85 915 q 53 925 63 915 q 51 950 44 935 l 106 1074 z "},"":{"ha":276,"x_min":-81,"x_max":364,"o":"m 225 50 q 210 15 225 31 q 174 0 194 0 l 101 0 q 67 15 82 0 q 51 50 51 31 l 51 758 q 67 794 51 781 q 101 808 82 808 l 174 808 q 210 794 194 808 q 225 758 225 781 l 225 50 m 36 1074 q 57 1091 47 1083 q 82 1099 67 1099 l 201 1099 q 223 1092 214 1099 q 243 1074 232 1086 l 357 964 q 364 947 364 958 q 353 926 364 935 q 332 917 343 917 l 260 917 q 235 928 247 917 l 144 1019 l 136 1019 l 47 928 q 22 917 35 917 l -50 917 q -72 926 -64 917 q -81 949 -81 935 q -79 955 -81 951 q -76 964 -78 958 l 36 1074 z "},"":{"ha":276,"x_min":-86,"x_max":365,"o":"m 225 50 q 210 15 225 31 q 174 0 194 0 l 101 0 q 67 15 82 0 q 51 50 51 31 l 51 758 q 67 794 51 781 q 101 808 82 808 l 174 808 q 210 794 194 808 q 225 758 225 781 l 225 50 m 365 965 q 351 930 365 944 q 314 915 336 915 l 243 915 q 208 930 222 915 q 193 965 193 944 l 193 1047 q 208 1083 193 1068 q 243 1099 222 1099 l 314 1099 q 351 1083 336 1099 q 365 1047 365 1068 l 365 965 m 88 965 q 72 930 88 944 q 36 915 57 915 l -35 915 q -71 930 -56 915 q -86 965 -86 944 l -86 1047 q -71 1083 -86 1068 q -35 1099 -56 1099 l 36 1099 q 72 1083 57 1099 q 88 1047 88 1068 l 88 965 z "},"":{"ha":536,"x_min":50,"x_max":489,"o":"m 489 50 q 474 15 489 31 q 436 0 458 0 l 367 0 q 332 15 347 0 q 317 50 317 31 l 317 626 q 303 657 317 647 q 272 667 289 667 q 238 657 251 667 q 225 626 225 647 l 225 50 q 210 15 225 31 q 174 0 194 0 l 101 0 q 67 15 82 0 q 51 50 51 31 l 51 758 q 67 794 51 781 q 101 808 82 808 l 194 808 q 215 794 210 808 l 218 775 l 228 775 q 282 812 249 799 q 349 825 315 825 q 402 816 376 825 q 447 788 428 807 q 478 744 467 769 q 489 689 489 718 l 489 50 m 486 1058 q 363 911 474 911 q 253 951 311 911 q 201 975 217 975 q 169 966 179 975 q 154 946 160 957 q 142 926 149 935 q 121 917 136 917 l 76 917 q 56 926 63 917 q 50 950 50 936 l 50 956 q 174 1100 61 1100 q 228 1090 201 1100 q 285 1060 254 1081 q 315 1044 301 1050 q 336 1039 328 1039 q 366 1048 357 1039 q 381 1069 375 1057 q 394 1090 388 1081 q 413 1099 401 1099 l 460 1099 q 480 1088 474 1099 q 486 1064 486 1078 l 486 1058 z "},"":{"ha":525,"x_min":43,"x_max":482,"o":"m 482 186 q 465 104 482 142 q 417 41 447 67 q 347 0 386 15 q 264 -15 307 -15 q 176 0 217 -15 q 106 41 136 15 q 60 104 76 67 q 43 186 43 142 l 43 622 q 60 706 43 668 q 106 770 76 743 q 176 811 136 797 q 264 825 217 825 q 347 811 307 825 q 417 770 386 797 q 465 706 447 743 q 482 622 482 668 l 482 186 m 307 626 q 295 657 307 647 q 264 667 283 667 q 230 657 243 667 q 217 626 217 647 l 217 185 q 230 155 217 165 q 264 144 243 144 q 295 155 283 144 q 307 185 307 165 l 307 626 m 353 950 q 350 925 358 935 q 319 915 342 915 l 271 915 q 242 935 258 915 l 153 1028 q 143 1057 143 1040 q 156 1086 143 1074 q 201 1099 169 1099 l 254 1099 q 283 1092 275 1099 q 296 1074 292 1086 l 353 950 z "},"":{"ha":525,"x_min":43,"x_max":482,"o":"m 482 186 q 465 104 482 142 q 417 41 447 67 q 347 0 386 15 q 264 -15 307 -15 q 176 0 217 -15 q 106 41 136 15 q 60 104 76 67 q 43 186 43 142 l 43 622 q 60 706 43 668 q 106 770 76 743 q 176 811 136 797 q 264 825 217 825 q 347 811 307 825 q 417 770 386 797 q 465 706 447 743 q 482 622 482 668 l 482 186 m 307 626 q 295 657 307 647 q 264 667 283 667 q 230 657 243 667 q 217 626 217 647 l 217 185 q 230 155 217 165 q 264 144 243 144 q 295 155 283 144 q 307 185 307 165 l 307 626 m 231 1074 q 245 1092 238 1086 q 272 1099 253 1099 l 328 1099 q 372 1086 360 1099 q 385 1057 385 1074 q 375 1028 385 1040 l 288 935 q 258 915 269 915 l 210 915 q 178 925 188 915 q 176 950 169 935 l 231 1074 z "},"":{"ha":525,"x_min":43,"x_max":488,"o":"m 482 186 q 465 104 482 142 q 417 41 447 67 q 347 0 386 15 q 264 -15 307 -15 q 176 0 217 -15 q 106 41 136 15 q 60 104 76 67 q 43 186 43 142 l 43 622 q 60 706 43 668 q 106 770 76 743 q 176 811 136 797 q 264 825 217 825 q 347 811 307 825 q 417 770 386 797 q 465 706 447 743 q 482 622 482 668 l 482 186 m 307 626 q 295 657 307 647 q 264 667 283 667 q 230 657 243 667 q 217 626 217 647 l 217 185 q 230 155 217 165 q 264 144 243 144 q 295 155 283 144 q 307 185 307 165 l 307 626 m 160 1074 q 181 1091 171 1083 q 206 1099 190 1099 l 325 1099 q 347 1092 338 1099 q 367 1074 356 1086 l 481 964 q 488 947 488 958 q 477 926 488 935 q 456 917 467 917 l 383 917 q 358 928 371 917 l 268 1019 l 260 1019 l 171 928 q 146 917 158 917 l 74 917 q 51 926 60 917 q 43 949 43 935 q 44 955 43 951 q 47 964 46 958 l 160 1074 z "},"":{"ha":525,"x_min":43,"x_max":482,"o":"m 482 186 q 465 104 482 142 q 417 41 447 67 q 347 0 386 15 q 264 -15 307 -15 q 176 0 217 -15 q 106 41 136 15 q 60 104 76 67 q 43 186 43 142 l 43 622 q 60 706 43 668 q 106 770 76 743 q 176 811 136 797 q 264 825 217 825 q 347 811 307 825 q 417 770 386 797 q 465 706 447 743 q 482 622 482 668 l 482 186 m 307 626 q 295 657 307 647 q 264 667 283 667 q 230 657 243 667 q 217 626 217 647 l 217 185 q 230 155 217 165 q 264 144 243 144 q 295 155 283 144 q 307 185 307 165 l 307 626 m 481 1058 q 357 911 468 911 q 247 951 306 911 q 196 975 211 975 q 164 966 174 975 q 149 946 154 957 q 137 926 143 935 q 115 917 131 917 l 71 917 q 51 926 57 917 q 44 950 44 936 l 44 956 q 168 1100 56 1100 q 222 1090 196 1100 q 279 1060 249 1081 q 309 1044 296 1050 q 331 1039 322 1039 q 360 1048 351 1039 q 376 1069 369 1057 q 389 1090 382 1081 q 407 1099 396 1099 l 454 1099 q 474 1088 468 1099 q 481 1064 481 1078 l 481 1058 z "},"":{"ha":525,"x_min":38,"x_max":489,"o":"m 482 186 q 465 104 482 142 q 417 41 447 67 q 347 0 386 15 q 264 -15 307 -15 q 176 0 217 -15 q 106 41 136 15 q 60 104 76 67 q 43 186 43 142 l 43 622 q 60 706 43 668 q 106 770 76 743 q 176 811 136 797 q 264 825 217 825 q 347 811 307 825 q 417 770 386 797 q 465 706 447 743 q 482 622 482 668 l 482 186 m 307 626 q 295 657 307 647 q 264 667 283 667 q 230 657 243 667 q 217 626 217 647 l 217 185 q 230 155 217 165 q 264 144 243 144 q 295 155 283 144 q 307 185 307 165 l 307 626 m 489 965 q 474 930 489 944 q 438 915 460 915 l 367 915 q 331 930 346 915 q 317 965 317 944 l 317 1047 q 331 1083 317 1068 q 367 1099 346 1099 l 438 1099 q 474 1083 460 1099 q 489 1047 489 1068 l 489 965 m 211 965 q 196 930 211 944 q 160 915 181 915 l 89 915 q 53 930 68 915 q 38 965 38 944 l 38 1047 q 53 1083 38 1068 q 89 1099 68 1099 l 160 1099 q 196 1083 181 1099 q 211 1047 211 1068 l 211 965 z "},"":{"ha":535,"x_min":47,"x_max":483,"o":"m 483 50 q 469 15 483 31 q 432 0 456 0 l 344 0 q 326 15 328 0 l 319 35 l 310 35 q 256 -1 290 14 q 186 -15 222 -15 q 133 -5 158 -15 q 88 22 107 6 q 58 64 69 39 q 47 124 47 89 l 47 758 q 62 794 47 781 q 97 808 76 808 l 168 808 q 206 794 192 808 q 219 758 219 781 l 219 185 q 233 155 219 165 q 267 144 247 144 q 297 155 285 144 q 310 185 310 165 l 310 758 q 325 794 310 781 q 360 808 340 808 l 432 808 q 469 794 456 808 q 483 758 483 781 l 483 50 m 358 950 q 356 925 364 935 q 325 915 347 915 l 276 915 q 247 935 264 915 l 158 1028 q 149 1057 149 1040 q 162 1086 149 1074 q 207 1099 175 1099 l 260 1099 q 289 1092 281 1099 q 301 1074 297 1086 l 358 950 z "},"":{"ha":535,"x_min":47,"x_max":483,"o":"m 483 50 q 469 15 483 31 q 432 0 456 0 l 344 0 q 326 15 328 0 l 319 35 l 310 35 q 256 -1 290 14 q 186 -15 222 -15 q 133 -5 158 -15 q 88 22 107 6 q 58 64 69 39 q 47 124 47 89 l 47 758 q 62 794 47 781 q 97 808 76 808 l 168 808 q 206 794 192 808 q 219 758 219 781 l 219 185 q 233 155 219 165 q 267 144 247 144 q 297 155 285 144 q 310 185 310 165 l 310 758 q 325 794 310 781 q 360 808 340 808 l 432 808 q 469 794 456 808 q 483 758 483 781 l 483 50 m 235 1074 q 249 1092 242 1086 q 276 1099 257 1099 l 332 1099 q 376 1086 364 1099 q 389 1057 389 1074 q 379 1028 389 1040 l 292 935 q 263 915 274 915 l 214 915 q 183 925 192 915 q 181 950 174 935 l 235 1074 z "},"":{"ha":535,"x_min":47,"x_max":492,"o":"m 483 50 q 469 15 483 31 q 432 0 456 0 l 344 0 q 326 15 328 0 l 319 35 l 310 35 q 256 -1 290 14 q 186 -15 222 -15 q 133 -5 158 -15 q 88 22 107 6 q 58 64 69 39 q 47 124 47 89 l 47 758 q 62 794 47 781 q 97 808 76 808 l 168 808 q 206 794 192 808 q 219 758 219 781 l 219 185 q 233 155 219 165 q 267 144 247 144 q 297 155 285 144 q 310 185 310 165 l 310 758 q 325 794 310 781 q 360 808 340 808 l 432 808 q 469 794 456 808 q 483 758 483 781 l 483 50 m 164 1074 q 185 1091 175 1083 q 210 1099 194 1099 l 329 1099 q 351 1092 342 1099 q 371 1074 360 1086 l 485 964 q 492 947 492 958 q 481 926 492 935 q 460 917 471 917 l 388 917 q 363 928 375 917 l 272 1019 l 264 1019 l 175 928 q 150 917 163 917 l 78 917 q 56 926 64 917 q 47 949 47 935 q 49 955 47 951 q 51 964 50 958 l 164 1074 z "},"":{"ha":535,"x_min":43,"x_max":494,"o":"m 483 50 q 469 15 483 31 q 432 0 456 0 l 344 0 q 326 15 328 0 l 319 35 l 310 35 q 256 -1 290 14 q 186 -15 222 -15 q 133 -5 158 -15 q 88 22 107 6 q 58 64 69 39 q 47 124 47 89 l 47 758 q 62 794 47 781 q 97 808 76 808 l 168 808 q 206 794 192 808 q 219 758 219 781 l 219 185 q 233 155 219 165 q 267 144 247 144 q 297 155 285 144 q 310 185 310 165 l 310 758 q 325 794 310 781 q 360 808 340 808 l 432 808 q 469 794 456 808 q 483 758 483 781 l 483 50 m 494 965 q 480 930 494 944 q 443 915 465 915 l 372 915 q 337 930 351 915 q 322 965 322 944 l 322 1047 q 337 1083 322 1068 q 372 1099 351 1099 l 443 1099 q 480 1083 465 1099 q 494 1047 494 1068 l 494 965 m 217 965 q 201 930 217 944 q 165 915 186 915 l 94 915 q 58 930 74 915 q 43 965 43 944 l 43 1047 q 58 1083 43 1068 q 94 1099 74 1099 l 165 1099 q 201 1083 186 1099 q 217 1047 217 1068 l 217 965 z "},"":{"ha":483,"x_min":19,"x_max":468,"o":"m 417 808 q 454 793 440 808 q 468 758 468 778 q 467 749 468 751 l 285 -149 q 228 -250 272 -214 q 106 -286 183 -286 l 83 -286 q 51 -274 61 -286 q 42 -244 42 -261 l 42 -168 q 53 -139 42 -151 q 83 -126 65 -126 q 119 -117 106 -126 q 135 -94 132 -108 l 168 47 q 96 397 133 219 q 22 749 58 575 q 19 758 19 751 q 35 793 19 778 q 72 808 50 808 l 135 808 q 169 797 156 808 q 185 765 183 785 l 240 367 l 251 367 l 306 765 q 321 797 307 785 q 356 808 335 808 l 417 808 m 210 1074 q 224 1092 217 1086 q 251 1099 232 1099 l 307 1099 q 351 1086 339 1099 q 364 1057 364 1074 q 354 1028 364 1040 l 267 935 q 238 915 249 915 l 189 915 q 158 925 167 915 q 156 950 149 935 l 210 1074 z "},"":{"ha":483,"x_min":17,"x_max":468,"o":"m 417 808 q 454 793 440 808 q 468 758 468 778 q 467 749 468 751 l 285 -149 q 228 -250 272 -214 q 106 -286 183 -286 l 83 -286 q 51 -274 61 -286 q 42 -244 42 -261 l 42 -168 q 53 -139 42 -151 q 83 -126 65 -126 q 119 -117 106 -126 q 135 -94 132 -108 l 168 47 q 96 397 133 219 q 22 749 58 575 q 19 758 19 751 q 35 793 19 778 q 72 808 50 808 l 135 808 q 169 797 156 808 q 185 765 183 785 l 240 367 l 251 367 l 306 765 q 321 797 307 785 q 356 808 335 808 l 417 808 m 468 965 q 453 930 468 944 q 417 915 439 915 l 346 915 q 310 930 325 915 q 296 965 296 944 l 296 1047 q 310 1083 296 1068 q 346 1099 325 1099 l 417 1099 q 453 1083 439 1099 q 468 1047 468 1068 l 468 965 m 190 965 q 175 930 190 944 q 139 915 160 915 l 68 915 q 32 930 47 915 q 17 965 17 944 l 17 1047 q 32 1083 17 1068 q 68 1099 47 1099 l 139 1099 q 175 1083 160 1099 q 190 1047 190 1068 l 190 965 z "},"":{"ha":542,"x_min":33,"x_max":517,"o":"m 465 1099 q 501 1083 486 1099 q 517 1049 517 1068 q 514 1033 517 1043 l 364 474 l 364 50 q 349 15 364 31 q 311 0 333 0 l 232 0 q 194 15 208 0 q 181 50 181 31 l 181 474 l 35 1033 q 33 1047 33 1039 q 47 1083 33 1067 q 83 1099 61 1099 l 157 1099 q 189 1087 175 1099 q 207 1058 203 1075 l 276 732 l 286 732 l 349 1057 q 366 1087 351 1075 q 399 1099 381 1099 l 465 1099 m 497 1206 q 483 1170 497 1185 q 446 1156 468 1156 l 375 1156 q 340 1170 354 1156 q 325 1206 325 1185 l 325 1288 q 340 1324 325 1308 q 375 1339 354 1339 l 446 1339 q 483 1324 468 1339 q 497 1288 497 1308 l 497 1206 m 219 1206 q 204 1170 219 1185 q 168 1156 189 1156 l 97 1156 q 61 1170 76 1156 q 46 1206 46 1185 l 46 1288 q 61 1324 46 1308 q 97 1339 76 1339 l 168 1339 q 204 1324 189 1339 q 219 1288 219 1308 l 219 1206 z "},"":{"ha":557,"x_min":53,"x_max":497,"o":"m 57 1050 q 54 1058 56 1056 q 53 1067 53 1060 q 61 1088 53 1078 q 83 1099 69 1099 l 156 1099 q 181 1086 168 1099 l 269 1003 l 278 1003 l 368 1086 q 393 1099 381 1099 l 465 1099 q 487 1090 476 1099 q 497 1067 497 1081 q 490 1050 497 1057 l 376 940 q 356 922 365 928 q 335 917 347 917 l 215 917 q 190 922 200 917 q 169 940 181 928 l 57 1050 z "},"":{"ha":542,"x_min":33,"x_max":517,"o":"m 465 1099 q 501 1083 486 1099 q 517 1049 517 1068 q 514 1033 517 1043 l 364 474 l 364 50 q 349 15 364 31 q 311 0 333 0 l 232 0 q 194 15 208 0 q 181 50 181 31 l 181 474 l 35 1033 q 33 1047 33 1039 q 47 1083 33 1067 q 83 1099 61 1099 l 157 1099 q 189 1087 175 1099 q 207 1058 203 1075 l 276 732 l 286 732 l 349 1057 q 366 1087 351 1075 q 399 1099 381 1099 l 465 1099 m 238 1346 q 252 1365 244 1358 q 279 1371 260 1371 l 335 1371 q 379 1358 367 1371 q 392 1329 392 1346 q 382 1300 392 1313 l 294 1207 q 265 1188 276 1188 l 217 1188 q 185 1197 194 1188 q 183 1222 176 1207 l 238 1346 z "},"":{"ha":507,"x_min":32,"x_max":476,"o":"m 472 208 q 460 125 472 165 q 419 54 447 85 q 350 4 392 24 q 256 -15 308 -15 q 98 40 153 -15 q 43 186 43 94 l 43 207 q 58 243 43 228 q 94 258 74 258 l 149 258 q 185 243 169 258 q 200 207 200 228 l 200 186 q 213 153 200 167 q 250 140 226 140 q 286 153 274 140 q 299 201 299 167 q 291 247 299 226 q 267 287 283 267 q 222 329 250 307 q 156 382 194 351 q 70 478 106 422 q 35 601 35 533 q 53 708 35 665 q 103 776 72 750 q 172 813 133 801 q 256 825 211 825 q 337 811 299 825 q 403 770 375 797 q 448 706 432 743 q 464 622 464 668 l 464 603 q 449 568 464 583 q 411 553 433 553 l 357 553 q 322 568 336 553 q 307 603 307 583 l 307 622 q 294 655 307 643 q 258 667 282 667 q 221 653 233 667 q 208 608 208 639 q 213 578 208 590 q 224 553 217 565 q 245 529 232 542 q 278 500 258 517 l 310 476 q 370 422 340 451 q 422 358 400 392 q 458 286 444 324 q 472 208 472 249 m 36 1050 q 33 1058 35 1056 q 32 1067 32 1060 q 40 1088 32 1078 q 63 1099 49 1099 l 135 1099 q 160 1086 147 1099 l 249 1003 l 257 1003 l 347 1086 q 372 1099 360 1099 l 444 1099 q 466 1090 456 1099 q 476 1067 476 1081 q 469 1050 476 1057 l 356 940 q 335 922 344 928 q 314 917 326 917 l 194 917 q 169 922 179 917 q 149 940 160 928 l 36 1050 z "},"":{"ha":414,"x_min":-12,"x_max":432,"o":"m 386 42 q 374 13 386 25 q 344 0 361 0 l 60 0 q 31 13 43 0 q 19 42 19 25 q 19 51 19 49 l 178 660 l 65 660 q 37 672 49 660 q 25 700 25 683 l 25 768 q 37 797 25 786 q 65 808 49 808 l 333 808 q 363 797 350 808 q 375 768 375 785 q 374 758 375 761 l 215 151 l 344 151 q 374 139 361 151 q 386 110 386 126 l 386 42 m -8 1050 q -11 1058 -10 1056 q -12 1067 -12 1060 q -4 1088 -12 1078 q 18 1099 4 1099 l 90 1099 q 115 1086 103 1099 l 204 1003 l 213 1003 l 303 1086 q 328 1099 315 1099 l 400 1099 q 422 1090 411 1099 q 432 1067 432 1081 q 425 1050 432 1057 l 311 940 q 291 922 300 928 q 269 917 282 917 l 150 917 q 125 922 135 917 q 104 940 115 928 l -8 1050 z "},"":{"ha":457,"x_min":10,"x_max":454,"o":"m 364 1099 q 398 1084 382 1099 q 414 1049 414 1069 q 411 1036 414 1040 l 231 194 l 368 194 q 403 180 389 194 q 418 143 418 165 l 418 50 q 403 15 418 31 q 368 0 389 0 l 78 0 q 42 15 57 0 q 28 50 28 31 q 31 61 28 57 l 217 918 l 100 918 q 63 933 78 918 q 49 968 49 947 l 49 1047 q 63 1083 49 1068 q 100 1099 78 1099 l 364 1099 m 14 1290 q 11 1298 13 1296 q 10 1307 10 1300 q 18 1328 10 1318 q 40 1339 26 1339 l 113 1339 q 138 1326 125 1339 l 226 1243 l 235 1243 l 325 1326 q 350 1339 338 1339 l 422 1339 q 444 1330 433 1339 q 454 1307 454 1321 q 447 1290 454 1297 l 333 1181 q 313 1163 322 1168 q 292 1157 304 1157 l 172 1157 q 147 1163 157 1157 q 126 1181 138 1168 l 14 1290 z "},"":{"ha":556,"x_min":24,"x_max":517,"o":"m 517 256 q 501 153 517 201 q 454 69 485 106 q 378 8 424 32 q 276 -15 333 -15 q 173 3 219 -15 q 93 53 126 22 q 42 122 60 83 q 24 201 24 160 l 24 275 q 38 312 24 297 q 74 326 53 326 l 149 326 q 185 312 169 326 q 200 275 200 297 l 200 247 q 218 195 200 215 q 267 175 236 175 q 328 247 328 175 q 319 310 328 278 q 291 374 310 342 q 245 437 272 406 q 185 507 218 468 q 76 663 117 578 q 35 843 35 749 q 51 949 35 900 q 99 1034 67 999 q 176 1090 131 1069 q 282 1111 222 1111 q 373 1094 331 1111 q 446 1046 415 1076 q 494 977 476 1015 q 511 897 511 939 l 511 822 q 497 787 511 801 q 460 772 483 772 l 385 772 q 349 787 364 772 q 335 822 335 801 l 335 860 q 320 906 335 889 q 282 924 306 924 q 241 906 258 924 q 224 860 224 889 q 229 807 224 831 q 248 758 235 783 q 285 700 261 732 q 347 622 310 668 q 353 612 350 617 q 360 603 357 607 q 418 529 389 567 q 469 449 447 492 q 503 358 490 407 q 517 256 517 310 m 60 1290 q 57 1298 58 1296 q 56 1307 56 1300 q 64 1328 56 1318 q 86 1339 72 1339 l 158 1339 q 183 1326 171 1339 l 272 1243 l 281 1243 l 371 1326 q 396 1339 383 1339 l 468 1339 q 490 1330 479 1339 q 500 1307 500 1321 q 493 1290 500 1297 l 379 1181 q 359 1163 368 1168 q 338 1157 350 1157 l 218 1157 q 193 1163 203 1157 q 172 1181 183 1168 l 60 1290 z "},"":{"ha":692,"x_min":8,"x_max":610,"o":"m 451 915 q 383 912 410 915 q 338 892 356 908 q 313 840 319 876 q 306 739 306 803 l 474 739 q 521 719 501 739 q 540 672 540 699 l 540 658 q 521 609 540 628 q 474 590 501 590 l 303 590 l 303 515 l 419 515 q 469 496 449 515 q 489 449 489 476 l 489 435 q 469 387 489 407 q 419 367 449 367 l 307 367 q 308 255 307 294 q 320 197 310 215 q 352 175 331 178 q 410 172 374 172 l 431 172 q 467 173 443 172 q 533 174 490 174 q 590 147 574 174 q 607 81 607 119 q 594 35 607 51 q 560 11 581 19 q 515 1 540 3 q 461 0 489 0 l 410 0 q 262 26 317 0 q 176 99 207 51 q 133 215 144 147 q 117 367 122 283 l 50 367 q 21 379 33 367 q 8 408 8 392 l 8 475 q 21 503 8 490 q 50 515 33 515 l 111 515 l 111 590 l 76 590 q 34 608 51 590 q 17 650 17 626 l 17 672 q 36 719 17 699 q 83 739 56 739 l 118 739 q 140 892 125 825 q 189 1004 156 958 q 279 1072 222 1050 q 428 1094 336 1094 l 489 1094 q 531 1092 510 1094 q 571 1083 553 1090 q 599 1063 589 1076 q 610 1024 610 1049 q 606 984 610 1003 q 594 950 603 965 q 571 925 586 935 q 533 915 556 915 l 451 915 z "},"":{"ha":536,"x_min":18,"x_max":503,"o":"m 265 728 l 253 728 l 215 367 l 289 367 l 265 728 m 503 51 q 489 15 503 31 q 453 0 475 0 l 360 0 q 326 13 340 0 q 308 47 311 26 l 300 172 l 197 172 l 185 44 q 167 13 182 25 q 135 0 153 0 l 68 0 q 33 15 49 0 q 18 51 18 31 l 18 57 l 140 1053 q 157 1085 142 1072 q 192 1099 172 1099 l 328 1099 q 363 1085 349 1099 q 381 1053 376 1072 l 503 51 m 413 1239 q 398 1204 413 1219 q 361 1189 383 1189 l 150 1189 q 115 1204 129 1189 q 100 1239 100 1219 l 100 1261 q 115 1296 100 1281 q 150 1311 129 1311 l 361 1311 q 398 1296 383 1311 q 413 1261 413 1281 l 413 1239 z "},"":{"ha":503,"x_min":106,"x_max":408,"o":"m 144 1050 q 160 1071 150 1061 q 183 1081 169 1081 l 218 1081 q 240 1072 232 1081 q 247 1051 247 1064 q 246 1049 247 1050 q 244 1044 244 1049 l 240 1033 l 175 928 q 153 915 167 915 l 122 915 q 110 919 115 915 q 106 932 106 924 q 106 935 106 935 q 106 939 106 935 l 144 1050 m 308 1050 q 324 1071 314 1061 q 347 1081 335 1081 l 382 1081 q 401 1072 394 1081 q 408 1051 408 1064 q 408 1049 408 1050 q 408 1044 408 1049 l 403 1033 l 339 928 q 317 915 331 915 l 285 915 q 272 919 276 915 q 267 932 267 924 q 267 935 267 935 q 268 939 268 935 l 308 1050 z "},"":{"ha":951,"x_min":347,"x_max":556,"o":"m 547 -232 q 492 -258 519 -249 q 436 -267 464 -267 q 347 -165 347 -267 q 419 0 347 -94 l 481 0 q 432 -144 432 -93 q 475 -197 432 -197 q 499 -194 486 -197 q 524 -190 511 -190 q 546 -198 536 -190 q 556 -215 556 -206 q 553 -223 556 -218 q 547 -232 551 -228 z "},"":{"ha":536,"x_min":18,"x_max":503,"o":"m 265 728 l 253 728 l 215 367 l 289 367 l 265 728 m 503 51 q 489 15 503 31 q 453 0 475 0 l 360 0 q 326 13 340 0 q 308 47 311 26 l 300 172 l 197 172 l 185 44 q 167 13 182 25 q 135 0 153 0 l 68 0 q 33 15 49 0 q 18 51 18 31 l 18 57 l 140 1053 q 157 1085 142 1072 q 192 1099 172 1099 l 328 1099 q 363 1085 349 1099 q 381 1053 376 1072 l 503 51 m 264 1296 q 322 1303 297 1296 q 358 1339 347 1311 q 372 1363 364 1353 q 394 1372 379 1372 l 419 1372 q 442 1363 433 1372 q 450 1338 450 1353 q 386 1224 438 1263 q 264 1186 335 1186 q 145 1225 196 1186 q 83 1340 94 1264 q 92 1363 83 1353 q 113 1372 100 1372 l 138 1372 q 161 1363 153 1372 q 175 1339 169 1353 q 209 1303 185 1311 q 264 1296 233 1296 z "},"":{"ha":536,"x_min":18,"x_max":532,"o":"m 265 728 l 253 728 l 215 367 l 289 367 l 265 728 m 503 51 q 489 15 503 31 q 453 0 475 0 l 360 0 q 326 13 340 0 q 308 47 311 26 l 300 172 l 197 172 l 185 44 q 167 13 182 25 q 135 0 153 0 l 68 0 q 33 15 49 0 q 18 51 18 31 l 18 57 l 140 1053 q 157 1085 142 1072 q 192 1099 172 1099 l 328 1099 q 363 1085 349 1099 q 381 1053 376 1072 l 503 51 m 524 -232 q 468 -258 496 -249 q 413 -267 440 -267 q 324 -165 324 -267 q 396 0 324 -94 l 457 0 q 408 -144 408 -93 q 451 -197 408 -197 q 475 -194 463 -197 q 500 -190 488 -190 q 522 -198 513 -190 q 532 -215 532 -206 q 530 -223 532 -218 q 524 -232 528 -228 z "},"":{"ha":732,"x_min":19,"x_max":699,"o":"m 311 803 l 300 803 q 267 585 285 693 q 233 367 249 476 l 311 367 l 311 803 m 699 50 q 683 15 699 31 q 647 0 668 0 l 364 0 q 326 15 342 0 q 311 50 311 31 l 311 172 l 206 172 l 185 43 q 169 13 182 25 q 135 0 156 0 l 72 0 q 35 15 50 0 q 19 50 19 31 q 22 60 19 56 l 192 1056 q 209 1087 194 1075 q 243 1099 224 1099 l 647 1099 q 683 1083 668 1099 q 699 1047 699 1068 l 699 968 q 683 933 699 947 q 647 918 668 918 l 501 918 l 501 667 l 581 667 q 617 653 601 667 q 632 615 632 639 l 632 524 q 617 487 632 501 q 581 472 601 472 l 501 472 l 501 194 l 647 194 q 683 180 668 194 q 699 143 699 165 l 699 50 m 333 1346 q 348 1365 340 1358 q 375 1371 356 1371 l 431 1371 q 475 1358 463 1371 q 488 1329 488 1346 q 478 1300 488 1313 l 390 1207 q 361 1188 372 1188 l 313 1188 q 281 1197 290 1188 q 279 1222 272 1207 l 333 1346 z "},"":{"ha":557,"x_min":43,"x_max":514,"o":"m 514 201 q 495 122 514 160 q 446 53 476 83 q 372 3 415 22 q 281 -15 328 -15 q 188 3 232 -15 q 113 53 144 22 q 63 122 82 83 q 43 201 43 160 l 43 897 q 63 977 43 939 q 113 1046 82 1015 q 188 1094 144 1076 q 281 1111 232 1111 q 372 1094 328 1111 q 446 1046 415 1076 q 495 977 476 1015 q 514 897 514 939 l 514 758 q 499 722 514 736 q 461 707 483 707 l 375 707 q 340 722 356 707 q 325 758 325 736 l 325 890 q 313 915 325 907 q 281 924 300 924 q 249 915 261 924 q 236 890 236 907 l 236 207 q 249 183 236 192 q 281 175 261 175 q 313 183 300 175 q 325 207 325 192 l 325 340 q 340 376 325 361 q 375 392 356 392 l 461 392 q 499 376 483 392 q 514 340 514 361 l 514 201 m 246 1346 q 260 1365 253 1358 q 288 1371 268 1371 l 343 1371 q 388 1358 375 1371 q 400 1329 400 1346 q 390 1300 400 1313 l 303 1207 q 274 1188 285 1188 l 225 1188 q 194 1197 203 1188 q 192 1222 185 1207 l 246 1346 z "},"":{"ha":557,"x_min":43,"x_max":514,"o":"m 514 201 q 495 122 514 160 q 446 53 476 83 q 372 3 415 22 q 281 -15 328 -15 q 188 3 232 -15 q 113 53 144 22 q 63 122 82 83 q 43 201 43 160 l 43 897 q 63 977 43 939 q 113 1046 82 1015 q 188 1094 144 1076 q 281 1111 232 1111 q 372 1094 328 1111 q 446 1046 415 1076 q 495 977 476 1015 q 514 897 514 939 l 514 758 q 499 722 514 736 q 461 707 483 707 l 375 707 q 340 722 356 707 q 325 758 325 736 l 325 890 q 313 915 325 907 q 281 924 300 924 q 249 915 261 924 q 236 890 236 907 l 236 207 q 249 183 236 192 q 281 175 261 175 q 313 183 300 175 q 325 207 325 192 l 325 340 q 340 376 325 361 q 375 392 356 392 l 461 392 q 499 376 483 392 q 514 340 514 361 l 514 201 m 60 1322 q 57 1330 58 1328 q 56 1339 56 1332 q 64 1360 56 1350 q 86 1371 72 1371 l 158 1371 q 183 1358 171 1371 l 272 1275 l 281 1275 l 371 1358 q 396 1371 383 1371 l 468 1371 q 490 1362 479 1371 q 500 1339 500 1353 q 493 1322 500 1329 l 379 1213 q 359 1194 368 1200 q 338 1189 350 1189 l 218 1189 q 193 1194 203 1189 q 172 1213 183 1200 l 60 1322 z "},"":{"ha":557,"x_min":43,"x_max":514,"o":"m 514 201 q 495 122 514 160 q 446 53 476 83 q 372 3 415 22 q 281 -15 328 -15 q 188 3 232 -15 q 113 53 144 22 q 63 122 82 83 q 43 201 43 160 l 43 897 q 63 977 43 939 q 113 1046 82 1015 q 188 1094 144 1076 q 281 1111 232 1111 q 372 1094 328 1111 q 446 1046 415 1076 q 495 977 476 1015 q 514 897 514 939 l 514 758 q 499 722 514 736 q 461 707 483 707 l 375 707 q 340 722 356 707 q 325 758 325 736 l 325 890 q 313 915 325 907 q 281 924 300 924 q 249 915 261 924 q 236 890 236 907 l 236 207 q 249 183 236 192 q 281 175 261 175 q 313 183 300 175 q 325 207 325 192 l 325 340 q 340 376 325 361 q 375 392 356 392 l 461 392 q 499 376 483 392 q 514 340 514 361 l 514 201 m 172 1346 q 193 1363 183 1356 q 218 1371 203 1371 l 338 1371 q 359 1365 350 1371 q 379 1346 368 1358 l 493 1236 q 500 1219 500 1231 q 490 1198 500 1207 q 468 1189 479 1189 l 396 1189 q 371 1200 383 1189 l 281 1292 l 272 1292 l 183 1200 q 158 1189 171 1189 l 86 1189 q 64 1198 72 1189 q 56 1221 56 1207 q 57 1227 56 1224 q 60 1236 58 1231 l 172 1346 z "},"":{"ha":557,"x_min":43,"x_max":514,"o":"m 514 201 q 495 122 514 160 q 446 53 476 83 q 372 3 415 22 q 281 -15 328 -15 q 188 3 232 -15 q 113 53 144 22 q 63 122 82 83 q 43 201 43 160 l 43 897 q 63 977 43 939 q 113 1046 82 1015 q 188 1094 144 1076 q 281 1111 232 1111 q 372 1094 328 1111 q 446 1046 415 1076 q 495 977 476 1015 q 514 897 514 939 l 514 758 q 499 722 514 736 q 461 707 483 707 l 375 707 q 340 722 356 707 q 325 758 325 736 l 325 890 q 313 915 325 907 q 281 924 300 924 q 249 915 261 924 q 236 890 236 907 l 236 207 q 249 183 236 192 q 281 175 261 175 q 313 183 300 175 q 325 207 325 192 l 325 340 q 340 376 325 361 q 375 392 356 392 l 461 392 q 499 376 483 392 q 514 340 514 361 l 514 201 m 365 1238 q 350 1202 365 1217 q 314 1188 335 1188 l 242 1188 q 207 1202 222 1188 q 192 1238 192 1217 l 192 1307 q 207 1344 192 1329 q 242 1358 222 1358 l 314 1358 q 350 1344 335 1358 q 365 1307 365 1329 l 365 1238 z "},"":{"ha":567,"x_min":51,"x_max":524,"o":"m 332 858 q 322 893 332 883 q 292 903 311 903 l 242 903 l 242 193 l 292 193 q 322 204 311 193 q 332 236 332 215 l 332 858 m 524 200 q 503 110 524 147 q 451 48 483 72 q 381 12 419 24 q 307 0 343 0 l 101 0 q 67 15 82 0 q 51 50 51 31 l 51 1047 q 67 1083 51 1068 q 101 1099 82 1099 l 307 1099 q 381 1087 343 1099 q 451 1051 419 1075 q 503 988 483 1026 q 524 899 524 950 l 524 200 m 65 1322 q 63 1330 64 1328 q 61 1339 61 1332 q 69 1360 61 1350 q 92 1371 78 1371 l 164 1371 q 189 1358 176 1371 l 278 1275 l 286 1275 l 376 1358 q 401 1371 389 1371 l 474 1371 q 495 1362 485 1371 q 506 1339 506 1353 q 499 1322 506 1329 l 385 1213 q 365 1194 374 1200 q 343 1189 356 1189 l 224 1189 q 199 1194 208 1189 q 178 1213 189 1200 l 65 1322 z "},"":{"ha":469,"x_min":51,"x_max":436,"o":"m 436 50 q 422 15 436 31 q 385 0 407 0 l 101 0 q 67 15 82 0 q 51 50 51 31 l 51 1047 q 67 1083 51 1068 q 101 1099 82 1099 l 385 1099 q 422 1083 407 1099 q 436 1047 436 1068 l 436 968 q 422 933 436 947 q 385 918 407 918 l 242 918 l 242 667 l 317 667 q 354 653 340 667 q 368 615 368 639 l 368 524 q 354 487 368 501 q 317 472 340 472 l 242 472 l 242 194 l 385 194 q 422 180 407 194 q 436 143 436 165 l 436 50 m 235 1296 q 293 1303 268 1296 q 329 1339 318 1311 q 342 1363 335 1353 q 365 1372 350 1372 l 390 1372 q 413 1363 404 1372 q 421 1338 421 1353 q 357 1224 408 1263 q 235 1186 306 1186 q 116 1225 167 1186 q 54 1340 65 1264 q 63 1363 54 1353 q 83 1372 71 1372 l 108 1372 q 132 1363 124 1372 q 146 1339 140 1353 q 180 1303 156 1311 q 235 1296 204 1296 z "},"":{"ha":469,"x_min":15,"x_max":460,"o":"m 436 50 q 422 15 436 31 q 385 0 407 0 l 101 0 q 67 15 82 0 q 51 50 51 31 l 51 1047 q 67 1083 51 1068 q 101 1099 82 1099 l 385 1099 q 422 1083 407 1099 q 436 1047 436 1068 l 436 968 q 422 933 436 947 q 385 918 407 918 l 242 918 l 242 667 l 317 667 q 354 653 340 667 q 368 615 368 639 l 368 524 q 354 487 368 501 q 317 472 340 472 l 242 472 l 242 194 l 385 194 q 422 180 407 194 q 436 143 436 165 l 436 50 m 19 1322 q 17 1330 18 1328 q 15 1339 15 1332 q 24 1360 15 1350 q 46 1371 32 1371 l 118 1371 q 143 1358 131 1371 l 232 1275 l 240 1275 l 331 1358 q 356 1371 343 1371 l 428 1371 q 449 1362 439 1371 q 460 1339 460 1353 q 453 1322 460 1329 l 339 1213 q 319 1194 328 1200 q 297 1189 310 1189 l 178 1189 q 153 1194 163 1189 q 132 1213 143 1200 l 19 1322 z "},"":{"ha":469,"x_min":51,"x_max":436,"o":"m 436 50 q 422 15 436 31 q 385 0 407 0 l 101 0 q 67 15 82 0 q 51 50 51 31 l 51 1047 q 67 1083 51 1068 q 101 1099 82 1099 l 385 1099 q 422 1083 407 1099 q 436 1047 436 1068 l 436 968 q 422 933 436 947 q 385 918 407 918 l 242 918 l 242 667 l 317 667 q 354 653 340 667 q 368 615 368 639 l 368 524 q 354 487 368 501 q 317 472 340 472 l 242 472 l 242 194 l 385 194 q 422 180 407 194 q 436 143 436 165 l 436 50 m 322 1238 q 307 1202 322 1217 q 271 1188 292 1188 l 199 1188 q 164 1202 179 1188 q 149 1238 149 1217 l 149 1307 q 164 1344 149 1329 q 199 1358 179 1358 l 271 1358 q 307 1344 292 1358 q 322 1307 322 1329 l 322 1238 z "},"":{"ha":469,"x_min":51,"x_max":436,"o":"m 436 50 q 422 15 436 31 q 385 0 407 0 l 101 0 q 67 15 82 0 q 51 50 51 31 l 51 1047 q 67 1083 51 1068 q 101 1099 82 1099 l 385 1099 q 422 1083 407 1099 q 436 1047 436 1068 l 436 968 q 422 933 436 947 q 385 918 407 918 l 242 918 l 242 667 l 317 667 q 354 653 340 667 q 368 615 368 639 l 368 524 q 354 487 368 501 q 317 472 340 472 l 242 472 l 242 194 l 385 194 q 422 180 407 194 q 436 143 436 165 l 436 50 m 392 1239 q 377 1204 392 1219 q 340 1189 363 1189 l 129 1189 q 94 1204 108 1189 q 79 1239 79 1219 l 79 1261 q 94 1296 79 1281 q 129 1311 108 1311 l 340 1311 q 377 1296 363 1311 q 392 1261 392 1281 l 392 1239 z "},"":{"ha":469,"x_min":51,"x_max":439,"o":"m 436 50 q 422 15 436 31 q 385 0 407 0 l 101 0 q 67 15 82 0 q 51 50 51 31 l 51 1047 q 67 1083 51 1068 q 101 1099 82 1099 l 385 1099 q 422 1083 407 1099 q 436 1047 436 1068 l 436 968 q 422 933 436 947 q 385 918 407 918 l 242 918 l 242 667 l 317 667 q 354 653 340 667 q 368 615 368 639 l 368 524 q 354 487 368 501 q 317 472 340 472 l 242 472 l 242 194 l 385 194 q 422 180 407 194 q 436 143 436 165 l 436 50 m 431 -232 q 375 -258 403 -249 q 319 -267 347 -267 q 231 -165 231 -267 q 303 0 231 -94 l 364 0 q 315 -144 315 -93 q 358 -197 315 -197 q 382 -194 369 -197 q 407 -190 394 -190 q 429 -198 419 -190 q 439 -215 439 -206 q 437 -223 439 -218 q 431 -232 435 -228 z "},"":{"ha":564,"x_min":43,"x_max":514,"o":"m 514 50 q 499 15 514 31 q 461 0 483 0 l 425 0 q 397 17 406 0 l 386 39 l 375 39 q 323 2 357 19 q 251 -15 289 -15 q 167 1 206 -15 q 101 47 128 18 q 58 116 74 76 q 43 201 43 156 l 43 897 q 60 977 43 939 q 110 1046 78 1015 q 184 1094 142 1076 q 275 1111 226 1111 q 366 1094 324 1111 q 440 1046 408 1076 q 490 977 472 1015 q 507 897 507 939 l 507 750 q 492 714 507 728 q 457 700 476 700 l 369 700 q 335 714 350 700 q 319 750 319 728 l 319 890 q 307 915 319 907 q 275 924 294 924 q 243 915 256 924 q 231 890 231 907 l 231 192 q 243 168 231 178 q 275 158 256 158 q 307 168 294 158 q 319 192 319 178 l 319 376 l 311 376 q 290 387 299 376 q 281 408 281 397 l 281 485 q 295 522 281 507 q 331 536 310 536 l 461 536 q 499 522 483 536 q 514 485 514 507 l 514 50 m 279 1296 q 338 1303 313 1296 q 374 1339 363 1311 q 387 1363 379 1353 q 410 1372 394 1372 l 435 1372 q 457 1363 449 1372 q 465 1338 465 1353 q 401 1224 453 1263 q 279 1186 350 1186 q 160 1225 211 1186 q 99 1340 110 1264 q 107 1363 99 1353 q 128 1372 115 1372 l 153 1372 q 176 1363 168 1372 q 190 1339 185 1353 q 224 1303 200 1311 q 279 1296 249 1296 z "},"":{"ha":564,"x_min":43,"x_max":514,"o":"m 514 50 q 499 15 514 31 q 461 0 483 0 l 425 0 q 397 17 406 0 l 386 39 l 375 39 q 323 2 357 19 q 251 -15 289 -15 q 167 1 206 -15 q 101 47 128 18 q 58 116 74 76 q 43 201 43 156 l 43 897 q 60 977 43 939 q 110 1046 78 1015 q 184 1094 142 1076 q 275 1111 226 1111 q 366 1094 324 1111 q 440 1046 408 1076 q 490 977 472 1015 q 507 897 507 939 l 507 750 q 492 714 507 728 q 457 700 476 700 l 369 700 q 335 714 350 700 q 319 750 319 728 l 319 890 q 307 915 319 907 q 275 924 294 924 q 243 915 256 924 q 231 890 231 907 l 231 192 q 243 168 231 178 q 275 158 256 158 q 307 168 294 158 q 319 192 319 178 l 319 376 l 311 376 q 290 387 299 376 q 281 408 281 397 l 281 485 q 295 522 281 507 q 331 536 310 536 l 461 536 q 499 522 483 536 q 514 485 514 507 l 514 50 m 176 1346 q 197 1363 188 1356 q 222 1371 207 1371 l 342 1371 q 363 1365 354 1371 q 383 1346 372 1358 l 497 1236 q 504 1219 504 1231 q 494 1198 504 1207 q 472 1189 483 1189 l 400 1189 q 375 1200 388 1189 l 285 1292 l 276 1292 l 188 1200 q 163 1189 175 1189 l 90 1189 q 68 1198 76 1189 q 60 1221 60 1207 q 61 1227 60 1224 q 64 1236 63 1231 l 176 1346 z "},"":{"ha":564,"x_min":43,"x_max":514,"o":"m 514 50 q 499 15 514 31 q 461 0 483 0 l 425 0 q 397 17 406 0 l 386 39 l 375 39 q 323 2 357 19 q 251 -15 289 -15 q 167 1 206 -15 q 101 47 128 18 q 58 116 74 76 q 43 201 43 156 l 43 897 q 60 977 43 939 q 110 1046 78 1015 q 184 1094 142 1076 q 275 1111 226 1111 q 366 1094 324 1111 q 440 1046 408 1076 q 490 977 472 1015 q 507 897 507 939 l 507 750 q 492 714 507 728 q 457 700 476 700 l 369 700 q 335 714 350 700 q 319 750 319 728 l 319 890 q 307 915 319 907 q 275 924 294 924 q 243 915 256 924 q 231 890 231 907 l 231 192 q 243 168 231 178 q 275 158 256 158 q 307 168 294 158 q 319 192 319 178 l 319 376 l 311 376 q 290 387 299 376 q 281 408 281 397 l 281 485 q 295 522 281 507 q 331 536 310 536 l 461 536 q 499 522 483 536 q 514 485 514 507 l 514 50 m 368 1238 q 353 1202 368 1217 q 317 1188 338 1188 l 244 1188 q 210 1202 225 1188 q 194 1238 194 1217 l 194 1307 q 210 1344 194 1329 q 244 1358 225 1358 l 317 1358 q 353 1344 338 1358 q 368 1307 368 1329 l 368 1238 z "},"":{"ha":586,"x_min":51,"x_max":535,"o":"m 535 50 q 520 15 535 31 q 483 0 506 0 l 393 0 q 358 15 374 0 q 343 50 343 31 l 343 443 l 242 443 l 242 50 q 226 15 242 31 q 190 0 211 0 l 101 0 q 67 15 82 0 q 51 50 51 31 l 51 1047 q 67 1083 51 1068 q 101 1099 82 1099 l 190 1099 q 226 1083 211 1099 q 242 1047 242 1068 l 242 639 l 343 639 l 343 1047 q 358 1083 343 1068 q 393 1099 374 1099 l 483 1099 q 520 1083 506 1099 q 535 1047 535 1068 l 535 50 m 188 1346 q 208 1363 199 1356 q 233 1371 218 1371 l 353 1371 q 374 1365 365 1371 q 394 1346 383 1358 l 508 1236 q 515 1219 515 1231 q 505 1198 515 1207 q 483 1189 494 1189 l 411 1189 q 386 1200 399 1189 l 296 1292 l 288 1292 l 199 1200 q 174 1189 186 1189 l 101 1189 q 79 1198 88 1189 q 71 1221 71 1207 q 72 1227 71 1224 q 75 1236 74 1231 l 188 1346 z "},"":{"ha":310,"x_min":-26,"x_max":340,"o":"m 249 50 q 234 15 249 31 q 197 0 219 0 l 110 0 q 74 15 89 0 q 60 50 60 31 l 60 1047 q 74 1083 60 1068 q 110 1099 89 1099 l 197 1099 q 234 1083 219 1099 q 249 1047 249 1068 l 249 50 m 154 1296 q 213 1303 188 1296 q 249 1339 238 1311 q 262 1363 254 1353 q 285 1372 269 1372 l 310 1372 q 332 1363 324 1372 q 340 1338 340 1353 q 276 1224 328 1263 q 154 1186 225 1186 q 35 1225 86 1186 q -26 1340 -15 1264 q -18 1363 -26 1353 q 3 1372 -10 1372 l 28 1372 q 51 1363 43 1372 q 65 1339 60 1353 q 99 1303 75 1311 q 154 1296 124 1296 z "},"":{"ha":310,"x_min":60,"x_max":249,"o":"m 249 50 q 234 15 249 31 q 197 0 219 0 l 110 0 q 74 15 89 0 q 60 50 60 31 l 60 1047 q 74 1083 60 1068 q 110 1099 89 1099 l 197 1099 q 234 1083 219 1099 q 249 1047 249 1068 l 249 50 m 242 1238 q 226 1202 242 1217 q 190 1188 211 1188 l 118 1188 q 83 1202 99 1188 q 68 1238 68 1217 l 68 1307 q 83 1344 68 1329 q 118 1358 99 1358 l 190 1358 q 226 1344 211 1358 q 242 1307 242 1329 l 242 1238 z "},"":{"ha":310,"x_min":0,"x_max":313,"o":"m 249 50 q 234 15 249 31 q 197 0 219 0 l 110 0 q 74 15 89 0 q 60 50 60 31 l 60 1047 q 74 1083 60 1068 q 110 1099 89 1099 l 197 1099 q 234 1083 219 1099 q 249 1047 249 1068 l 249 50 m 313 1239 q 298 1204 313 1219 q 261 1189 283 1189 l 50 1189 q 15 1204 29 1189 q 0 1239 0 1219 l 0 1261 q 15 1296 0 1281 q 50 1311 29 1311 l 261 1311 q 298 1296 283 1311 q 313 1261 313 1281 l 313 1239 z "},"":{"ha":310,"x_min":60,"x_max":276,"o":"m 249 50 q 234 15 249 31 q 197 0 219 0 l 110 0 q 74 15 89 0 q 60 50 60 31 l 60 1047 q 74 1083 60 1068 q 110 1099 89 1099 l 197 1099 q 234 1083 219 1099 q 249 1047 249 1068 l 249 50 m 268 -232 q 213 -258 240 -249 q 157 -267 185 -267 q 68 -165 68 -267 q 140 0 68 -94 l 201 0 q 153 -144 153 -93 q 196 -197 153 -197 q 219 -194 207 -197 q 244 -190 232 -190 q 267 -198 257 -190 q 276 -215 276 -206 q 274 -223 276 -218 q 268 -232 272 -228 z "},"":{"ha":310,"x_min":-61,"x_max":375,"o":"m 249 50 q 234 15 249 31 q 197 0 219 0 l 110 0 q 74 15 89 0 q 60 50 60 31 l 60 1047 q 74 1083 60 1068 q 110 1099 89 1099 l 197 1099 q 234 1083 219 1099 q 249 1047 249 1068 l 249 50 m 375 1331 q 251 1183 363 1183 q 142 1224 200 1183 q 90 1247 106 1247 q 58 1238 68 1247 q 43 1218 49 1229 q 31 1198 38 1207 q 10 1189 25 1189 l -35 1189 q -55 1199 -49 1189 q -61 1222 -61 1208 l -61 1228 q 63 1372 -50 1372 q 117 1363 90 1372 q 174 1332 143 1353 q 203 1317 190 1322 q 225 1311 217 1311 q 255 1320 246 1311 q 270 1341 264 1329 q 283 1362 276 1353 q 301 1371 290 1371 l 349 1371 q 369 1360 363 1371 q 375 1336 375 1350 l 375 1331 z "},"":{"ha":544,"x_min":32,"x_max":628,"o":"m 501 201 q 483 122 501 160 q 432 53 465 83 q 356 3 399 22 q 267 -15 314 -15 q 174 3 217 -15 q 100 53 132 22 q 50 122 68 83 q 32 201 32 160 l 32 372 q 47 408 32 393 q 83 424 61 424 l 168 424 q 206 408 192 424 q 219 372 219 393 l 219 215 q 233 190 219 199 q 267 181 247 181 q 297 190 285 181 q 310 215 310 199 l 310 1047 q 325 1083 310 1068 q 360 1099 340 1099 l 450 1099 q 487 1083 472 1099 q 501 1047 501 1068 l 501 201 m 300 1346 q 321 1363 311 1356 q 346 1371 331 1371 l 465 1371 q 487 1365 478 1371 q 507 1346 496 1358 l 621 1236 q 628 1219 628 1231 q 617 1198 628 1207 q 596 1189 607 1189 l 524 1189 q 499 1200 511 1189 l 408 1292 l 400 1292 l 311 1200 q 286 1189 299 1189 l 214 1189 q 192 1198 200 1189 q 183 1221 183 1207 q 185 1227 183 1224 q 188 1236 186 1231 l 300 1346 z "},"":{"ha":189,"x_min":15,"x_max":175,"o":"m 174 -111 l 107 -264 q 100 -275 106 -269 q 91 -282 97 -278 q 76 -286 85 -286 l 47 -286 q 25 -276 35 -286 q 15 -256 15 -267 l 25 -94 q 40 -61 25 -75 q 75 -47 56 -47 l 124 -47 q 160 -62 144 -47 q 175 -97 175 -76 q 174 -111 175 -101 z "},"":{"ha":564,"x_min":43,"x_max":514,"o":"m 514 50 q 499 15 514 31 q 461 0 483 0 l 425 0 q 397 17 406 0 l 386 39 l 375 39 q 323 2 357 19 q 251 -15 289 -15 q 167 1 206 -15 q 101 47 128 18 q 58 116 74 76 q 43 201 43 156 l 43 897 q 60 977 43 939 q 110 1046 78 1015 q 184 1094 142 1076 q 275 1111 226 1111 q 366 1094 324 1111 q 440 1046 408 1076 q 490 977 472 1015 q 507 897 507 939 l 507 750 q 492 714 507 728 q 457 700 476 700 l 369 700 q 335 714 350 700 q 319 750 319 728 l 319 890 q 307 915 319 907 q 275 924 294 924 q 243 915 256 924 q 231 890 231 907 l 231 192 q 243 168 231 178 q 275 158 256 158 q 307 168 294 158 q 319 192 319 178 l 319 376 l 311 376 q 290 387 299 376 q 281 408 281 397 l 281 485 q 295 522 281 507 q 331 536 310 536 l 461 536 q 499 522 483 536 q 514 485 514 507 l 514 50 m 358 -111 l 292 -264 q 285 -275 290 -269 q 276 -282 282 -278 q 261 -286 269 -286 l 232 -286 q 210 -276 219 -286 q 200 -256 200 -267 l 210 -94 q 225 -61 210 -75 q 260 -47 240 -47 l 308 -47 q 344 -62 329 -47 q 360 -97 360 -76 q 358 -111 360 -101 z "},"":{"ha":576,"x_min":51,"x_max":550,"o":"m 549 64 q 550 50 550 58 q 536 15 550 31 q 500 0 522 0 l 417 0 q 383 12 397 0 q 367 42 369 24 l 294 400 l 283 400 l 243 260 l 243 50 q 228 15 243 31 q 192 0 214 0 l 101 0 q 67 15 82 0 q 51 50 51 31 l 51 1047 q 67 1083 51 1068 q 101 1099 82 1099 l 192 1099 q 228 1083 214 1099 q 243 1047 243 1068 l 243 603 l 256 603 q 302 831 276 718 q 353 1058 328 943 q 372 1088 357 1076 q 403 1099 386 1099 l 478 1099 q 514 1083 500 1099 q 528 1047 528 1067 q 528 1033 528 1039 l 417 594 l 549 64 m 367 -111 l 300 -264 q 293 -275 299 -269 q 284 -282 290 -278 q 269 -286 278 -286 l 240 -286 q 218 -276 228 -286 q 208 -256 208 -267 l 218 -94 q 233 -61 218 -75 q 268 -47 249 -47 l 317 -47 q 353 -62 338 -47 q 368 -97 368 -76 q 367 -111 368 -101 z "},"":{"ha":465,"x_min":51,"x_max":436,"o":"m 436 50 q 422 15 436 31 q 385 0 407 0 l 101 0 q 67 15 82 0 q 51 50 51 31 l 51 1047 q 67 1083 51 1068 q 101 1099 82 1099 l 192 1099 q 228 1083 214 1099 q 243 1047 243 1068 l 243 194 l 385 194 q 422 180 407 194 q 436 143 436 165 l 436 50 m 161 1346 q 176 1365 168 1358 q 203 1371 183 1371 l 258 1371 q 303 1358 290 1371 q 315 1329 315 1346 q 306 1300 315 1313 l 218 1207 q 189 1188 200 1188 l 140 1188 q 109 1197 118 1188 q 107 1222 100 1207 l 161 1346 z "},"":{"ha":465,"x_min":-72,"x_max":436,"o":"m 436 50 q 422 15 436 31 q 385 0 407 0 l 101 0 q 67 15 82 0 q 51 50 51 31 l 51 1047 q 67 1083 51 1068 q 101 1099 82 1099 l 192 1099 q 228 1083 214 1099 q 243 1047 243 1068 l 243 194 l 385 194 q 422 180 407 194 q 436 143 436 165 l 436 50 m -68 1322 q -71 1330 -69 1328 q -72 1339 -72 1332 q -64 1360 -72 1350 q -42 1371 -56 1371 l 31 1371 q 56 1358 43 1371 l 144 1275 l 153 1275 l 243 1358 q 268 1371 256 1371 l 340 1371 q 362 1362 351 1371 q 372 1339 372 1353 q 365 1322 372 1329 l 251 1213 q 231 1194 240 1200 q 210 1189 222 1189 l 90 1189 q 65 1194 75 1189 q 44 1213 56 1200 l -68 1322 z "},"":{"ha":465,"x_min":51,"x_max":436,"o":"m 436 50 q 422 15 436 31 q 385 0 407 0 l 101 0 q 67 15 82 0 q 51 50 51 31 l 51 1047 q 67 1083 51 1068 q 101 1099 82 1099 l 192 1099 q 228 1083 214 1099 q 243 1047 243 1068 l 243 194 l 385 194 q 422 180 407 194 q 436 143 436 165 l 436 50 m 308 -111 l 242 -264 q 235 -275 240 -269 q 226 -282 232 -278 q 211 -286 219 -286 l 182 -286 q 160 -276 169 -286 q 150 -256 150 -267 l 160 -94 q 175 -61 160 -75 q 210 -47 190 -47 l 258 -47 q 294 -62 279 -47 q 310 -97 310 -76 q 308 -111 310 -101 z "},"":{"ha":465,"x_min":51,"x_max":449,"o":"m 436 50 q 422 15 436 31 q 385 0 407 0 l 101 0 q 67 15 82 0 q 51 50 51 31 l 51 1047 q 67 1083 51 1068 q 101 1099 82 1099 l 192 1099 q 228 1083 214 1099 q 243 1047 243 1068 l 243 194 l 385 194 q 422 180 407 194 q 436 143 436 165 l 436 50 m 449 769 q 433 735 449 750 q 397 719 418 719 l 325 719 q 290 735 306 719 q 275 769 275 750 l 275 885 q 290 921 275 906 q 325 936 306 936 l 397 936 q 433 921 418 936 q 449 885 449 906 l 449 769 z "},"":{"ha":606,"x_min":51,"x_max":556,"o":"m 556 50 q 540 15 556 31 q 503 0 525 0 l 426 0 q 396 10 408 0 q 376 36 383 19 l 219 557 l 208 557 l 208 50 q 193 15 208 31 q 157 0 178 0 l 101 0 q 67 15 82 0 q 51 50 51 31 l 51 1047 q 67 1083 51 1068 q 101 1099 82 1099 l 185 1099 q 215 1088 203 1099 q 233 1060 228 1078 l 386 528 l 397 528 l 397 1047 q 412 1083 397 1068 q 447 1099 426 1099 l 503 1099 q 540 1083 525 1099 q 556 1047 556 1068 l 556 50 m 271 1346 q 285 1365 278 1358 q 313 1371 293 1371 l 368 1371 q 413 1358 400 1371 q 425 1329 425 1346 q 415 1300 425 1313 l 328 1207 q 299 1188 310 1188 l 250 1188 q 219 1197 228 1188 q 217 1222 210 1207 l 271 1346 z "},"":{"ha":606,"x_min":51,"x_max":556,"o":"m 556 50 q 540 15 556 31 q 503 0 525 0 l 426 0 q 396 10 408 0 q 376 36 383 19 l 219 557 l 208 557 l 208 50 q 193 15 208 31 q 157 0 178 0 l 101 0 q 67 15 82 0 q 51 50 51 31 l 51 1047 q 67 1083 51 1068 q 101 1099 82 1099 l 185 1099 q 215 1088 203 1099 q 233 1060 228 1078 l 386 528 l 397 528 l 397 1047 q 412 1083 397 1068 q 447 1099 426 1099 l 503 1099 q 540 1083 525 1099 q 556 1047 556 1068 l 556 50 m 83 1322 q 81 1330 82 1328 q 79 1339 79 1332 q 88 1360 79 1350 q 110 1371 96 1371 l 182 1371 q 207 1358 194 1371 l 296 1275 l 304 1275 l 394 1358 q 419 1371 407 1371 l 492 1371 q 513 1362 503 1371 q 524 1339 524 1353 q 517 1322 524 1329 l 403 1213 q 383 1194 392 1200 q 361 1189 374 1189 l 242 1189 q 217 1194 226 1189 q 196 1213 207 1200 l 83 1322 z "},"":{"ha":606,"x_min":51,"x_max":556,"o":"m 556 50 q 540 15 556 31 q 503 0 525 0 l 426 0 q 396 10 408 0 q 376 36 383 19 l 219 557 l 208 557 l 208 50 q 193 15 208 31 q 157 0 178 0 l 101 0 q 67 15 82 0 q 51 50 51 31 l 51 1047 q 67 1083 51 1068 q 101 1099 82 1099 l 185 1099 q 215 1088 203 1099 q 233 1060 228 1078 l 386 528 l 397 528 l 397 1047 q 412 1083 397 1068 q 447 1099 426 1099 l 503 1099 q 540 1083 525 1099 q 556 1047 556 1068 l 556 50 m 381 -111 l 314 -264 q 307 -275 313 -269 q 298 -282 304 -278 q 283 -286 292 -286 l 254 -286 q 232 -276 242 -286 q 222 -256 222 -267 l 232 -94 q 247 -61 232 -75 q 282 -47 263 -47 l 331 -47 q 367 -62 351 -47 q 382 -97 382 -76 q 381 -111 382 -101 z "},"":{"ha":553,"x_min":43,"x_max":510,"o":"m 510 215 q 492 133 510 175 q 442 58 474 92 q 368 5 410 25 q 276 -15 326 -15 q 185 5 226 -15 q 112 58 143 25 q 62 133 81 92 q 43 215 43 175 l 43 883 q 62 965 43 924 q 112 1040 81 1007 q 185 1092 143 1072 q 276 1111 226 1111 q 368 1092 326 1111 q 442 1040 410 1072 q 492 965 474 1007 q 510 883 510 924 l 510 215 m 322 890 q 310 915 322 907 q 276 924 297 924 q 244 915 257 924 q 232 890 232 907 l 232 207 q 244 183 232 192 q 276 175 257 175 q 310 183 297 175 q 322 207 322 192 l 322 890 m 272 1296 q 331 1303 306 1296 q 367 1339 356 1311 q 380 1363 372 1353 q 403 1372 388 1372 l 428 1372 q 450 1363 442 1372 q 458 1338 458 1353 q 394 1224 446 1263 q 272 1186 343 1186 q 153 1225 204 1186 q 92 1340 103 1264 q 100 1363 92 1353 q 121 1372 108 1372 l 146 1372 q 169 1363 161 1372 q 183 1339 178 1353 q 217 1303 193 1311 q 272 1296 242 1296 z "},"":{"ha":553,"x_min":43,"x_max":510,"o":"m 510 215 q 492 133 510 175 q 442 58 474 92 q 368 5 410 25 q 276 -15 326 -15 q 185 5 226 -15 q 112 58 143 25 q 62 133 81 92 q 43 215 43 175 l 43 883 q 62 965 43 924 q 112 1040 81 1007 q 185 1092 143 1072 q 276 1111 226 1111 q 368 1092 326 1111 q 442 1040 410 1072 q 492 965 474 1007 q 510 883 510 924 l 510 215 m 322 890 q 310 915 322 907 q 276 924 297 924 q 244 915 257 924 q 232 890 232 907 l 232 207 q 244 183 232 192 q 276 175 257 175 q 310 183 297 175 q 322 207 322 192 l 322 890 m 200 1322 q 215 1343 206 1333 q 239 1353 225 1353 l 274 1353 q 295 1344 288 1353 q 303 1324 303 1336 q 301 1322 303 1322 q 300 1317 300 1321 l 296 1306 l 231 1200 q 208 1188 222 1188 l 178 1188 q 166 1192 171 1188 q 161 1204 161 1196 q 161 1207 161 1207 q 161 1211 161 1207 l 200 1322 m 364 1322 q 380 1343 369 1333 q 403 1353 390 1353 l 438 1353 q 457 1344 450 1353 q 464 1324 464 1336 q 464 1322 464 1322 q 464 1317 464 1321 l 458 1306 l 394 1200 q 372 1188 386 1188 l 340 1188 q 327 1192 332 1188 q 322 1204 322 1196 q 323 1207 322 1207 q 324 1211 324 1207 l 364 1322 z "},"":{"ha":553,"x_min":43,"x_max":510,"o":"m 510 215 q 492 133 510 175 q 442 58 474 92 q 368 5 410 25 q 276 -15 326 -15 q 185 5 226 -15 q 112 58 143 25 q 62 133 81 92 q 43 215 43 175 l 43 883 q 62 965 43 924 q 112 1040 81 1007 q 185 1092 143 1072 q 276 1111 226 1111 q 368 1092 326 1111 q 442 1040 410 1072 q 492 965 474 1007 q 510 883 510 924 l 510 215 m 322 890 q 310 915 322 907 q 276 924 297 924 q 244 915 257 924 q 232 890 232 907 l 232 207 q 244 183 232 192 q 276 175 257 175 q 310 183 297 175 q 322 207 322 192 l 322 890 m 433 1239 q 419 1204 433 1219 q 382 1189 404 1189 l 171 1189 q 135 1204 150 1189 q 121 1239 121 1219 l 121 1261 q 135 1296 121 1281 q 171 1311 150 1311 l 382 1311 q 419 1296 404 1311 q 433 1261 433 1281 l 433 1239 z "},"":{"ha":549,"x_min":51,"x_max":524,"o":"m 317 858 q 306 893 317 883 q 276 903 294 903 l 242 903 l 242 625 l 276 625 q 317 668 317 625 l 317 858 m 517 56 q 506 17 524 33 q 467 0 489 0 l 383 0 q 353 8 367 0 q 336 33 340 17 q 319 169 319 100 l 319 400 q 308 431 319 418 q 274 443 297 443 l 242 443 l 242 50 q 226 15 242 31 q 190 0 211 0 l 101 0 q 67 15 82 0 q 51 50 51 31 l 51 1047 q 67 1083 51 1068 q 101 1099 82 1099 l 292 1099 q 364 1087 326 1099 q 431 1051 401 1075 q 480 988 460 1026 q 500 899 500 950 l 500 651 q 478 581 500 611 q 418 531 457 551 l 419 531 q 481 480 457 510 q 506 410 506 450 l 506 185 q 508 117 506 149 q 517 56 511 85 m 242 1346 q 256 1365 249 1358 q 283 1371 264 1371 l 339 1371 q 383 1358 371 1371 q 396 1329 396 1346 q 386 1300 396 1313 l 299 1207 q 269 1188 281 1188 l 221 1188 q 190 1197 199 1188 q 188 1222 181 1207 l 242 1346 z "},"":{"ha":549,"x_min":51,"x_max":524,"o":"m 317 858 q 306 893 317 883 q 276 903 294 903 l 242 903 l 242 625 l 276 625 q 317 668 317 625 l 317 858 m 517 56 q 506 17 524 33 q 467 0 489 0 l 383 0 q 353 8 367 0 q 336 33 340 17 q 319 169 319 100 l 319 400 q 308 431 319 418 q 274 443 297 443 l 242 443 l 242 50 q 226 15 242 31 q 190 0 211 0 l 101 0 q 67 15 82 0 q 51 50 51 31 l 51 1047 q 67 1083 51 1068 q 101 1099 82 1099 l 292 1099 q 364 1087 326 1099 q 431 1051 401 1075 q 480 988 460 1026 q 500 899 500 950 l 500 651 q 478 581 500 611 q 418 531 457 551 l 419 531 q 481 480 457 510 q 506 410 506 450 l 506 185 q 508 117 506 149 q 517 56 511 85 m 57 1322 q 54 1330 56 1328 q 53 1339 53 1332 q 61 1360 53 1350 q 83 1371 69 1371 l 156 1371 q 181 1358 168 1371 l 269 1275 l 278 1275 l 368 1358 q 393 1371 381 1371 l 465 1371 q 487 1362 476 1371 q 497 1339 497 1353 q 490 1322 497 1329 l 376 1213 q 356 1194 365 1200 q 335 1189 347 1189 l 215 1189 q 190 1194 200 1189 q 169 1213 181 1200 l 57 1322 z "},"":{"ha":549,"x_min":51,"x_max":524,"o":"m 317 858 q 306 893 317 883 q 276 903 294 903 l 242 903 l 242 625 l 276 625 q 317 668 317 625 l 317 858 m 517 56 q 506 17 524 33 q 467 0 489 0 l 383 0 q 353 8 367 0 q 336 33 340 17 q 319 169 319 100 l 319 400 q 308 431 319 418 q 274 443 297 443 l 242 443 l 242 50 q 226 15 242 31 q 190 0 211 0 l 101 0 q 67 15 82 0 q 51 50 51 31 l 51 1047 q 67 1083 51 1068 q 101 1099 82 1099 l 292 1099 q 364 1087 326 1099 q 431 1051 401 1075 q 480 988 460 1026 q 500 899 500 950 l 500 651 q 478 581 500 611 q 418 531 457 551 l 419 531 q 481 480 457 510 q 506 410 506 450 l 506 185 q 508 117 506 149 q 517 56 511 85 m 351 -111 l 285 -264 q 278 -275 283 -269 q 269 -282 275 -278 q 254 -286 263 -286 l 225 -286 q 203 -276 213 -286 q 193 -256 193 -267 l 203 -94 q 218 -61 203 -75 q 253 -47 233 -47 l 301 -47 q 338 -62 322 -47 q 353 -97 353 -76 q 351 -111 353 -101 z "},"":{"ha":556,"x_min":24,"x_max":517,"o":"m 517 256 q 501 153 517 201 q 454 69 485 106 q 378 8 424 32 q 276 -15 333 -15 q 173 3 219 -15 q 93 53 126 22 q 42 122 60 83 q 24 201 24 160 l 24 275 q 38 312 24 297 q 74 326 53 326 l 149 326 q 185 312 169 326 q 200 275 200 297 l 200 247 q 218 195 200 215 q 267 175 236 175 q 328 247 328 175 q 319 310 328 278 q 291 374 310 342 q 245 437 272 406 q 185 507 218 468 q 76 663 117 578 q 35 843 35 749 q 51 949 35 900 q 99 1034 67 999 q 176 1090 131 1069 q 282 1111 222 1111 q 373 1094 331 1111 q 446 1046 415 1076 q 494 977 476 1015 q 511 897 511 939 l 511 822 q 497 787 511 801 q 460 772 483 772 l 385 772 q 349 787 364 772 q 335 822 335 801 l 335 860 q 320 906 335 889 q 282 924 306 924 q 241 906 258 924 q 224 860 224 889 q 229 807 224 831 q 248 758 235 783 q 285 700 261 732 q 347 622 310 668 q 353 612 350 617 q 360 603 357 607 q 418 529 389 567 q 469 449 447 492 q 503 358 490 407 q 517 256 517 310 m 244 1346 q 259 1365 251 1358 q 286 1371 267 1371 l 342 1371 q 386 1358 374 1371 q 399 1329 399 1346 q 389 1300 399 1313 l 301 1207 q 272 1188 283 1188 l 224 1188 q 192 1197 201 1188 q 190 1222 183 1207 l 244 1346 z "},"":{"ha":556,"x_min":24,"x_max":517,"o":"m 517 256 q 501 153 517 201 q 454 69 485 106 q 378 8 424 32 q 276 -15 333 -15 q 173 3 219 -15 q 93 53 126 22 q 42 122 60 83 q 24 201 24 160 l 24 275 q 38 312 24 297 q 74 326 53 326 l 149 326 q 185 312 169 326 q 200 275 200 297 l 200 247 q 218 195 200 215 q 267 175 236 175 q 328 247 328 175 q 319 310 328 278 q 291 374 310 342 q 245 437 272 406 q 185 507 218 468 q 76 663 117 578 q 35 843 35 749 q 51 949 35 900 q 99 1034 67 999 q 176 1090 131 1069 q 282 1111 222 1111 q 373 1094 331 1111 q 446 1046 415 1076 q 494 977 476 1015 q 511 897 511 939 l 511 822 q 497 787 511 801 q 460 772 483 772 l 385 772 q 349 787 364 772 q 335 822 335 801 l 335 860 q 320 906 335 889 q 282 924 306 924 q 241 906 258 924 q 224 860 224 889 q 229 807 224 831 q 248 758 235 783 q 285 700 261 732 q 347 622 310 668 q 353 612 350 617 q 360 603 357 607 q 418 529 389 567 q 469 449 447 492 q 503 358 490 407 q 517 256 517 310 m 358 -194 q 337 -261 358 -236 q 276 -286 315 -286 q 219 -261 242 -286 q 197 -194 197 -236 q 203 -175 197 -183 q 224 -167 210 -167 l 228 -167 q 249 -175 242 -167 q 256 -194 256 -183 l 256 -215 q 262 -228 256 -224 q 276 -232 268 -232 q 292 -228 285 -232 q 299 -215 299 -224 l 299 -111 q 292 -100 299 -106 q 276 -94 285 -94 q 258 -106 264 -94 q 250 -111 257 -111 l 224 -110 q 203 -101 210 -110 q 197 -81 197 -93 l 201 25 l 264 25 l 258 -53 l 267 -53 q 287 -44 276 -44 q 307 -43 297 -43 q 343 -59 328 -43 q 358 -106 358 -75 l 358 -194 z "},"":{"ha":556,"x_min":24,"x_max":517,"o":"m 517 256 q 501 153 517 201 q 454 69 485 106 q 378 8 424 32 q 276 -15 333 -15 q 173 3 219 -15 q 93 53 126 22 q 42 122 60 83 q 24 201 24 160 l 24 275 q 38 312 24 297 q 74 326 53 326 l 149 326 q 185 312 169 326 q 200 275 200 297 l 200 247 q 218 195 200 215 q 267 175 236 175 q 328 247 328 175 q 319 310 328 278 q 291 374 310 342 q 245 437 272 406 q 185 507 218 468 q 76 663 117 578 q 35 843 35 749 q 51 949 35 900 q 99 1034 67 999 q 176 1090 131 1069 q 282 1111 222 1111 q 373 1094 331 1111 q 446 1046 415 1076 q 494 977 476 1015 q 511 897 511 939 l 511 822 q 497 787 511 801 q 460 772 483 772 l 385 772 q 349 787 364 772 q 335 822 335 801 l 335 860 q 320 906 335 889 q 282 924 306 924 q 241 906 258 924 q 224 860 224 889 q 229 807 224 831 q 248 758 235 783 q 285 700 261 732 q 347 622 310 668 q 353 612 350 617 q 360 603 357 607 q 418 529 389 567 q 469 449 447 492 q 503 358 490 407 q 517 256 517 310 m 172 1346 q 193 1363 183 1356 q 218 1371 203 1371 l 338 1371 q 359 1365 350 1371 q 379 1346 368 1358 l 493 1236 q 500 1219 500 1231 q 490 1198 500 1207 q 468 1189 479 1189 l 396 1189 q 371 1200 383 1189 l 281 1292 l 272 1292 l 183 1200 q 158 1189 171 1189 l 86 1189 q 64 1198 72 1189 q 56 1221 56 1207 q 57 1227 56 1224 q 60 1236 58 1231 l 172 1346 z "},"":{"ha":556,"x_min":24,"x_max":517,"o":"m 517 256 q 501 153 517 201 q 454 69 485 106 q 378 8 424 32 q 276 -15 333 -15 q 173 3 219 -15 q 93 53 126 22 q 42 122 60 83 q 24 201 24 160 l 24 275 q 38 312 24 297 q 74 326 53 326 l 149 326 q 185 312 169 326 q 200 275 200 297 l 200 247 q 218 195 200 215 q 267 175 236 175 q 328 247 328 175 q 319 310 328 278 q 291 374 310 342 q 245 437 272 406 q 185 507 218 468 q 76 663 117 578 q 35 843 35 749 q 51 949 35 900 q 99 1034 67 999 q 176 1090 131 1069 q 282 1111 222 1111 q 373 1094 331 1111 q 446 1046 415 1076 q 494 977 476 1015 q 511 897 511 939 l 511 822 q 497 787 511 801 q 460 772 483 772 l 385 772 q 349 787 364 772 q 335 822 335 801 l 335 860 q 320 906 335 889 q 282 924 306 924 q 241 906 258 924 q 224 860 224 889 q 229 807 224 831 q 248 758 235 783 q 285 700 261 732 q 347 622 310 668 q 353 612 350 617 q 360 603 357 607 q 418 529 389 567 q 469 449 447 492 q 503 358 490 407 q 517 256 517 310 m 350 -111 l 283 -264 q 276 -275 282 -269 q 267 -282 274 -278 q 253 -286 261 -286 l 224 -286 q 201 -276 211 -286 q 192 -256 192 -267 l 201 -94 q 217 -61 201 -75 q 251 -47 232 -47 l 300 -47 q 336 -62 321 -47 q 351 -97 351 -76 q 350 -111 351 -101 z "},"":{"ha":500,"x_min":19,"x_max":478,"o":"m 478 960 q 463 925 478 940 q 426 910 449 910 l 347 910 l 347 50 q 332 15 347 31 q 297 0 317 0 l 208 0 q 172 15 186 0 q 157 50 157 31 l 157 910 l 72 910 q 35 925 50 910 q 19 960 19 940 l 19 1047 q 35 1083 19 1068 q 72 1099 50 1099 l 426 1099 q 463 1083 449 1099 q 478 1047 478 1068 l 478 960 m 33 1322 q 31 1330 32 1328 q 29 1339 29 1332 q 38 1360 29 1350 q 60 1371 46 1371 l 132 1371 q 157 1358 144 1371 l 246 1275 l 254 1275 l 344 1358 q 369 1371 357 1371 l 442 1371 q 463 1362 453 1371 q 474 1339 474 1353 q 467 1322 474 1329 l 353 1213 q 333 1194 342 1200 q 311 1189 324 1189 l 192 1189 q 167 1194 176 1189 q 146 1213 157 1200 l 33 1322 z "},"":{"ha":500,"x_min":19,"x_max":478,"o":"m 478 960 q 463 925 478 940 q 426 910 449 910 l 347 910 l 347 50 q 332 15 347 31 q 297 0 317 0 l 208 0 q 172 15 186 0 q 157 50 157 31 l 157 910 l 72 910 q 35 925 50 910 q 19 960 19 940 l 19 1047 q 35 1083 19 1068 q 72 1099 50 1099 l 426 1099 q 463 1083 449 1099 q 478 1047 478 1068 l 478 960 m 329 -111 l 263 -264 q 256 -275 261 -269 q 247 -282 253 -278 q 232 -286 240 -286 l 203 -286 q 181 -276 190 -286 q 171 -256 171 -267 l 181 -94 q 196 -61 181 -75 q 231 -47 211 -47 l 279 -47 q 315 -62 300 -47 q 331 -97 331 -76 q 329 -111 331 -101 z "},"":{"ha":540,"x_min":47,"x_max":493,"o":"m 493 201 q 476 122 493 160 q 431 53 460 83 q 363 3 403 22 q 275 -15 324 -15 q 184 3 226 -15 q 112 53 142 22 q 65 122 82 83 q 47 201 47 160 l 47 1047 q 62 1083 47 1068 q 97 1099 76 1099 l 178 1099 q 215 1083 200 1099 q 231 1047 231 1068 l 231 207 q 243 183 231 192 q 275 175 256 175 q 306 183 293 175 q 318 207 318 192 l 318 1047 q 333 1083 318 1068 q 368 1099 349 1099 l 442 1099 q 478 1083 464 1099 q 493 1047 493 1068 l 493 201 m 268 1296 q 326 1303 301 1296 q 363 1339 351 1311 q 376 1363 368 1353 q 399 1372 383 1372 l 424 1372 q 446 1363 438 1372 q 454 1338 454 1353 q 390 1224 442 1263 q 268 1186 339 1186 q 149 1225 200 1186 q 88 1340 99 1264 q 96 1363 88 1353 q 117 1372 104 1372 l 142 1372 q 165 1363 157 1372 q 179 1339 174 1353 q 213 1303 189 1311 q 268 1296 238 1296 z "},"":{"ha":540,"x_min":47,"x_max":493,"o":"m 493 201 q 476 122 493 160 q 431 53 460 83 q 363 3 403 22 q 275 -15 324 -15 q 184 3 226 -15 q 112 53 142 22 q 65 122 82 83 q 47 201 47 160 l 47 1047 q 62 1083 47 1068 q 97 1099 76 1099 l 178 1099 q 215 1083 200 1099 q 231 1047 231 1068 l 231 207 q 243 183 231 192 q 275 175 256 175 q 306 183 293 175 q 318 207 318 192 l 318 1047 q 333 1083 318 1068 q 368 1099 349 1099 l 442 1099 q 478 1083 464 1099 q 493 1047 493 1068 l 493 201 m 197 1322 q 213 1343 203 1333 q 236 1353 222 1353 l 271 1353 q 292 1344 285 1353 q 300 1324 300 1336 q 299 1322 300 1322 q 297 1317 297 1321 l 293 1306 l 228 1200 q 206 1188 219 1188 l 175 1188 q 163 1192 168 1188 q 158 1204 158 1196 q 158 1207 158 1207 q 158 1211 158 1207 l 197 1322 m 361 1322 q 377 1343 367 1333 q 400 1353 388 1353 l 435 1353 q 454 1344 447 1353 q 461 1324 461 1336 q 461 1322 461 1322 q 461 1317 461 1321 l 456 1306 l 392 1200 q 369 1188 383 1188 l 338 1188 q 324 1192 329 1188 q 319 1204 319 1196 q 320 1207 319 1207 q 321 1211 321 1207 l 361 1322 z "},"":{"ha":540,"x_min":47,"x_max":493,"o":"m 493 201 q 476 122 493 160 q 431 53 460 83 q 363 3 403 22 q 275 -15 324 -15 q 184 3 226 -15 q 112 53 142 22 q 65 122 82 83 q 47 201 47 160 l 47 1047 q 62 1083 47 1068 q 97 1099 76 1099 l 178 1099 q 215 1083 200 1099 q 231 1047 231 1068 l 231 207 q 243 183 231 192 q 275 175 256 175 q 306 183 293 175 q 318 207 318 192 l 318 1047 q 333 1083 318 1068 q 368 1099 349 1099 l 442 1099 q 478 1083 464 1099 q 493 1047 493 1068 l 493 201 m 426 1239 q 412 1204 426 1219 q 375 1189 397 1189 l 164 1189 q 128 1204 143 1189 q 114 1239 114 1219 l 114 1261 q 128 1296 114 1281 q 164 1311 143 1311 l 375 1311 q 412 1296 397 1311 q 426 1261 426 1281 l 426 1239 z "},"":{"ha":540,"x_min":47,"x_max":493,"o":"m 493 201 q 476 122 493 160 q 431 53 460 83 q 363 3 403 22 q 275 -15 324 -15 q 184 3 226 -15 q 112 53 142 22 q 65 122 82 83 q 47 201 47 160 l 47 1047 q 62 1083 47 1068 q 97 1099 76 1099 l 178 1099 q 215 1083 200 1099 q 231 1047 231 1068 l 231 207 q 243 183 231 192 q 275 175 256 175 q 306 183 293 175 q 318 207 318 192 l 318 1047 q 333 1083 318 1068 q 368 1099 349 1099 l 442 1099 q 478 1083 464 1099 q 493 1047 493 1068 l 493 201 m 414 -232 q 358 -258 386 -249 q 303 -267 331 -267 q 214 -165 214 -267 q 286 0 214 -94 l 347 0 q 299 -144 299 -93 q 342 -197 299 -197 q 365 -194 353 -197 q 390 -190 378 -190 q 413 -198 403 -190 q 422 -215 422 -206 q 420 -223 422 -218 q 414 -232 418 -228 z "},"":{"ha":540,"x_min":47,"x_max":493,"o":"m 493 201 q 476 122 493 160 q 431 53 460 83 q 363 3 403 22 q 275 -15 324 -15 q 184 3 226 -15 q 112 53 142 22 q 65 122 82 83 q 47 201 47 160 l 47 1047 q 62 1083 47 1068 q 97 1099 76 1099 l 178 1099 q 215 1083 200 1099 q 231 1047 231 1068 l 231 207 q 243 183 231 192 q 275 175 256 175 q 306 183 293 175 q 318 207 318 192 l 318 1047 q 333 1083 318 1068 q 368 1099 349 1099 l 442 1099 q 478 1083 464 1099 q 493 1047 493 1068 l 493 201 m 203 1307 q 221 1261 203 1281 q 268 1242 239 1242 q 313 1261 294 1242 q 331 1307 331 1281 q 313 1353 331 1333 q 268 1372 294 1372 q 221 1353 239 1372 q 203 1307 203 1333 m 146 1307 q 156 1355 146 1332 q 183 1394 167 1378 q 221 1421 200 1411 q 268 1431 242 1431 q 315 1421 292 1431 q 354 1394 338 1411 q 380 1355 371 1378 q 389 1307 389 1332 q 380 1260 389 1281 q 354 1222 371 1239 q 315 1196 338 1206 q 268 1186 292 1186 q 221 1196 242 1186 q 183 1222 200 1206 q 156 1260 167 1239 q 146 1307 146 1281 z "},"":{"ha":540,"x_min":47,"x_max":493,"o":"m 493 201 q 476 122 493 160 q 431 53 460 83 q 363 3 403 22 q 275 -15 324 -15 q 184 3 226 -15 q 112 53 142 22 q 65 122 82 83 q 47 201 47 160 l 47 1047 q 62 1083 47 1068 q 97 1099 76 1099 l 178 1099 q 215 1083 200 1099 q 231 1047 231 1068 l 231 207 q 243 183 231 192 q 275 175 256 175 q 306 183 293 175 q 318 207 318 192 l 318 1047 q 333 1083 318 1068 q 368 1099 349 1099 l 442 1099 q 478 1083 464 1099 q 493 1047 493 1068 l 493 201 m 489 1331 q 365 1183 476 1183 q 256 1224 314 1183 q 204 1247 219 1247 q 172 1238 182 1247 q 157 1218 163 1229 q 145 1198 151 1207 q 124 1189 139 1189 l 79 1189 q 59 1199 65 1189 q 53 1222 53 1208 l 53 1228 q 176 1372 64 1372 q 231 1363 204 1372 q 288 1332 257 1353 q 317 1317 304 1322 q 339 1311 331 1311 q 369 1320 360 1311 q 384 1341 378 1329 q 397 1362 390 1353 q 415 1371 404 1371 l 463 1371 q 483 1360 476 1371 q 489 1336 489 1350 l 489 1331 z "},"":{"ha":808,"x_min":32,"x_max":769,"o":"m 719 1099 q 756 1083 742 1099 q 769 1049 769 1068 l 769 1039 l 631 43 q 613 13 628 25 q 581 0 599 0 l 517 0 q 484 13 499 0 q 467 44 469 25 l 410 492 l 399 492 l 342 44 q 326 13 340 25 q 292 0 311 0 l 224 0 q 189 13 203 0 q 174 43 175 25 l 32 1039 l 32 1044 q 46 1083 32 1067 q 82 1099 60 1099 l 165 1099 q 200 1085 185 1099 q 217 1051 215 1072 l 272 535 l 283 535 l 340 1051 q 356 1085 342 1072 q 390 1099 369 1099 l 419 1099 q 454 1085 440 1099 q 472 1051 468 1072 l 526 535 l 536 535 q 569 794 553 665 q 603 1053 586 924 q 620 1085 606 1072 q 656 1099 635 1099 l 719 1099 m 372 1346 q 387 1365 379 1358 q 414 1371 394 1371 l 469 1371 q 514 1358 501 1371 q 526 1329 526 1346 q 517 1300 526 1313 l 429 1207 q 400 1188 411 1188 l 351 1188 q 320 1197 329 1188 q 318 1222 311 1207 l 372 1346 z "},"":{"ha":808,"x_min":32,"x_max":769,"o":"m 719 1099 q 756 1083 742 1099 q 769 1049 769 1068 l 769 1039 l 631 43 q 613 13 628 25 q 581 0 599 0 l 517 0 q 484 13 499 0 q 467 44 469 25 l 410 492 l 399 492 l 342 44 q 326 13 340 25 q 292 0 311 0 l 224 0 q 189 13 203 0 q 174 43 175 25 l 32 1039 l 32 1044 q 46 1083 32 1067 q 82 1099 60 1099 l 165 1099 q 200 1085 185 1099 q 217 1051 215 1072 l 272 535 l 283 535 l 340 1051 q 356 1085 342 1072 q 390 1099 369 1099 l 419 1099 q 454 1085 440 1099 q 472 1051 468 1072 l 526 535 l 536 535 q 569 794 553 665 q 603 1053 586 924 q 620 1085 606 1072 q 656 1099 635 1099 l 719 1099 m 297 1346 q 318 1363 308 1356 q 343 1371 328 1371 l 463 1371 q 484 1365 475 1371 q 504 1346 493 1358 l 618 1236 q 625 1219 625 1231 q 615 1198 625 1207 q 593 1189 604 1189 l 521 1189 q 496 1200 508 1189 l 406 1292 l 397 1292 l 308 1200 q 283 1189 296 1189 l 211 1189 q 189 1198 197 1189 q 181 1221 181 1207 q 182 1227 181 1224 q 185 1236 183 1231 l 297 1346 z "},"":{"ha":808,"x_min":32,"x_max":769,"o":"m 719 1099 q 756 1083 742 1099 q 769 1049 769 1068 l 769 1039 l 631 43 q 613 13 628 25 q 581 0 599 0 l 517 0 q 484 13 499 0 q 467 44 469 25 l 410 492 l 399 492 l 342 44 q 326 13 340 25 q 292 0 311 0 l 224 0 q 189 13 203 0 q 174 43 175 25 l 32 1039 l 32 1044 q 46 1083 32 1067 q 82 1099 60 1099 l 165 1099 q 200 1085 185 1099 q 217 1051 215 1072 l 272 535 l 283 535 l 340 1051 q 356 1085 342 1072 q 390 1099 369 1099 l 419 1099 q 454 1085 440 1099 q 472 1051 468 1072 l 526 535 l 536 535 q 569 794 553 665 q 603 1053 586 924 q 620 1085 606 1072 q 656 1099 635 1099 l 719 1099 m 628 1238 q 613 1202 628 1217 q 576 1188 599 1188 l 506 1188 q 470 1202 485 1188 q 456 1238 456 1217 l 456 1319 q 470 1356 456 1340 q 506 1371 485 1371 l 576 1371 q 613 1356 599 1371 q 628 1319 628 1340 l 628 1238 m 350 1238 q 335 1202 350 1217 q 299 1188 319 1188 l 228 1188 q 192 1202 207 1188 q 176 1238 176 1217 l 176 1319 q 192 1356 176 1340 q 228 1371 207 1371 l 299 1371 q 335 1356 319 1371 q 350 1319 350 1340 l 350 1238 z "},"":{"ha":808,"x_min":32,"x_max":769,"o":"m 719 1099 q 756 1083 742 1099 q 769 1049 769 1068 l 769 1039 l 631 43 q 613 13 628 25 q 581 0 599 0 l 517 0 q 484 13 499 0 q 467 44 469 25 l 410 492 l 399 492 l 342 44 q 326 13 340 25 q 292 0 311 0 l 224 0 q 189 13 203 0 q 174 43 175 25 l 32 1039 l 32 1044 q 46 1083 32 1067 q 82 1099 60 1099 l 165 1099 q 200 1085 185 1099 q 217 1051 215 1072 l 272 535 l 283 535 l 340 1051 q 356 1085 342 1072 q 390 1099 369 1099 l 419 1099 q 454 1085 440 1099 q 472 1051 468 1072 l 526 535 l 536 535 q 569 794 553 665 q 603 1053 586 924 q 620 1085 606 1072 q 656 1099 635 1099 l 719 1099 m 494 1222 q 492 1197 500 1207 q 461 1188 483 1188 l 413 1188 q 383 1207 400 1188 l 294 1300 q 285 1329 285 1313 q 298 1358 285 1346 q 343 1371 311 1371 l 396 1371 q 425 1365 417 1371 q 438 1346 433 1358 l 494 1222 z "},"":{"ha":542,"x_min":33,"x_max":517,"o":"m 465 1099 q 501 1083 486 1099 q 517 1049 517 1068 q 514 1033 517 1043 l 364 474 l 364 50 q 349 15 364 31 q 311 0 333 0 l 232 0 q 194 15 208 0 q 181 50 181 31 l 181 474 l 35 1033 q 33 1047 33 1039 q 47 1083 33 1067 q 83 1099 61 1099 l 157 1099 q 189 1087 175 1099 q 207 1058 203 1075 l 276 732 l 286 732 l 349 1057 q 366 1087 351 1075 q 399 1099 381 1099 l 465 1099 m 168 1346 q 189 1363 179 1356 q 214 1371 199 1371 l 333 1371 q 355 1365 346 1371 q 375 1346 364 1358 l 489 1236 q 496 1219 496 1231 q 485 1198 496 1207 q 464 1189 475 1189 l 392 1189 q 367 1200 379 1189 l 276 1292 l 268 1292 l 179 1200 q 154 1189 167 1189 l 82 1189 q 60 1198 68 1189 q 51 1221 51 1207 q 53 1227 51 1224 q 56 1236 54 1231 l 168 1346 z "},"":{"ha":542,"x_min":33,"x_max":517,"o":"m 465 1099 q 501 1083 486 1099 q 517 1049 517 1068 q 514 1033 517 1043 l 364 474 l 364 50 q 349 15 364 31 q 311 0 333 0 l 232 0 q 194 15 208 0 q 181 50 181 31 l 181 474 l 35 1033 q 33 1047 33 1039 q 47 1083 33 1067 q 83 1099 61 1099 l 157 1099 q 189 1087 175 1099 q 207 1058 203 1075 l 276 732 l 286 732 l 349 1057 q 366 1087 351 1075 q 399 1099 381 1099 l 465 1099 m 361 1222 q 358 1197 367 1207 q 328 1188 350 1188 l 279 1188 q 250 1207 267 1188 l 161 1300 q 151 1329 151 1313 q 165 1358 151 1346 q 210 1371 178 1371 l 263 1371 q 292 1365 283 1371 q 304 1346 300 1358 l 361 1222 z "},"":{"ha":457,"x_min":28,"x_max":418,"o":"m 364 1099 q 398 1084 382 1099 q 414 1049 414 1069 q 411 1036 414 1040 l 231 194 l 368 194 q 403 180 389 194 q 418 143 418 165 l 418 50 q 403 15 418 31 q 368 0 389 0 l 78 0 q 42 15 57 0 q 28 50 28 31 q 31 61 28 57 l 217 918 l 100 918 q 63 933 78 918 q 49 968 49 947 l 49 1047 q 63 1083 49 1068 q 100 1099 78 1099 l 364 1099 m 196 1346 q 210 1365 203 1358 q 238 1371 218 1371 l 293 1371 q 338 1358 325 1371 q 350 1329 350 1346 q 340 1300 350 1313 l 253 1207 q 224 1188 235 1188 l 175 1188 q 144 1197 153 1188 q 142 1222 135 1207 l 196 1346 z "},"":{"ha":457,"x_min":28,"x_max":418,"o":"m 364 1099 q 398 1084 382 1099 q 414 1049 414 1069 q 411 1036 414 1040 l 231 194 l 368 194 q 403 180 389 194 q 418 143 418 165 l 418 50 q 403 15 418 31 q 368 0 389 0 l 78 0 q 42 15 57 0 q 28 50 28 31 q 31 61 28 57 l 217 918 l 100 918 q 63 933 78 918 q 49 968 49 947 l 49 1047 q 63 1083 49 1068 q 100 1099 78 1099 l 364 1099 m 315 1238 q 300 1202 315 1217 q 264 1188 285 1188 l 192 1188 q 157 1202 172 1188 q 142 1238 142 1217 l 142 1307 q 157 1344 142 1329 q 192 1358 172 1358 l 264 1358 q 300 1344 285 1358 q 315 1307 315 1329 l 315 1238 z "},"":{"ha":511,"x_min":25,"x_max":476,"o":"m 293 356 q 253 336 269 347 q 226 312 236 325 q 208 283 215 299 q 203 192 201 267 q 249 144 203 144 q 293 192 293 144 l 293 356 m 476 61 q 476 51 476 58 q 463 16 476 32 q 426 0 449 0 l 368 0 q 349 15 351 0 l 344 44 l 335 44 q 287 1 317 17 q 217 -15 257 -15 q 78 38 131 -15 q 25 186 25 92 q 37 295 25 256 q 67 360 49 335 q 110 408 86 386 q 158 447 135 431 q 293 506 217 483 l 293 626 q 285 657 293 647 q 260 667 278 667 q 233 657 240 667 q 226 626 226 647 l 226 607 q 210 572 226 586 q 175 557 194 557 l 94 557 q 60 572 75 557 q 44 607 44 586 l 44 622 q 63 706 44 668 q 110 770 81 743 q 180 811 140 797 q 265 825 219 825 q 347 811 310 825 q 410 770 385 797 q 451 706 436 743 q 467 622 467 668 l 467 167 q 469 115 467 140 q 476 61 472 89 m 253 1024 q 311 1031 286 1024 q 347 1067 336 1039 q 360 1090 353 1081 q 383 1100 368 1100 l 408 1100 q 431 1090 422 1100 q 439 1065 439 1081 q 375 952 426 990 q 253 914 324 914 q 134 953 185 914 q 72 1068 83 992 q 81 1090 72 1081 q 101 1100 89 1100 l 126 1100 q 150 1090 142 1100 q 164 1067 158 1081 q 198 1031 174 1039 q 253 1024 222 1024 z "},"":{"ha":511,"x_min":25,"x_max":476,"o":"m 293 356 q 253 336 269 347 q 226 312 236 325 q 208 283 215 299 q 203 192 201 267 q 249 144 203 144 q 293 192 293 144 l 293 356 m 476 61 q 476 51 476 58 q 463 16 476 32 q 426 0 449 0 l 368 0 q 349 15 351 0 l 344 44 l 335 44 q 287 1 317 17 q 217 -15 257 -15 q 78 38 131 -15 q 25 186 25 92 q 37 295 25 256 q 67 360 49 335 q 110 408 86 386 q 158 447 135 431 q 293 506 217 483 l 293 626 q 285 657 293 647 q 260 667 278 667 q 233 657 240 667 q 226 626 226 647 l 226 607 q 210 572 226 586 q 175 557 194 557 l 94 557 q 60 572 75 557 q 44 607 44 586 l 44 622 q 63 706 44 668 q 110 770 81 743 q 180 811 140 797 q 265 825 219 825 q 347 811 310 825 q 410 770 385 797 q 451 706 436 743 q 467 622 467 668 l 467 167 q 469 115 467 140 q 476 61 472 89 m 413 967 q 398 932 413 947 q 361 917 383 917 l 150 917 q 115 932 129 917 q 100 967 100 947 l 100 989 q 115 1024 100 1008 q 150 1039 129 1039 l 361 1039 q 398 1024 383 1039 q 413 989 413 1008 l 413 967 z "},"":{"ha":511,"x_min":25,"x_max":504,"o":"m 293 356 q 253 336 269 347 q 226 312 236 325 q 208 283 215 299 q 203 192 201 267 q 249 144 203 144 q 293 192 293 144 l 293 356 m 476 61 q 476 51 476 58 q 463 16 476 32 q 426 0 449 0 l 368 0 q 349 15 351 0 l 344 44 l 335 44 q 287 1 317 17 q 217 -15 257 -15 q 78 38 131 -15 q 25 186 25 92 q 37 295 25 256 q 67 360 49 335 q 110 408 86 386 q 158 447 135 431 q 293 506 217 483 l 293 626 q 285 657 293 647 q 260 667 278 667 q 233 657 240 667 q 226 626 226 647 l 226 607 q 210 572 226 586 q 175 557 194 557 l 94 557 q 60 572 75 557 q 44 607 44 586 l 44 622 q 63 706 44 668 q 110 770 81 743 q 180 811 140 797 q 265 825 219 825 q 347 811 310 825 q 410 770 385 797 q 451 706 436 743 q 467 622 467 668 l 467 167 q 469 115 467 140 q 476 61 472 89 m 496 -232 q 440 -258 468 -249 q 385 -267 413 -267 q 296 -165 296 -267 q 368 0 296 -94 l 429 0 q 381 -144 381 -93 q 424 -197 381 -197 q 447 -194 435 -197 q 472 -190 460 -190 q 494 -198 485 -190 q 504 -215 504 -206 q 502 -223 504 -218 q 496 -232 500 -228 z "},"":{"ha":775,"x_min":25,"x_max":732,"o":"m 732 186 q 715 104 732 142 q 669 41 699 67 q 598 0 639 15 q 511 -15 557 -15 q 357 44 418 -15 l 347 44 q 294 1 331 17 q 217 -15 257 -15 q 78 39 131 -15 q 25 186 25 93 l 25 232 q 43 314 25 276 q 94 384 61 351 q 177 447 128 417 q 292 517 226 478 l 294 517 l 294 626 q 288 657 294 647 q 260 667 281 667 q 234 657 242 667 q 226 626 226 647 l 226 557 l 47 557 l 47 622 q 65 706 47 668 q 111 770 82 743 q 180 811 140 797 q 267 825 219 825 q 332 811 299 825 q 382 776 365 797 l 392 776 q 444 811 410 797 q 511 825 478 825 q 598 811 557 825 q 669 770 639 797 q 715 706 699 743 q 732 622 732 668 l 732 382 l 467 382 l 467 185 q 480 155 467 165 q 511 144 493 144 q 544 155 532 144 q 557 185 557 165 l 557 297 l 732 297 l 732 186 m 557 626 q 544 657 557 647 q 511 667 532 667 q 480 657 493 667 q 467 626 467 647 l 467 483 l 557 483 l 557 626 m 294 356 l 285 356 q 226 308 247 328 q 206 256 206 289 l 206 192 q 249 144 206 144 q 294 192 294 144 l 294 356 m 354 1074 q 369 1092 361 1086 q 396 1099 376 1099 l 451 1099 q 496 1086 483 1099 q 508 1057 508 1074 q 499 1028 508 1040 l 411 935 q 382 915 393 915 l 333 915 q 302 925 311 915 q 300 950 293 935 l 354 1074 z "},"":{"ha":517,"x_min":43,"x_max":482,"o":"m 482 186 q 465 104 482 142 q 417 41 447 67 q 347 0 386 15 q 264 -15 307 -15 q 176 0 217 -15 q 106 41 136 15 q 60 104 76 67 q 43 186 43 142 l 43 622 q 60 706 43 668 q 106 770 76 743 q 176 811 136 797 q 264 825 217 825 q 347 811 307 825 q 417 770 386 797 q 465 706 447 743 q 482 622 482 668 l 482 576 q 467 542 482 557 q 431 526 451 526 l 357 526 q 322 542 336 526 q 307 576 307 557 l 307 626 q 295 657 307 647 q 264 667 283 667 q 230 657 243 667 q 217 626 217 647 l 217 185 q 230 155 217 165 q 264 144 243 144 q 295 155 283 144 q 307 185 307 165 l 307 231 q 322 267 307 251 q 357 282 336 282 l 431 282 q 467 267 451 282 q 482 231 482 251 l 482 186 m 226 1074 q 241 1092 233 1086 q 268 1099 249 1099 l 324 1099 q 368 1086 356 1099 q 381 1057 381 1074 q 371 1028 381 1040 l 283 935 q 254 915 265 915 l 206 915 q 174 925 183 915 q 172 950 165 935 l 226 1074 z "},"":{"ha":517,"x_min":39,"x_max":483,"o":"m 482 186 q 465 104 482 142 q 417 41 447 67 q 347 0 386 15 q 264 -15 307 -15 q 176 0 217 -15 q 106 41 136 15 q 60 104 76 67 q 43 186 43 142 l 43 622 q 60 706 43 668 q 106 770 76 743 q 176 811 136 797 q 264 825 217 825 q 347 811 307 825 q 417 770 386 797 q 465 706 447 743 q 482 622 482 668 l 482 576 q 467 542 482 557 q 431 526 451 526 l 357 526 q 322 542 336 526 q 307 576 307 557 l 307 626 q 295 657 307 647 q 264 667 283 667 q 230 657 243 667 q 217 626 217 647 l 217 185 q 230 155 217 165 q 264 144 243 144 q 295 155 283 144 q 307 185 307 165 l 307 231 q 322 267 307 251 q 357 282 336 282 l 431 282 q 467 267 451 282 q 482 231 482 251 l 482 186 m 43 1050 q 40 1058 42 1056 q 39 1067 39 1060 q 47 1088 39 1078 q 69 1099 56 1099 l 142 1099 q 167 1086 154 1099 l 256 1003 l 264 1003 l 354 1086 q 379 1099 367 1099 l 451 1099 q 473 1090 463 1099 q 483 1067 483 1081 q 476 1050 483 1057 l 363 940 q 342 922 351 928 q 321 917 333 917 l 201 917 q 176 922 186 917 q 156 940 167 928 l 43 1050 z "},"":{"ha":517,"x_min":39,"x_max":483,"o":"m 482 186 q 465 104 482 142 q 417 41 447 67 q 347 0 386 15 q 264 -15 307 -15 q 176 0 217 -15 q 106 41 136 15 q 60 104 76 67 q 43 186 43 142 l 43 622 q 60 706 43 668 q 106 770 76 743 q 176 811 136 797 q 264 825 217 825 q 347 811 307 825 q 417 770 386 797 q 465 706 447 743 q 482 622 482 668 l 482 576 q 467 542 482 557 q 431 526 451 526 l 357 526 q 322 542 336 526 q 307 576 307 557 l 307 626 q 295 657 307 647 q 264 667 283 667 q 230 657 243 667 q 217 626 217 647 l 217 185 q 230 155 217 165 q 264 144 243 144 q 295 155 283 144 q 307 185 307 165 l 307 231 q 322 267 307 251 q 357 282 336 282 l 431 282 q 467 267 451 282 q 482 231 482 251 l 482 186 m 156 1074 q 176 1091 167 1083 q 201 1099 186 1099 l 321 1099 q 342 1092 333 1099 q 363 1074 351 1086 l 476 964 q 483 947 483 958 q 473 926 483 935 q 451 917 463 917 l 379 917 q 354 928 367 917 l 264 1019 l 256 1019 l 167 928 q 142 917 154 917 l 69 917 q 47 926 56 917 q 39 949 39 935 q 40 955 39 951 q 43 964 42 958 l 156 1074 z "},"":{"ha":517,"x_min":43,"x_max":482,"o":"m 482 186 q 465 104 482 142 q 417 41 447 67 q 347 0 386 15 q 264 -15 307 -15 q 176 0 217 -15 q 106 41 136 15 q 60 104 76 67 q 43 186 43 142 l 43 622 q 60 706 43 668 q 106 770 76 743 q 176 811 136 797 q 264 825 217 825 q 347 811 307 825 q 417 770 386 797 q 465 706 447 743 q 482 622 482 668 l 482 576 q 467 542 482 557 q 431 526 451 526 l 357 526 q 322 542 336 526 q 307 576 307 557 l 307 626 q 295 657 307 647 q 264 667 283 667 q 230 657 243 667 q 217 626 217 647 l 217 185 q 230 155 217 165 q 264 144 243 144 q 295 155 283 144 q 307 185 307 165 l 307 231 q 322 267 307 251 q 357 282 336 282 l 431 282 q 467 267 451 282 q 482 231 482 251 l 482 186 m 344 965 q 329 930 344 944 q 293 915 314 915 l 221 915 q 186 930 201 915 q 171 965 171 944 l 171 1035 q 186 1072 171 1057 q 221 1086 201 1086 l 293 1086 q 329 1072 314 1086 q 344 1035 344 1057 l 344 965 z "},"":{"ha":547,"x_min":47,"x_max":483,"o":"m 219 185 q 233 155 219 165 q 267 144 247 144 q 298 155 285 144 q 311 185 311 165 l 311 626 q 298 657 311 647 q 267 667 285 667 q 233 657 247 667 q 219 626 219 647 l 219 185 m 483 -107 q 470 -181 483 -147 q 433 -236 457 -214 q 378 -272 410 -258 q 310 -286 347 -286 l 231 -286 q 193 -272 208 -286 q 178 -235 178 -257 l 178 -178 q 193 -142 178 -157 q 231 -128 208 -128 l 267 -128 q 299 -115 286 -128 q 311 -86 311 -103 l 311 36 l 300 36 q 251 0 282 15 q 185 -15 219 -15 q 131 -5 157 -15 q 87 23 106 6 q 58 65 68 40 q 47 124 47 90 l 47 689 q 58 746 47 719 q 87 790 68 772 q 131 816 106 807 q 185 825 157 825 q 254 812 222 825 q 307 775 286 799 l 317 775 l 322 797 q 340 810 325 810 l 433 810 q 469 796 456 810 q 483 760 483 782 l 483 -107 m 269 1024 q 328 1031 303 1024 q 364 1067 353 1039 q 377 1090 369 1081 q 400 1100 385 1100 l 425 1100 q 447 1090 439 1100 q 456 1065 456 1081 q 392 952 443 990 q 269 914 340 914 q 151 953 201 914 q 89 1068 100 992 q 97 1090 89 1081 q 118 1100 106 1100 l 143 1100 q 167 1090 158 1100 q 181 1067 175 1081 q 215 1031 190 1039 q 269 1024 239 1024 z "},"":{"ha":547,"x_min":47,"x_max":497,"o":"m 219 185 q 233 155 219 165 q 267 144 247 144 q 298 155 285 144 q 311 185 311 165 l 311 626 q 298 657 311 647 q 267 667 285 667 q 233 657 247 667 q 219 626 219 647 l 219 185 m 483 -107 q 470 -181 483 -147 q 433 -236 457 -214 q 378 -272 410 -258 q 310 -286 347 -286 l 231 -286 q 193 -272 208 -286 q 178 -235 178 -257 l 178 -178 q 193 -142 178 -157 q 231 -128 208 -128 l 267 -128 q 299 -115 286 -128 q 311 -86 311 -103 l 311 36 l 300 36 q 251 0 282 15 q 185 -15 219 -15 q 131 -5 157 -15 q 87 23 106 6 q 58 65 68 40 q 47 124 47 90 l 47 689 q 58 746 47 719 q 87 790 68 772 q 131 816 106 807 q 185 825 157 825 q 254 812 222 825 q 307 775 286 799 l 317 775 l 322 797 q 340 810 325 810 l 433 810 q 469 796 456 810 q 483 760 483 782 l 483 -107 m 169 1074 q 190 1091 181 1083 q 215 1099 200 1099 l 335 1099 q 356 1092 347 1099 q 376 1074 365 1086 l 490 964 q 497 947 497 958 q 487 926 497 935 q 465 917 476 917 l 393 917 q 368 928 381 917 l 278 1019 l 269 1019 l 181 928 q 156 917 168 917 l 83 917 q 61 926 69 917 q 53 949 53 935 q 54 955 53 951 q 57 964 56 958 l 169 1074 z "},"":{"ha":547,"x_min":47,"x_max":483,"o":"m 219 185 q 233 155 219 165 q 267 144 247 144 q 298 155 285 144 q 311 185 311 165 l 311 626 q 298 657 311 647 q 267 667 285 667 q 233 657 247 667 q 219 626 219 647 l 219 185 m 483 -107 q 470 -181 483 -147 q 433 -236 457 -214 q 378 -272 410 -258 q 310 -286 347 -286 l 231 -286 q 193 -272 208 -286 q 178 -235 178 -257 l 178 -178 q 193 -142 178 -157 q 231 -128 208 -128 l 267 -128 q 299 -115 286 -128 q 311 -86 311 -103 l 311 36 l 300 36 q 251 0 282 15 q 185 -15 219 -15 q 131 -5 157 -15 q 87 23 106 6 q 58 65 68 40 q 47 124 47 90 l 47 689 q 58 746 47 719 q 87 790 68 772 q 131 816 106 807 q 185 825 157 825 q 254 812 222 825 q 307 775 286 799 l 317 775 l 322 797 q 340 810 325 810 l 433 810 q 469 796 456 810 q 483 760 483 782 l 483 -107 m 358 1236 l 342 961 q 324 928 338 942 q 290 915 310 915 l 236 915 q 201 931 215 915 q 186 967 186 947 q 186 972 186 968 q 188 978 186 975 l 261 1247 q 293 1268 268 1268 l 325 1268 q 348 1259 338 1268 q 358 1236 358 1250 z "},"":{"ha":547,"x_min":47,"x_max":483,"o":"m 219 185 q 233 155 219 165 q 267 144 247 144 q 298 155 285 144 q 311 185 311 165 l 311 626 q 298 657 311 647 q 267 667 285 667 q 233 657 247 667 q 219 626 219 647 l 219 185 m 483 -107 q 470 -181 483 -147 q 433 -236 457 -214 q 378 -272 410 -258 q 310 -286 347 -286 l 231 -286 q 193 -272 208 -286 q 178 -235 178 -257 l 178 -178 q 193 -142 178 -157 q 231 -128 208 -128 l 267 -128 q 299 -115 286 -128 q 311 -86 311 -103 l 311 36 l 300 36 q 251 0 282 15 q 185 -15 219 -15 q 131 -5 157 -15 q 87 23 106 6 q 58 65 68 40 q 47 124 47 90 l 47 689 q 58 746 47 719 q 87 790 68 772 q 131 816 106 807 q 185 825 157 825 q 254 812 222 825 q 307 775 286 799 l 317 775 l 322 797 q 340 810 325 810 l 433 810 q 469 796 456 810 q 483 760 483 782 l 483 -107 m 360 965 q 344 930 360 944 q 308 915 329 915 l 236 915 q 201 930 217 915 q 186 965 186 944 l 186 1035 q 201 1072 186 1057 q 236 1086 217 1086 l 308 1086 q 344 1072 329 1086 q 360 1035 360 1057 l 360 965 z "},"":{"ha":535,"x_min":-86,"x_max":486,"o":"m 486 50 q 472 15 486 31 q 436 0 457 0 l 364 0 q 328 15 343 0 q 314 50 314 31 l 314 626 q 301 657 314 647 q 268 667 289 667 q 238 657 250 667 q 225 626 225 647 l 225 50 q 210 15 225 31 q 174 0 194 0 l 101 0 q 67 15 82 0 q 51 50 51 31 l 51 1047 q 67 1083 51 1068 q 101 1099 82 1099 l 174 1099 q 210 1083 194 1099 q 225 1047 225 1068 l 225 775 l 235 775 q 285 812 256 799 q 347 825 315 825 q 401 816 376 825 q 447 788 426 807 q 476 744 467 769 q 486 689 486 718 l 486 50 m 31 1346 q 51 1363 42 1356 q 76 1371 61 1371 l 196 1371 q 217 1365 208 1371 q 238 1346 226 1358 l 351 1236 q 358 1219 358 1231 q 348 1198 358 1207 q 326 1189 338 1189 l 254 1189 q 229 1200 242 1189 l 139 1292 l 131 1292 l 42 1200 q 17 1189 29 1189 l -56 1189 q -78 1198 -69 1189 q -86 1221 -86 1207 q -85 1227 -86 1224 q -82 1236 -83 1231 l 31 1346 z "},"":{"ha":276,"x_min":-43,"x_max":324,"o":"m 225 50 q 210 15 225 31 q 174 0 194 0 l 101 0 q 67 15 82 0 q 51 50 51 31 l 51 758 q 67 794 51 781 q 101 808 82 808 l 174 808 q 210 794 194 808 q 225 758 225 781 l 225 50 m 138 1024 q 196 1031 171 1024 q 232 1067 221 1039 q 245 1090 238 1081 q 268 1100 253 1100 l 293 1100 q 315 1090 307 1100 q 324 1065 324 1081 q 260 952 311 990 q 138 914 208 914 q 19 953 69 914 q -43 1068 -32 992 q -35 1090 -43 1081 q -14 1100 -26 1100 l 11 1100 q 35 1090 26 1100 q 49 1067 43 1081 q 83 1031 58 1039 q 138 1024 107 1024 z "},"":{"ha":276,"x_min":-17,"x_max":296,"o":"m 225 50 q 210 15 225 31 q 174 0 194 0 l 101 0 q 67 15 82 0 q 51 50 51 31 l 51 758 q 67 794 51 781 q 101 808 82 808 l 174 808 q 210 794 194 808 q 225 758 225 781 l 225 50 m 296 967 q 281 932 296 947 q 244 917 267 917 l 33 917 q -2 932 13 917 q -17 967 -17 947 l -17 989 q -2 1024 -17 1008 q 33 1039 13 1039 l 244 1039 q 281 1024 267 1039 q 296 989 296 1008 l 296 967 z "},"":{"ha":276,"x_min":38,"x_max":246,"o":"m 225 50 q 210 15 225 31 q 174 0 194 0 l 101 0 q 67 15 82 0 q 51 50 51 31 l 51 758 q 67 794 51 781 q 101 808 82 808 l 174 808 q 210 794 194 808 q 225 758 225 781 l 225 50 m 225 965 q 210 930 225 944 q 174 915 194 915 l 101 915 q 67 930 82 915 q 51 965 51 944 l 51 1047 q 67 1083 51 1068 q 101 1099 82 1099 l 174 1099 q 210 1083 194 1099 q 225 1047 225 1068 l 225 965 m 238 -232 q 182 -258 210 -249 q 126 -267 154 -267 q 38 -165 38 -267 q 110 0 38 -94 l 171 0 q 122 -144 122 -93 q 165 -197 122 -197 q 189 -194 176 -197 q 214 -190 201 -190 q 236 -198 226 -190 q 246 -215 246 -206 q 244 -223 246 -218 q 238 -232 242 -228 z "},"":{"ha":276,"x_min":-81,"x_max":356,"o":"m 225 50 q 210 15 225 31 q 174 0 194 0 l 101 0 q 67 15 82 0 q 51 50 51 31 l 51 758 q 67 794 51 781 q 101 808 82 808 l 174 808 q 210 794 194 808 q 225 758 225 781 l 225 50 m 356 1058 q 232 911 343 911 q 122 951 181 911 q 71 975 86 975 q 39 966 49 975 q 24 946 29 957 q 12 926 18 935 q -10 917 6 917 l -54 917 q -74 926 -68 917 q -81 950 -81 936 l -81 956 q 43 1100 -69 1100 q 97 1090 71 1100 q 154 1060 124 1081 q 184 1044 171 1050 q 206 1039 197 1039 q 235 1048 226 1039 q 251 1069 244 1057 q 264 1090 257 1081 q 282 1099 271 1099 l 329 1099 q 349 1088 343 1099 q 356 1064 356 1078 l 356 1058 z "},"":{"ha":276,"x_min":-82,"x_max":363,"o":"m 225 -107 q 211 -179 225 -147 q 174 -235 197 -211 q 120 -272 151 -258 q 50 -286 89 -286 l 22 -286 q -31 -265 -11 -286 q -51 -224 -51 -244 l -51 -143 q -47 -128 -51 -135 q -35 -122 -43 -122 q -34 -123 -35 -122 q -32 -124 -33 -124 l 6 -128 q 14 -131 8 -131 q 39 -115 28 -131 q 50 -86 50 -100 l 50 758 q 65 794 50 781 q 100 808 81 808 l 174 808 q 210 794 194 808 q 225 758 225 781 l 225 -107 m 35 1074 q 56 1091 46 1083 q 81 1099 65 1099 l 200 1099 q 222 1092 213 1099 q 242 1074 231 1086 l 356 964 q 363 947 363 958 q 352 926 363 935 q 331 917 342 917 l 258 917 q 233 928 246 917 l 143 1019 l 135 1019 l 46 928 q 21 917 33 917 l -51 917 q -74 926 -65 917 q -82 949 -82 935 q -81 955 -82 951 q -78 964 -79 958 l 35 1074 z "},"":{"ha":528,"x_min":51,"x_max":497,"o":"m 494 65 q 497 51 497 56 q 483 16 497 32 q 447 0 468 0 l 381 0 q 350 10 364 0 q 332 36 336 19 l 257 310 l 247 310 l 225 251 l 225 50 q 210 15 225 31 q 174 0 194 0 l 101 0 q 67 15 82 0 q 51 50 51 31 l 51 1047 q 67 1083 51 1068 q 101 1099 82 1099 l 174 1099 q 210 1083 194 1099 q 225 1047 225 1068 l 225 508 l 236 508 l 315 775 q 333 800 318 790 q 364 810 347 810 l 426 810 q 463 795 449 810 q 476 760 476 781 q 474 742 476 750 l 375 468 l 494 65 m 342 -111 l 275 -264 q 268 -275 274 -269 q 259 -282 265 -278 q 244 -286 253 -286 l 215 -286 q 193 -276 203 -286 q 183 -256 183 -267 l 193 -94 q 208 -61 193 -75 q 243 -47 224 -47 l 292 -47 q 328 -62 313 -47 q 343 -97 343 -76 q 342 -111 343 -101 z "},"":{"ha":528,"x_min":51,"x_max":497,"o":"m 494 65 q 497 51 497 56 q 483 16 497 32 q 447 0 468 0 l 381 0 q 350 10 364 0 q 332 36 336 19 l 257 310 l 247 310 l 225 251 l 225 50 q 210 15 225 31 q 174 0 194 0 l 101 0 q 67 15 82 0 q 51 50 51 31 l 51 760 q 67 797 51 782 q 101 811 82 811 l 174 811 q 210 797 194 811 q 225 760 225 782 l 225 508 l 236 508 l 315 775 q 333 800 318 790 q 364 810 347 810 l 426 810 q 463 795 449 810 q 476 760 476 781 q 474 742 476 750 l 375 468 l 494 65 z "},"":{"ha":276,"x_min":44,"x_max":260,"o":"m 225 50 q 210 15 225 31 q 174 0 194 0 l 101 0 q 67 15 82 0 q 51 50 51 31 l 51 1047 q 67 1083 51 1068 q 101 1099 82 1099 l 174 1099 q 210 1083 194 1099 q 225 1047 225 1068 l 225 50 m 106 1074 q 120 1092 113 1086 q 147 1099 128 1099 l 203 1099 q 247 1086 235 1099 q 260 1057 260 1074 q 250 1028 260 1040 l 163 935 q 133 915 144 915 l 85 915 q 53 925 63 915 q 51 950 44 935 l 106 1074 z "},"":{"ha":551,"x_min":51,"x_max":485,"o":"m 225 50 q 210 15 225 31 q 174 0 194 0 l 101 0 q 67 15 82 0 q 51 50 51 31 l 51 1047 q 67 1083 51 1068 q 101 1099 82 1099 l 174 1099 q 210 1083 194 1099 q 225 1047 225 1068 l 225 50 m 332 1050 q 347 1084 332 1069 q 382 1099 361 1099 l 433 1099 q 469 1083 454 1099 q 485 1047 485 1067 q 484 1041 485 1043 q 482 1033 483 1039 l 408 767 q 376 743 401 743 l 344 743 q 322 752 332 743 q 313 776 313 761 l 332 1050 z "},"":{"ha":276,"x_min":51,"x_max":225,"o":"m 225 50 q 210 15 225 31 q 174 0 194 0 l 101 0 q 67 15 82 0 q 51 50 51 31 l 51 1047 q 67 1083 51 1068 q 101 1099 82 1099 l 174 1099 q 210 1083 194 1099 q 225 1047 225 1068 l 225 50 m 217 -111 l 150 -264 q 143 -275 149 -269 q 134 -282 140 -278 q 119 -286 128 -286 l 90 -286 q 68 -276 78 -286 q 58 -256 58 -267 l 68 -94 q 83 -61 68 -75 q 118 -47 99 -47 l 167 -47 q 203 -62 188 -47 q 218 -97 218 -76 q 217 -111 218 -101 z "},"":{"ha":551,"x_min":51,"x_max":436,"o":"m 225 50 q 210 15 225 31 q 174 0 194 0 l 101 0 q 67 15 82 0 q 51 50 51 31 l 51 1047 q 67 1083 51 1068 q 101 1099 82 1099 l 174 1099 q 210 1083 194 1099 q 225 1047 225 1068 l 225 50 m 436 531 q 421 496 436 511 q 385 481 406 481 l 313 481 q 278 496 293 481 q 263 531 263 511 l 263 646 q 278 682 263 667 q 313 697 293 697 l 385 697 q 421 682 406 697 q 436 646 436 667 l 436 531 z "},"":{"ha":536,"x_min":51,"x_max":489,"o":"m 489 50 q 474 15 489 31 q 436 0 458 0 l 367 0 q 332 15 347 0 q 317 50 317 31 l 317 626 q 303 657 317 647 q 272 667 289 667 q 238 657 251 667 q 225 626 225 647 l 225 50 q 210 15 225 31 q 174 0 194 0 l 101 0 q 67 15 82 0 q 51 50 51 31 l 51 758 q 67 794 51 781 q 101 808 82 808 l 194 808 q 215 794 210 808 l 218 775 l 228 775 q 282 812 249 799 q 349 825 315 825 q 402 816 376 825 q 447 788 428 807 q 478 744 467 769 q 489 689 489 718 l 489 50 m 236 1074 q 251 1092 243 1086 q 278 1099 258 1099 l 333 1099 q 378 1086 365 1099 q 390 1057 390 1074 q 381 1028 390 1040 l 293 935 q 264 915 275 915 l 215 915 q 184 925 193 915 q 182 950 175 935 l 236 1074 z "},"":{"ha":536,"x_min":50,"x_max":489,"o":"m 489 50 q 474 15 489 31 q 436 0 458 0 l 367 0 q 332 15 347 0 q 317 50 317 31 l 317 626 q 303 657 317 647 q 272 667 289 667 q 238 657 251 667 q 225 626 225 647 l 225 50 q 210 15 225 31 q 174 0 194 0 l 101 0 q 67 15 82 0 q 51 50 51 31 l 51 758 q 67 794 51 781 q 101 808 82 808 l 194 808 q 215 794 210 808 l 218 775 l 228 775 q 282 812 249 799 q 349 825 315 825 q 402 816 376 825 q 447 788 428 807 q 478 744 467 769 q 489 689 489 718 l 489 50 m 208 1081 l 142 928 q 135 917 140 922 q 126 910 132 914 q 111 906 119 906 l 82 906 q 60 915 69 906 q 50 936 50 925 l 60 1097 q 75 1131 60 1117 q 110 1144 90 1144 l 158 1144 q 194 1130 179 1144 q 210 1094 210 1115 q 208 1081 210 1090 z "},"":{"ha":536,"x_min":49,"x_max":493,"o":"m 489 50 q 474 15 489 31 q 436 0 458 0 l 367 0 q 332 15 347 0 q 317 50 317 31 l 317 626 q 303 657 317 647 q 272 667 289 667 q 238 657 251 667 q 225 626 225 647 l 225 50 q 210 15 225 31 q 174 0 194 0 l 101 0 q 67 15 82 0 q 51 50 51 31 l 51 758 q 67 794 51 781 q 101 808 82 808 l 194 808 q 215 794 210 808 l 218 775 l 228 775 q 282 812 249 799 q 349 825 315 825 q 402 816 376 825 q 447 788 428 807 q 478 744 467 769 q 489 689 489 718 l 489 50 m 53 1050 q 50 1058 51 1056 q 49 1067 49 1060 q 57 1088 49 1078 q 79 1099 65 1099 l 151 1099 q 176 1086 164 1099 l 265 1003 l 274 1003 l 364 1086 q 389 1099 376 1099 l 461 1099 q 483 1090 472 1099 q 493 1067 493 1081 q 486 1050 493 1057 l 372 940 q 352 922 361 928 q 331 917 343 917 l 211 917 q 186 922 196 917 q 165 940 176 928 l 53 1050 z "},"":{"ha":536,"x_min":51,"x_max":489,"o":"m 489 50 q 474 15 489 31 q 436 0 458 0 l 367 0 q 332 15 347 0 q 317 50 317 31 l 317 626 q 303 657 317 647 q 272 667 289 667 q 238 657 251 667 q 225 626 225 647 l 225 50 q 210 15 225 31 q 174 0 194 0 l 101 0 q 67 15 82 0 q 51 50 51 31 l 51 758 q 67 794 51 781 q 101 808 82 808 l 194 808 q 215 794 210 808 l 218 775 l 228 775 q 282 812 249 799 q 349 825 315 825 q 402 816 376 825 q 447 788 428 807 q 478 744 467 769 q 489 689 489 718 l 489 50 m 347 -111 l 281 -264 q 274 -275 279 -269 q 265 -282 271 -278 q 250 -286 258 -286 l 221 -286 q 199 -276 208 -286 q 189 -256 189 -267 l 199 -94 q 214 -61 199 -75 q 249 -47 229 -47 l 297 -47 q 333 -62 318 -47 q 349 -97 349 -76 q 347 -111 349 -101 z "}}}
